<svg xmlns="http://www.w3.org/2000/svg" width="32" height="32" viewBox="0 0 32 32"><defs><style>.a{fill:#fff;stroke:#fff;stroke-width:1.2px;}.b{fill:none;}</style></defs><path class="a" d="M10.018,14.408a.245.245,0,0,1,.032-.057l.008-.011a.223.223,0,0,1,.049-.041l.013-.006s0,0,.006,0l8.763-4.269a.221.221,0,0,1,.2,0l8.763,4.269s0,0,.006,0l.013.006a.245.245,0,0,1,.049.041.053.053,0,0,1,.008.011.2.2,0,0,1,.032.057l.006.016a.213.213,0,0,1,.011.067v8.763a.226.226,0,0,1-.122.2l-8.763,4.494-.009,0a.237.237,0,0,1-.094.022.217.217,0,0,1-.093-.023l-.009,0-8.763-4.494a.223.223,0,0,1-.123-.2V14.49a.223.223,0,0,1,.011-.068c0-.005,0-.01.006-.015Zm8.97,4.323,3.925-2.013-8.107-4.21L10.728,14.5Zm0-8.26-3.679,1.792,8.094,4.2L27.248,14.5Zm8.539,4.387-8.314,4.263v8.258l8.314-4.263ZM10.45,23.116l8.314,4.263V19.121L10.45,14.858Z" transform="translate(-2.988 -2.983)"/><rect class="b" width="32" height="32"/></svg>