<svg xmlns="http://www.w3.org/2000/svg" width="32" height="32" viewBox="0 0 32 32"><defs><style>.a{fill:#fff;stroke:#fff;stroke-width:0.7px;}.b{fill:none;}</style></defs><path class="a" d="M15.1,6a1.1,1.1,0,0,1,1.092,1.092v.756a6.479,6.479,0,0,1,.631.256l.534-.534a1.094,1.094,0,0,1,1.541,0L20.436,9.11a1.1,1.1,0,0,1,0,1.546l-.534.534a6.442,6.442,0,0,1,.262.631h.756a1.1,1.1,0,0,1,1.092,1.092V15.1a1.1,1.1,0,0,1-1.092,1.092h-.762a6.558,6.558,0,0,1-.256.625l.534.534a1.1,1.1,0,0,1,0,1.546L18.9,20.436a1.094,1.094,0,0,1-1.541,0L16.82,19.9a6.472,6.472,0,0,1-.631.256v.762A1.1,1.1,0,0,1,15.1,22.011H12.914a1.1,1.1,0,0,1-1.092-1.092v-.762A6.483,6.483,0,0,1,11.2,19.9l-.534.534a1.094,1.094,0,0,1-1.541,0L7.575,18.895a1.1,1.1,0,0,1,0-1.546l.54-.54a6.636,6.636,0,0,1-.262-.62H7.092A1.1,1.1,0,0,1,6,15.1V12.914a1.1,1.1,0,0,1,1.092-1.092h.762a6.475,6.475,0,0,1,.262-.625l-.54-.54a1.1,1.1,0,0,1,0-1.546L9.121,7.569a1.094,1.094,0,0,1,1.541,0L11.2,8.1a6.478,6.478,0,0,1,.625-.256V7.092A1.1,1.1,0,0,1,12.914,6Zm0,.728H12.914a.356.356,0,0,0-.364.364v1a.373.373,0,0,1-.256.347,5.731,5.731,0,0,0-1.012.415.375.375,0,0,1-.426-.063l-.705-.705a.358.358,0,0,0-.517,0L8.087,9.627a.352.352,0,0,0,0,.512l.711.711a.375.375,0,0,1,.068.432,5.726,5.726,0,0,0-.426,1.006.374.374,0,0,1-.347.262h-1a.355.355,0,0,0-.364.364V15.1a.356.356,0,0,0,.364.364h1a.373.373,0,0,1,.347.256,5.779,5.779,0,0,0,.426,1.012.374.374,0,0,1-.068.426l-.711.711a.352.352,0,0,0,0,.512l1.546,1.541a.358.358,0,0,0,.517,0l.705-.705a.375.375,0,0,1,.426-.063,5.729,5.729,0,0,0,1.012.415.374.374,0,0,1,.256.353v1a.356.356,0,0,0,.364.364H15.1a.355.355,0,0,0,.364-.364v-1a.375.375,0,0,1,.256-.353,5.776,5.776,0,0,0,1.018-.415.375.375,0,0,1,.426.063l.705.705a.358.358,0,0,0,.517,0l1.541-1.541a.352.352,0,0,0,0-.512l-.705-.705a.375.375,0,0,1-.063-.426,5.773,5.773,0,0,0,.415-1.018.373.373,0,0,1,.347-.256h1a.355.355,0,0,0,.364-.364V12.914a.355.355,0,0,0-.364-.364h-1a.376.376,0,0,1-.347-.262,5.719,5.719,0,0,0-.415-1.012.374.374,0,0,1,.063-.432l.705-.705a.352.352,0,0,0,0-.512L18.383,8.087a.358.358,0,0,0-.517,0l-.705.705a.375.375,0,0,1-.426.063,5.773,5.773,0,0,0-1.018-.415.373.373,0,0,1-.256-.347v-1a.355.355,0,0,0-.364-.364Zm-1.092,3.639a3.639,3.639,0,1,1-3.639,3.639A3.644,3.644,0,0,1,14.005,10.367Zm0,.728a2.911,2.911,0,1,0,2.911,2.911A2.906,2.906,0,0,0,14.005,11.094Z" transform="translate(1.995 1.995)"/><rect class="b" width="32" height="32"/></svg>