<?xml version="1.0" encoding="utf-8"?>
<!-- Generator: Adobe Illustrator 22.1.0, SVG Export Plug-In . SVG Version: 6.00 Build 0)  -->
<svg version="1.1" id="objects" xmlns="http://www.w3.org/2000/svg" xmlns:xlink="http://www.w3.org/1999/xlink" x="0px" y="0px"
	 viewBox="0 0 400 400" style="enable-background:new 0 0 400 400;" xml:space="preserve">
<style type="text/css">
	.st0{fill:#45ACE5;}
	.st1{fill:none;}
	.st2{fill:#F6F6F6;}
	.st3{fill:#DADADA;}
	.st4{fill:#1D1D1B;}
	.st5{fill:#9BD83A;}
	.st6{fill:#9D9D9C;}
	.st7{fill:#1C0336;}
	.st8{fill:#A07648;}
	.st9{fill:#BC8C58;}
	.st10{fill:#CA9E67;}
	.st11{fill:#F9F09B;}
	.st12{fill:#352F2D;}
	.st13{fill:#8EBF2E;}
</style>
<g id="Product_List">
	<g id="List">
		<path class="st0" d="M380.2,349.2c0,7-5.1,12.7-11.4,12.7H151.5c-6.3,0-11.4-5.7-11.4-12.7V45.5c0-7,5.1-12.7,11.4-12.7h217.2
			c6.3,0,11.4,5.7,11.4,12.7V349.2z"/>
		<polygon class="st1" points="323.5,67.2 192.4,67.2 192.4,39 189.1,39 189.1,75.4 327.4,75.4 327.4,39 323.5,39 		"/>
		<path class="st1" d="M256.4,8.9c-15.7-0.7-20.5,9.4-21.9,14.8H276C274.6,18.7,270,9.5,256.4,8.9z"/>
		<g>
			<polygon class="st2" points="166.2,57.2 166.2,326.9 356.1,326.9 356.1,107 281.8,57.2 			"/>
			<path class="st3" d="M356.1,107l-74.3-49.8V107c0,0,14.4-4.8,34.2-4.8C339.5,102.2,356.1,107,356.1,107z"/>
		</g>
		<path class="st4" d="M323.5,34.7v-11h-42.7c-1.5-5.9-6.7-18.7-24.2-19.5c-19.9-0.8-25.4,13.2-26.9,19.5h-37.3v11h-7.6v45h146.9
			v-45H323.5z M301.5,39.2c3.4,0,6.2,2.8,6.2,6.2c0,3.4-2.8,6.2-6.2,6.2c-3.4,0-6.2-2.8-6.2-6.2C295.3,42,298,39.2,301.5,39.2z
			 M256.4,8.9c13.7,0.6,18.2,9.7,19.7,14.8h-41.6C235.9,18.3,240.7,8.2,256.4,8.9z M212,39.2c3.4,0,6.2,2.8,6.2,6.2
			c0,3.4-2.8,6.2-6.2,6.2c-3.4,0-6.2-2.8-6.2-6.2C205.9,42,208.6,39.2,212,39.2z M327.4,75.4H189.1V39h3.3v28.2h131.1V39h3.9V75.4z"
			/>
		<g>
			<rect x="215.5" y="79.7" class="st5" width="66.3" height="8.7"/>
			<rect x="215.5" y="91.7" class="st5" width="66.3" height="3.7"/>
			<rect x="215.5" y="97.8" class="st5" width="66.3" height="3.7"/>
		</g>
		<path class="st6" d="M213.3,133.6c0,7.9-6.4,14.2-14.2,14.2c-7.9,0-14.2-6.4-14.2-14.2s6.4-14.2,14.2-14.2
			C206.9,119.3,213.3,125.7,213.3,133.6z"/>
		<circle class="st6" cx="199" cy="180" r="14.2"/>
		<path class="st6" d="M213.3,226.5c0,7.9-6.4,14.2-14.2,14.2c-7.9,0-14.2-6.4-14.2-14.2c0-7.9,6.4-14.2,14.2-14.2
			C206.9,212.2,213.3,218.6,213.3,226.5z"/>
		<path class="st6" d="M213.3,278.7c0,7.9-6.4,14.2-14.2,14.2c-7.9,0-14.2-6.4-14.2-14.2c0-7.9,6.4-14.2,14.2-14.2
			C206.9,264.5,213.3,270.9,213.3,278.7z"/>
		<g>
			<rect x="225.4" y="122.8" class="st5" width="106.3" height="13.9"/>
			<rect x="225.4" y="140.2" class="st5" width="106.3" height="4.6"/>
		</g>
		<g>
			<rect x="225.4" y="169" class="st5" width="106.3" height="13.9"/>
			<rect x="225.4" y="186.4" class="st5" width="106.3" height="4.6"/>
		</g>
		<g>
			<rect x="225.4" y="220.7" class="st5" width="106.3" height="13.9"/>
			<rect x="225.4" y="238.1" class="st5" width="106.3" height="4.6"/>
		</g>
		<g>
			<rect x="225.4" y="267.7" class="st5" width="106.3" height="13.9"/>
			<rect x="225.4" y="285.1" class="st5" width="106.3" height="4.6"/>
		</g>
		<path class="st7" d="M227.8,107.9c-1.8-2.2-6.1-1.6-7.9-0.1l-21.1,17.5l-8.8-8.5c-2-2-5.2-2-7.1,0c-1.9,1.9-1.8,5.1,0.3,7.1
			l12.2,11.8c1.7,1.7,4.3,1.9,6.2,0.7c0.2-0.1,0.3-0.2,0.5-0.3l24.4-20.2C228.3,114.3,229.6,110.1,227.8,107.9z"/>
		<path class="st7" d="M227.8,155.1c-1.8-2.2-6.1-1.6-7.9-0.1l-21.1,17.5L190,164c-2-2-5.2-2-7.1,0c-1.9,1.9-1.8,5.1,0.3,7.1
			l12.2,11.8c1.7,1.7,4.3,1.9,6.2,0.7c0.2-0.1,0.3-0.2,0.5-0.3l24.4-20.2C228.3,161.5,229.6,157.3,227.8,155.1z"/>
	</g>
	<g id="Box">
		<g>
			<polygon class="st8" points="99,259.4 174,280.9 101.2,353.7 28.4,280.9 			"/>
			<polygon class="st9" points="101.5,395.8 28.4,369.5 28.4,280.9 101.5,307.1 			"/>
			<polygon class="st10" points="101.5,395.8 174.5,369.5 174.5,280.9 101.5,307.1 			"/>
			<polygon class="st11" points="148.9,368.7 148.7,290.1 118.2,280.9 144.4,272.4 128.8,267.9 102.1,276.1 73,267.3 57.9,271.9 
				86.1,280.9 55.2,290.3 55.2,368.7 71.3,374.6 71.3,296.2 102.3,286.1 132.9,295.8 132.9,374.6 			"/>
		</g>
		<g>
			<polygon class="st8" points="90.4,166.6 165.4,188 92.6,260.8 19.8,188 			"/>
			<polygon class="st9" points="92.9,302.9 19.8,276.6 19.8,188 92.9,214.3 			"/>
			<polygon class="st10" points="92.9,302.9 165.9,276.6 165.9,188 92.9,214.3 			"/>
			<polygon class="st11" points="140.4,275.9 140.1,197.3 109.6,188.1 135.8,179.5 120.2,175.1 93.5,183.2 64.5,174.5 49.3,179 
				77.6,188.1 46.6,197.5 46.6,275.9 62.7,281.7 62.7,203.3 93.7,193.2 124.3,203 124.3,281.7 			"/>
		</g>
	</g>
	<g id="Pen">
		<path class="st12" d="M114.3,89.7c-3.9,1.7-8.5-0.1-10.1-4.1l-8-18.8c-1.7-3.9,0.1-8.5,4.1-10.1l4.9-2.1c3.9-1.7,8.5,0.1,10.1,4.1
			l8,18.8c1.7,3.9-0.1,8.5-4.1,10.1L114.3,89.7z"/>
		<path class="st13" d="M192.7,231.6c-0.1-0.8-0.2-1.7-0.6-2.5l-58.2-136l-3.4-8l-3-7.1c-0.1-0.1-0.1-0.3-0.2-0.4
			c-1.8-3.6-6.2-5.3-9.9-3.7l-11.5,4.9c-3.9,1.7-5.7,6.2-4.1,10.1l3,7.1l3.4,8l58.2,136c0.4,0.9,0.9,1.6,1.5,2.3
			c0.2,0.3,0.5,0.6,0.7,0.9c6.1,7.6,16.5,10.6,18.5,9.7C189.7,251.9,194.7,241.6,192.7,231.6z"/>
		<path class="st12" d="M191.1,261.3c-1.3,0.6-2.8,0-3.4-1.4l-5.3-12.3c-0.6-1.3,0-2.8,1.4-3.4l0,0c1.3-0.6,2.8,0,3.4,1.4l5.3,12.3
			C193.1,259.2,192.5,260.7,191.1,261.3L191.1,261.3z"/>
		<path class="st5" d="M187.1,253c2.6-1.1,7.6-11.4,5.6-21.4c-0.1-0.8-0.2-1.7-0.6-2.5l-58.2-136l-3.4-8l-3-7.1
			c-0.1-0.1-0.1-0.3-0.2-0.4l41.3,165.6C174.6,250.8,185,253.9,187.1,253z"/>
		
			<rect x="105.3" y="90.2" transform="matrix(0.9194 -0.3933 0.3933 0.9194 -27.5876 54.5467)" class="st12" width="28" height="8.7"/>
		<path class="st12" d="M141.5,138.5c-1.6,0.7-3.5-0.1-4.2-1.7l-22.1-51.8c-0.7-1.6,0.1-3.5,1.7-4.2l0,0c1.6-0.7,3.5,0.1,4.2,1.7
			l22.1,51.8C143.9,136,143.2,137.9,141.5,138.5L141.5,138.5z"/>
	</g>
</g>
</svg>
