<?xml version="1.0" encoding="utf-8"?>
<!-- Generator: Adobe Illustrator 22.1.0, SVG Export Plug-In . SVG Version: 6.00 Build 0)  -->
<svg version="1.1" id="objects" xmlns="http://www.w3.org/2000/svg" xmlns:xlink="http://www.w3.org/1999/xlink" x="0px" y="0px"
	 viewBox="0 0 400 400" style="enable-background:new 0 0 400 400;" xml:space="preserve">
<style type="text/css">
	.st0{fill:#FDDBBB;}
	.st1{fill:#9BD83A;}
	.st2{fill:#E6E6E6;}
	.st3{fill:#C9482A;}
	.st4{fill:#F5F5F5;}
	.st5{fill:#414042;}
	.st6{fill:#6D6E71;}
	.st7{fill:#4F423A;}
	.st8{fill:#EB7D86;}
	.st9{fill:#BFD6CB;}
</style>
<g>
	<g>
		<g>
			<g>
				<g>
					<g>
						<g>
							<path class="st0" d="M393.8,127.7c0,0,2.6-8.7-3.5-9.3c-6.1-0.6-5.3,8.1-5.3,8.1L393.8,127.7z"/>
						</g>
					</g>
				</g>
			</g>
		</g>
	</g>
	<g>
		<path class="st1" d="M389,62.3l-58.7,20.5l4,13.9l30.3-8.7l-63.7,99.5L218,158.2l-58.5,83.1l-88.7-28.3l-65,73.3
			c-2.7,3-2.5,7.5,0.4,10.4h0c3.1,3,8,2.9,10.9-0.3l58.2-64.7l89.5,29.3l59.1-79.3l85.4,28.1L377.3,95l4.6,28.7l14.3-2.3L389,62.3z"
			/>
	</g>
	<g>
		<g>
			<path class="st2" d="M161.4,238.6c3.9,4.2,8.3,7.2,12.7,9.6l25.7-34.5c-10,5.9-19.5,11-29.7,12.5L161.4,238.6z"/>
			<path class="st2" d="M345.8,147.9c-0.7-2.2-1.5-4.3-2.4-6.4c3.5-1.3,6.5-3,9.1-4.9l13.6-23c1-5.7,0.6-9.9,0.6-9.9
				c-7.8,6-12.9,7.8-17.1,7.3l-48.8,76.3L258,172.4c0.8,10.1,2,17.5,2.2,17.9c0,0,0,0,0,0c0,0,0,0,0,0l-1.9-0.3c0,0-4-0.3-9.2-0.1
				l60,19.7L345.8,147.9z"/>
		</g>
		<g>
			<g>
				<path class="st3" d="M267.9,187.6c-48.7-0.5-72.8,45.9-110.1,34.3c18.2,40.5,61.2,19.3,60.1,60.9c49.5,10.3,75.6-46.7,98.6-43
					L267.9,187.6z"/>
				<path class="st2" d="M265.1,187.7c0.2,1.2,0.4,1.9,0.5,2.1c0,0,0,0,0,0c0,0,0,0,0,0l-1.9-0.2c0,0-62.8-3.7-13.5,43.4
					c-1.1,2.4-2.2,4.8-3.4,7l0,0l-9.2,15.9l-21.5,13.4c1.3,3.6,1.9,8.1,1.8,13.6c1.3,0.3,2.5,0.5,3.8,0.7c1.6-5.5-2-12.2-2-12.2
					l23.7-10.6l9-11.2c9.2,5.9,17.6,10.6,24.8,14.3c15.5-12.5,27.8-25.8,39.2-23.9l-48.5-52.3C267,187.6,266,187.6,265.1,187.7z
					 M254.6,221.8c-8.4-7.9-24-25.5,6.8-22.5C259.8,205.4,257.5,213.5,254.6,221.8z"/>
				<path class="st2" d="M164.6,227.8c0,0,5.3,9.2,13.4,13.9c0,0-6.2-6.5-7.5-10.3c0,0,27.4-2.3,44.8-23
					C215.2,208.4,192,228.4,164.6,227.8z"/>
			</g>
			<g>
				<g>
					<g>
						<g>
							<g>
								<g>
									<g>
										<g>
											<g>
												<polygon class="st4" points="384.2,127.8 384.4,125.4 394.4,127.1 394,129.5 												"/>
											</g>
										</g>
									</g>
								</g>
							</g>
						</g>
					</g>
					<g>
						<g>
							<g>
								<g>
									<g>
										<g>
											<g>
												<path class="st5" d="M343.4,208.9c0,0,42.8-26.1,51.3-80l-11-2.4c0,0-6.8,46.3-39.9,69.9L343.4,208.9z"/>
											</g>
										</g>
									</g>
								</g>
							</g>
						</g>
					</g>
					<g>
						<path class="st2" d="M343.8,196.4l-0.4,12.5c0,0,5.7-3.5,13.3-10.5c0-4.7-0.2-9.3-0.5-13.1
							C352.6,189.3,348.5,193.1,343.8,196.4z"/>
					</g>
					<g>
						<g>
							<g>
								<g>
									<g>
										<g>
											<g>
												<path class="st6" d="M392.3,134.2c0-0.6-0.4-1-1-1.1c-0.6,0-1,0.4-1.1,1c0,0.6,0.4,1,1,1.1
													C391.8,135.2,392.3,134.7,392.3,134.2z"/>
											</g>
										</g>
									</g>
								</g>
							</g>
						</g>
					</g>
					<g>
						<g>
							<g>
								<g>
									<g>
										<g>
											<g>
												<path class="st6" d="M393.1,130.7c0-0.6-0.4-1-1-1.1c-0.6,0-1,0.4-1.1,1c0,0.6,0.4,1,1,1.1
													C392.6,131.7,393.1,131.3,393.1,130.7z"/>
											</g>
										</g>
									</g>
								</g>
							</g>
						</g>
					</g>
				</g>
			</g>
			<g>
				<g>
					<g>
						<g>
							<g>
								<g>
									<g>
										<path class="st0" d="M265.5,189.8c0,0,6-73.5,51.4-70.8c57.8,3.4,30.8,85.9,30.8,85.9L265.5,189.8z"/>
									</g>
								</g>
							</g>
						</g>
					</g>
				</g>
			</g>
			<g>
				<g>
					<g>
						<g>
							<g>
								<g>
									<g>
										<g>
											<g>
												<g>
													<path class="st5" d="M312.8,272.5l-17.6,19.8l-23.6,10.6c0,0,10.3,5.4,3.1,15.6c-6.4,9.1-9.8-17-9.8-17l25.7-14.2
														l10.2-13.8c0,0-21.5-7.1-49.8-26.5l-9.3,11l-24,10c0,0,7.7,15.1-5.8,18.3c-7.1,1.7,0.9-19.7,0.9-19.7l23.2-13.7
														l9.6-15.6C245.7,237.2,276.2,243.4,312.8,272.5z"/>
												</g>
											</g>
										</g>
									</g>
								</g>
							</g>
						</g>
						<g>
							<g>
								<g>
									<g>
										<g>
											<g>
												<g>
													<path class="st5" d="M291.3,191.5l20.2,38l30.8-29.3l7.4,1.3c0,0-7.3,35.9-36.8,71.1l-67.1-35.3
														c11.1-19.6,18.2-50,18.2-50L291.3,191.5z"/>
												</g>
											</g>
										</g>
									</g>
								</g>
							</g>
						</g>
						<g>
							<g>
								<g>
									<g>
										<g>
											<g>
												<g>
													<g>
														<g>
															<polygon class="st4" points="342.2,200.1 311.4,229.4 291.3,191.5 															"/>
														</g>
													</g>
												</g>
											</g>
										</g>
									</g>
								</g>
								<g>
									<g>
										<g>
											<g>
												<g>
													<g>
														<g>
															<polygon class="st6" points="342.2,200.1 340.1,214.6 331.7,214.8 330.9,226 311.4,229.4 															"/>
														</g>
													</g>
												</g>
											</g>
										</g>
									</g>
								</g>
								<g>
									<g>
										<g>
											<g>
												<g>
													<g>
														<g>
															<polygon class="st6" points="311.4,229.4 295.2,217.7 297.2,209.9 289.2,205.3 291.3,191.5 															"/>
														</g>
													</g>
												</g>
											</g>
										</g>
									</g>
								</g>
								<g>
									<g>
										<g>
											<g>
												<g>
													<g>
														<g>
															<polygon class="st5" points="323.3,204.1 321.3,199.6 314.4,198.2 311.1,202.6 313.3,206.3 306.9,220.9 311.4,229.4 
																319.6,221.6 319.4,207.6 															"/>
														</g>
													</g>
												</g>
											</g>
										</g>
									</g>
								</g>
							</g>
						</g>
						<g>
							<g>
								<g>
									<g>
										<g>
											<g>
												<g>
													<path class="st6" d="M307,235.5c0,1.3,1.1,2.3,2.5,2.3c1.3,0,2.3-1.1,2.3-2.5c0-1.3-1.2-2.3-2.5-2.3
														C308,233.1,306.9,234.2,307,235.5z"/>
												</g>
											</g>
										</g>
									</g>
								</g>
							</g>
						</g>
						<g>
							<g>
								<g>
									<g>
										<g>
											<g>
												<g>
													<path class="st6" d="M303.2,244.4c0,1.3,1.1,2.3,2.5,2.3c1.3,0,2.3-1.1,2.3-2.5c0-1.3-1.1-2.3-2.5-2.3
														C304.1,242,303.1,243.1,303.2,244.4z"/>
												</g>
											</g>
										</g>
									</g>
								</g>
							</g>
						</g>
					</g>
				</g>
			</g>
			<g>
				<g>
					<g>
						<g>
							<g>
								<g>
									<g>
										<g>
											<g>
												<path class="st7" d="M372.2,101.1c0,0,5.4,58.2-77.1,35.7l-4.7,17.8c0,0-6.1-8.1-9.5-0.3c-3.9,8.9,6.2,6.5,6.2,6.5
													s-11.5,20.2-21.4,26.7c-0.9-1.6-13.4-88,22.6-77.1c0.7-2.1,7.8-15.9,29.5-15.6C350.7,95.2,346.9,120.7,372.2,101.1z"/>
											</g>
										</g>
									</g>
								</g>
							</g>
						</g>
					</g>
				</g>
			</g>
			<path class="st7" d="M310.6,156.9c0,3.3-1.4,5.9-3.1,5.9c-1.7,0-3-2.7-3-5.9c0-3.3,1.4-5.9,3.1-5.9
				C309.3,151,310.6,153.7,310.6,156.9z"/>
			<path class="st7" d="M346.3,157c0,3.3-1.4,5.9-3.1,5.9c-1.7,0-3-2.7-3-5.9c0-3.3,1.4-5.9,3.1-5.9
				C345,151.1,346.4,153.8,346.3,157z"/>
			<g>
				<g>
					<g>
						<g>
							<path class="st0" d="M251.3,230.7c0,0,6,7.6,10.7,2.1c4.6-5.5-4.7-8.6-4.7-8.6L251.3,230.7z"/>
						</g>
					</g>
				</g>
				<g>
					<polygon class="st4" points="256.6,222.9 258.5,224.3 251.5,231.3 249.8,229.7 					"/>
				</g>
				<g>
					<path class="st5" d="M263.9,187.2c0,0-63.3-5.4-14.1,43.7l8.2-7.7c0,0-36.6-31.5,4-26.1L263.9,187.2z"/>
				</g>
				<g>
					<path class="st6" d="M246.8,225.9c0.5,0.3,1.1,0.2,1.4-0.2c0.3-0.5,0.2-1.1-0.2-1.4c-0.5-0.3-1.1-0.2-1.4,0.2
						C246.2,224.9,246.3,225.5,246.8,225.9z"/>
				</g>
				<g>
					<path class="st6" d="M249.2,228.4c0.5,0.3,1.1,0.2,1.4-0.2c0.3-0.5,0.2-1.1-0.2-1.4c-0.5-0.3-1.1-0.2-1.4,0.2
						C248.6,227.5,248.7,228.1,249.2,228.4z"/>
				</g>
			</g>
			<g>
				<g>
					<path class="st8" d="M336.4,175.2c0,0-15.5-2.5-25.4-0.7c0,0-2.5,12.6,12.3,13.4C337.9,188.7,336.4,175.2,336.4,175.2z"/>
				</g>
			</g>
		</g>
	</g>
	<path class="st9" d="M153.4,304.4c0,0,2.5-1.2,6.3-3c3.8-1.8,8.9-4.2,14-6.5c2.5-1.2,5.1-2.4,7.5-3.5c2.4-1.1,4.6-2.1,6.5-3
		c1.9-0.9,3.5-1.6,4.6-2.1c1.1-0.5,1.8-0.8,1.8-0.8s-0.6,0.4-1.6,1.1c-1,0.7-2.5,1.6-4.3,2.7c-0.5,0.3-0.9,0.6-1.4,0.8
		c-0.5,0.3-1,0.6-1.5,0.9c-1.1,0.6-2.2,1.2-3.3,1.8c-1.2,0.6-2.4,1.3-3.6,1.9c-1.2,0.6-2.5,1.2-3.8,1.8c-1.3,0.6-2.6,1.2-3.8,1.7
		c-1.3,0.6-2.5,1.1-3.7,1.6c-1.2,0.5-2.4,1-3.5,1.4c-1.1,0.4-2.2,0.8-3.2,1.2C156.1,303.7,153.4,304.4,153.4,304.4z"/>
	<path class="st9" d="M141.2,337.7c0,0,4.5-2.3,11.3-5.5c1.7-0.8,3.5-1.7,5.5-2.6c1.9-0.9,4-1.9,6.1-2.9c4.2-2,8.8-4.1,13.3-6.3
		c4.5-2.1,9.1-4.3,13.3-6.3c2.1-1,4.2-2,6.1-2.9c1.9-0.9,3.8-1.8,5.5-2.6c1.7-0.8,3.2-1.6,4.6-2.2c0.7-0.3,1.3-0.6,1.9-0.9
		c0.6-0.3,1.1-0.6,1.6-0.8c2-1,3.1-1.5,3.1-1.5s-1.1,0.7-2.9,1.8c-0.5,0.3-1,0.6-1.5,1c-0.6,0.3-1.2,0.7-1.9,1.1
		c-1.3,0.8-2.8,1.7-4.5,2.5c-1.7,0.9-3.4,1.9-5.3,2.9c-1.9,1-3.9,2.1-6,3.1c-2.1,1-4.3,2.2-6.5,3.2c-2.2,1.1-4.5,2.2-6.7,3.2
		c-2.3,1.1-4.6,2.1-6.8,3.1c-2.2,1-4.5,2-6.6,3c-2.1,1-4.2,1.8-6.2,2.7c-2,0.8-3.9,1.6-5.6,2.3c-3.5,1.4-6.4,2.6-8.4,3.4
		C142.4,337.2,141.2,337.7,141.2,337.7z"/>
	<path class="st9" d="M195.6,337.7c0,0,3-1.4,7.4-3.4c4.4-2,10.4-4.7,16.3-7.3c5.9-2.7,11.9-5.3,16.3-7.3c2.2-1,4.1-1.8,5.4-2.4
		c1.3-0.6,2.1-0.9,2.1-0.9s-0.7,0.4-1.9,1.2c-1.2,0.7-3,1.8-5.1,3c-1.1,0.6-2.2,1.2-3.5,1.9c-1.2,0.6-2.5,1.3-3.9,2
		c-1.4,0.7-2.8,1.4-4.2,2.1c-1.5,0.7-2.9,1.4-4.4,2c-1.5,0.6-3,1.3-4.5,1.9c-1.5,0.6-2.9,1.2-4.4,1.8c-1.4,0.6-2.8,1.1-4.1,1.6
		c-1.3,0.5-2.6,0.9-3.7,1.3c-2.3,0.8-4.3,1.4-5.6,1.8C196.4,337.5,195.6,337.7,195.6,337.7z"/>
	<path class="st0" d="M385.1,123.2c0,0,0.6-4.6,2.2-4.6c1.5,0,0.5,4.4,0.5,4.4L385.1,123.2z"/>
</g>
</svg>
