<?xml version="1.0" encoding="utf-8"?>
<!-- Generator: Adobe Illustrator 22.1.0, SVG Export Plug-In . SVG Version: 6.00 Build 0)  -->
<svg version="1.1" id="Layer_1" xmlns="http://www.w3.org/2000/svg" xmlns:xlink="http://www.w3.org/1999/xlink" x="0px" y="0px"
	 viewBox="0 0 400 400" style="enable-background:new 0 0 400 400;" xml:space="preserve">
<style type="text/css">
	.st0{fill:#F3B000;}
	.st1{fill:#B68400;}
	.st2{fill:#F8D066;}
	.st3{fill:#BA9C4D;}
	.st4{fill:#336BA8;}
	.st5{fill:#D84E00;}
	.st6{fill:#BFBFBF;}
	.st7{fill:#808080;}
	.st8{fill:#7C6833;}
	.st9{fill:#E88D00;}
	.st10{fill:#EFEFEF;}
	.st11{fill:#C9C9C9;}
	.st12{fill:#51E07D;}
	.st13{fill:#FFFFFF;}
</style>
<g>
	<g>
		<g>
			<g>
				<g>
					<g>
						<g>
							<rect x="106" y="246.7" class="st0" width="76.3" height="76.3"/>
						</g>
						<rect x="135.7" y="246.7" class="st1" width="16.9" height="20.6"/>
					</g>
					<g>
						<g>
							<rect x="198.8" y="246.7" class="st0" width="76.3" height="76.3"/>
						</g>
						<rect x="228.5" y="246.7" class="st1" width="16.9" height="20.6"/>
					</g>
				</g>
				<g>
					<g>
						<rect x="198.8" y="165.8" class="st0" width="76.3" height="76.3"/>
					</g>
					<rect x="228.5" y="165.8" class="st1" width="16.9" height="20.6"/>
				</g>
			</g>
			<g>
				<rect x="92.2" y="323" class="st2" width="196.6" height="6.9"/>
				<rect x="92.2" y="343.4" class="st2" width="196.6" height="6.9"/>
				<rect x="182.2" y="329.9" class="st3" width="16.6" height="13.5"/>
				<g>
					<rect x="92.2" y="329.9" class="st3" width="16.6" height="13.5"/>
					<rect x="272.3" y="329.9" class="st3" width="16.6" height="13.5"/>
				</g>
			</g>
		</g>
		<g>
			<g>
				<rect x="97.4" y="130.3" class="st0" width="76.3" height="76.3"/>
			</g>
			<rect x="127.1" y="130.3" class="st1" width="16.9" height="20.6"/>
		</g>
		<path class="st4" d="M53.7,179.1l-14.2-18.7v47.1c0,6.3-8.5,11.4-18.9,11.4c-10.5,0-18.9-5.1-18.9-11.4v29.4L1,279.8l0.5,58.3
			c0,1.4,1.2,2.6,2.6,2.6h15.6c1.4,0,2.7-1.2,2.8-2.6l4.5-57.3c0-0.1,0-0.2,0-0.3l0.8-38.4l3.5,36.3l0.8,59.7c0,1.4,1.2,2.6,2.6,2.6
			h15.6c1.4,0,2.7-1.2,2.8-2.6l4.2-59.6c0-0.6,0-1.2-0.1-1.7l-3.6-39.9V179.1z"/>
		<g>
			<path class="st5" d="M1.4,337.7C1.5,339.1,1.5,339.1,1.4,337.7L1,279.8L1.4,337.7z"/>
			<path class="st5" d="M32.1,337.7C32.1,339.1,32.1,339.1,32.1,337.7l-0.8-59.2L32.1,337.7z"/>
			<path class="st5" d="M22.5,337.7l4.5-56.8L22.5,337.7C22.4,339.1,22.4,339.1,22.5,337.7z"/>
			<path class="st5" d="M78.8,177.6l-26.2-34.4c-2.4-3.2-6.2-4.1-10-4.1c-0.6-0.1-1.3,0-1.9,0h-26c-7.2,0-13,5.8-13,13v55.4
				c0,6.3,8.5,11.4,18.9,11.4c10.5,0,18.9-5.1,18.9-11.4v-47.1l14.2,18.7l11.6,15.3c2,2.6,5,4.1,8.3,4.1H109v-20.8H78.8z"/>
			<path class="st5" d="M53.1,337.7l4.2-59.1L53.1,337.7C53,339.1,53,339.1,53.1,337.7z"/>
		</g>
		<g>
			<path class="st2" d="M136.1,184.3l-2.6,0c1.1,0,2-0.9,2-2c0-1.1-0.9-2-2-2h-12.2l4.9-3.4c0.8-0.5,1.1-1.6,0.7-2.4
				c-0.5-1-1.6-1.4-2.6-0.9l-13.4,6.3c-0.2,0.1-0.3,0.2-0.5,0.3c-0.2,0.2-0.4,0.4-0.6,0.6H109v15h5.1c0.3,0.2,0.6,0.3,1,0.3h15.8
				c1.1,0,2-0.9,2-2c0-1.1-0.9-2-2-2h2.6c1.1,0,2-0.9,2-2c0-1.1-0.9-2-2-2h2.6c1.1,0,2-0.9,2-2C138.1,185.1,137.2,184.3,136.1,184.3
				z"/>
			<polygon class="st3" points="133.5,184.3 123.8,184.6 123.8,183.9 			"/>
			<polygon class="st3" points="133.5,188.2 123.8,188.5 123.8,187.8 			"/>
			<polygon class="st3" points="130.9,192.1 123.8,192.4 123.8,191.7 			"/>
		</g>
		<g>
			<g>
				<path class="st6" d="M34.7,349.4c-1.4,0-2.6-1.2-2.6-2.6v-6.1c0-1.4,1.2-2.6,2.6-2.6c0,0,7.3,0,16.3,0c9,0,16.3,3.1,16.3,6.9
					v1.7c0,1.4-1.2,2.6-2.6,2.6H34.7z"/>
				<path class="st7" d="M64.6,350.1h-30c-1.8,0-3.3-1.5-3.3-3.3v-6.1c0-1.8,1.5-3.3,3.3-3.3H51c9.5,0,16.9,3.3,16.9,7.6v1.7
					C67.9,348.6,66.4,350.1,64.6,350.1z M34.7,338.8c-1.1,0-2,0.9-2,2v6.1c0,1.1,0.9,2,2,2h30c1.1,0,2-0.9,2-2v-1.7
					c0-3.4-7.2-6.3-15.6-6.3H34.7z"/>
			</g>
			<path class="st7" d="M32.1,345.8v1c0,1.4,1.2,2.6,2.6,2.6h30c1.4,0,2.6-1.2,2.6-2.6v-1H32.1z"/>
		</g>
		<g>
			<g>
				<path class="st6" d="M3.6,349.4c-1.4,0-2.6-1.2-2.6-2.6v-6.1c0-1.4,1.2-2.6,2.6-2.6c0,0,7.3,0,16.3,0c9,0,16.3,3.1,16.3,6.9v1.7
					c0,1.4-1.2,2.6-2.6,2.6H3.6z"/>
				<path class="st7" d="M33.5,350.1h-30c-1.8,0-3.3-1.5-3.3-3.3v-6.1c0-1.8,1.5-3.3,3.3-3.3h16.3c9.5,0,16.9,3.3,16.9,7.6v1.7
					C36.8,348.6,35.3,350.1,33.5,350.1z M3.6,338.8c-1.1,0-2,0.9-2,2v6.1c0,1.1,0.9,2,2,2h30c1.1,0,2-0.9,2-2v-1.7
					c0-3.4-7.2-6.3-15.6-6.3H3.6z"/>
			</g>
			<path class="st7" d="M1,345.8v1c0,1.4,1.2,2.6,2.6,2.6h30c1.4,0,2.6-1.2,2.6-2.6v-1H1z"/>
		</g>
		<g>
			<path class="st2" d="M15,128.6c1.2,0.8,2.2,2.5,2.2,4v6.5h20.8v-6.5c0-1.4,1-3.1,2.2-4c5.6-4,9.2-10.5,9.2-17.8
				c0-12.1-9.8-21.9-21.9-21.9c-12.1,0-21.9,9.8-21.9,21.9C5.8,118.1,9.5,124.6,15,128.6z"/>
			<path class="st2" d="M15,128.6c1.2,0.8,2.2,2.5,2.2,4v6.5h20.8v-6.5c0-1.4,1-3.1,2.2-4c5.6-4,9.2-10.5,9.2-17.8
				c0-12.1-9.8-21.9-21.9-21.9c-12.1,0-21.9,9.8-21.9,21.9C5.8,118.1,9.5,124.6,15,128.6z"/>
			<path class="st8" d="M28.7,88.2c-13.2,0-23.9,10.7-23.9,23.9c0,7.1,1.7,19.7,8,17.8c4.1-1.2,4.7-16.4,4.7-16.4
				c-0.7-1.2-1.2-2.8-1.2-4.4c0-4,2.5-7.3,5.5-7.3c1.3,0,2.4,0.6,3.4,1.6c4.4-1.5,10.9-2.4,18.2-2.4c2.2,0,5.3,2,6.4,0.3
				C54.7,94,37.9,88.2,28.7,88.2z"/>
			<path class="st9" d="M54.5,89.2c-0.5-1.4-2-2.1-3.3-1.6l-3.6,1.3c-4.2-8.1-12.6-13.6-22.3-13.6C11.3,75.2,0,86.5,0,100.4
				c0,1.8,0.2,3.6,0.6,5.3c-0.4,0.6-0.5,1.4-0.2,2.1c0.4,1.1,1.4,1.8,2.5,1.8c0.3,0,0.6,0,0.9-0.1l49.2-17
				C54.2,92,54.9,90.5,54.5,89.2z"/>
		</g>
	</g>
	<g>
		<path class="st10" d="M378.3,217H192.1c-6.7,0-12.2-5.5-12.2-12.2V70.3c0-6.7,5.5-12.2,12.2-12.2h186.2c6.7,0,12.2,5.5,12.2,12.2
			v134.5C390.5,211.5,385.1,217,378.3,217z"/>
		<path class="st11" d="M392.1,111.5H178.4c-4.4,0-7.9-3.6-7.9-7.9v-46c0-4.4,3.6-7.9,7.9-7.9h213.7c4.4,0,7.9,3.6,7.9,7.9v46
			C400,108,396.4,111.5,392.1,111.5z"/>
		<g>
			<path class="st10" d="M362.6,81.5H237.4c-3.1,0-5.6-2.5-5.6-5.6v0c0-3.1,2.5-5.6,5.6-5.6h125.2c3.1,0,5.6,2.5,5.6,5.6v0
				C368.2,79,365.7,81.5,362.6,81.5z"/>
			<path class="st10" d="M328.4,90.8h-94.4c-1.2,0-2.1-0.9-2.1-2.1l0,0c0-1.2,0.9-2.1,2.1-2.1h94.4c1.2,0,2.1,0.9,2.1,2.1l0,0
				C330.5,89.9,329.5,90.8,328.4,90.8z"/>
			<circle class="st10" cx="209.3" cy="80.6" r="16.3"/>
		</g>
		<g>
			<path class="st11" d="M341,139H236.9c-2.8,0-5.1-2.3-5.1-5.1V133c0-2.8,2.3-5.1,5.1-5.1H341c2.8,0,5.1,2.3,5.1,5.1v0.9
				C346.1,136.7,343.8,139,341,139z"/>
			<path class="st11" d="M298.8,148.3h-65.2c-1,0-1.8-0.8-1.8-1.8v-0.7c0-1,0.8-1.8,1.8-1.8h65.2c1,0,1.8,0.8,1.8,1.8v0.7
				C300.6,147.5,299.8,148.3,298.8,148.3z"/>
			<circle class="st11" cx="209.3" cy="138.1" r="16.3"/>
		</g>
		<g>
			<path class="st11" d="M348.7,184H237.1c-2.9,0-5.3-2.4-5.3-5.3v-0.6c0-2.9,2.4-5.3,5.3-5.3h111.6c2.9,0,5.3,2.4,5.3,5.3v0.6
				C354,181.7,351.6,184,348.7,184z"/>
			<path class="st11" d="M335.9,193.3H233.9c-1.2,0-2.1-0.9-2.1-2.1l0,0c0-1.2,0.9-2.1,2.1-2.1h101.9c1.2,0,2.1,0.9,2.1,2.1l0,0
				C338,192.4,337,193.3,335.9,193.3z"/>
			<circle class="st11" cx="209.3" cy="183.1" r="16.3"/>
		</g>
		<circle class="st12" cx="374.2" cy="69.5" r="12.7"/>
		<g>
			<path class="st13" d="M363.6,72.9V66h1.8l1.4,2.5c0.4,0.7,0.8,1.6,1.1,2.4h0c-0.1-0.9-0.1-1.9-0.1-2.9v-2h1.4v6.9h-1.6l-1.5-2.7
				c-0.4-0.7-0.9-1.6-1.2-2.5l0,0c0,0.9,0.1,1.9,0.1,3v2.1H363.6z"/>
			<path class="st13" d="M374.9,70h-2.6v1.6h2.9v1.3h-4.4V66h4.3v1.3h-2.7v1.4h2.6V70z"/>
			<path class="st13" d="M377.5,72.9l-1.7-6.9h1.7l0.5,2.9c0.2,0.8,0.3,1.7,0.4,2.4h0c0.1-0.8,0.3-1.6,0.5-2.4l0.6-2.8h1.7l0.6,2.9
				c0.2,0.8,0.3,1.6,0.4,2.3h0c0.1-0.8,0.3-1.6,0.4-2.4l0.6-2.8h1.6l-1.8,6.9h-1.7l-0.6-3c-0.1-0.7-0.2-1.3-0.3-2.1h0
				c-0.1,0.8-0.2,1.4-0.4,2.1l-0.7,3H377.5z"/>
		</g>
	</g>
</g>
</svg>
