<?xml version="1.0" encoding="utf-8"?>
<!-- Generator: Adobe Illustrator 22.1.0, SVG Export Plug-In . SVG Version: 6.00 Build 0)  -->
<svg version="1.1" id="Isolation_Mode" xmlns="http://www.w3.org/2000/svg" xmlns:xlink="http://www.w3.org/1999/xlink" x="0px"
	 y="0px" viewBox="0 0 450 450" style="enable-background:new 0 0 450 450;" xml:space="preserve">
<style type="text/css">
	.st0{fill:#EFEFEF;}
	.st1{fill:#9B8F8E;}
	.st2{fill:#D8D8D8;}
	.st3{fill:#FFFFFF;}
	.st4{fill:#EABCB2;}
	.st5{fill:#F4D9D0;}
	.st6{fill:#232121;}
	.st7{fill:url(#SVGID_1_);}
	.st8{fill:url(#SVGID_2_);}
	.st9{fill:#BAC92B;}
	.st10{fill:url(#SVGID_3_);}
	.st11{fill:#5E2014;}
	.st12{fill:#FF8825;}
	.st13{fill:#F25826;}
	.st14{fill:#BFB8B8;}
	.st15{fill:#5E1C17;}
	.st16{fill:#300901;}
	.st17{fill:url(#SVGID_4_);}
	.st18{fill:#AFAF1B;}
	.st19{fill:#6D7C00;}
	.st20{fill:#E84505;}
	.st21{fill:#7F3724;}
	.st22{fill:#76347F;}
	.st23{fill:#9E5EA5;}
</style>
<g>
	<ellipse class="st0" cx="357.8" cy="431.6" rx="67.2" ry="9.1"/>
	<ellipse class="st0" cx="92.2" cy="434.7" rx="67.2" ry="9.1"/>
	<ellipse class="st0" cx="177.5" cy="433.4" rx="49.3" ry="7.2"/>
	<g>
		<rect x="225.3" y="237.6" class="st1" width="3.6" height="6.9"/>
		<path d="M233,248.8c0-3.7-2.6-6.7-5.9-6.7c-3.3,0-5.9,3-5.9,6.7H233z"/>
	</g>
	<g>
		<rect x="292.3" y="237.6" class="st1" width="3.6" height="6.9"/>
		<path d="M300,248.8c0-3.7-2.6-6.7-5.9-6.7c-3.3,0-5.9,3-5.9,6.7H300z"/>
	</g>
	<rect x="157.6" y="248.5" class="st2" width="160.3" height="13"/>
	<g>
		<path class="st3" d="M147.9,172c0-6.3-7.7-22.8-7.7-22.8l28,0.3l-9.5,23.1c0,0,0.4,2.8,2.8,10.5c2.2,7.1,11.6,24.7,12.6,34.7
			c1.1,11.2-4.9,19.3-21.4,20c-12.1,0.5-24.5-11.9-18.6-27C148.2,175.2,147.9,172,147.9,172z"/>
		<path class="st2" d="M132.1,218.6c0-2.5,0.5-5.2,1.6-7.9l0,0c13.4-34,13.7-38.6,13.6-38.7l0,0c0,0,0,0,0,0l0,0
			c0-6-7.6-22.5-7.6-22.5l0,0l-0.4-0.8L169,149l-9.7,23.8c0.1,0.6,0.6,3.6,2.8,10.3l0,0c2.2,7,11.6,24.6,12.6,34.8l0,0
			c0.1,0.9,0.1,1.8,0.1,2.6l0,0c0.1,10.1-6.7,17.4-22,18l0,0c-0.3,0-0.5,0-0.7,0l0,0C142,238.5,132.1,230.1,132.1,218.6L132.1,218.6
			z M134.7,211.2c-1,2.6-1.5,5.1-1.5,7.5l0,0c0,10.7,9.4,18.7,18.8,18.8l0,0c0.2,0,0.5,0,0.7,0l0,0c15.1-0.7,20.9-7.3,21-16.9l0,0
			c0-0.8,0-1.6-0.1-2.5l0,0c-1-9.8-10.3-27.4-12.6-34.6l0,0c-2.4-7.7-2.8-10.6-2.8-10.6l0,0l0-0.2l9.2-22.5l-26.3-0.3
			c1.6,3.4,7.4,16.5,7.4,22.2l0,0v0.3l0,0C148.2,173.9,146.7,180.6,134.7,211.2L134.7,211.2z"/>
	</g>
	<g>
		<g>
			<path class="st4" d="M115.7,292.5c1.4,10-8.1,34.1-10.9,38.4c-2.8,4.3-10,68.8-10,73c0,7.6,16.6,21.3,27.8,26.6
				c-6.4,4-25.6-3.8-33.2-6.5c-6-2.1-11.3,0.5-12.6-3.3c-2.8-8.5,1.9-11.4,1.9-24.2c0-12.8-9-51.9,0-71.8
				c5.5-12.2,2.8-29.4,4.3-33.7C84.4,286.8,115.7,292.5,115.7,292.5z"/>
			<path d="M76.4,409.5c-1.1,4.4-2.1,9.4,0.4,15c1.2,2.6,1.9,10.4,1.9,10.4h6.9l1.2-7.1c0,0,4.2,1.3,10.1,7.1c0.3,0.3,28.5,0,28.5,0
				s0.9-6.4-8.9-7.5c-12.7-1.4-25.3-7.6-28.8-10.5C82.1,412.2,76.4,409.5,76.4,409.5z"/>
		</g>
		<path class="st5" d="M106.5,293.9c1.4,10-8.1,34.1-10.9,38.4c-2.8,4.3-10,68.8-10,73c0,7.6,16.6,21.3,27.8,26.6
			c-6.4,4-25.6-3.8-33.3-6.5c-6-2.1-11.3,0.4-12.6-3.3c-2.8-8.5,1.9-11.4,1.9-24.2c0-12.8-9-51.9,0-71.8c5.5-12.2,2.8-29.4,4.3-33.7
			C75.2,288.2,106.5,293.9,106.5,293.9z"/>
		<path class="st6" d="M67.2,411c-1.1,4.4-2.1,9.4,0.4,15c1.2,2.6,1.9,10.4,1.9,10.4h6.9l1.2-7.1c0,0,4.3,1.3,10.1,7.1
			c0.3,0.3,28.5,0,28.5,0s0.9-6.4-8.8-7.5c-12.7-1.4-25.3-7.6-28.8-10.5C72.9,413.6,67.2,411,67.2,411z"/>
		<g>
			<g>
				<linearGradient id="SVGID_1_" gradientUnits="userSpaceOnUse" x1="71.4293" y1="352.0726" x2="99.9231" y2="297.0525">
					<stop  offset="0" style="stop-color:#FFFFFF"/>
					<stop  offset="0.6429" style="stop-color:#C6C0B9"/>
				</linearGradient>
				<path class="st7" d="M65.9,355.1l45-36.3c1.7-2.8-4,0.7-1.4-8.4c-9.1-6.1-25.6-12.4-29.7-10c-2.3,1.3-4.4,2.9-6.3,4.6
					c-0.2,6.5-0.8,14.3-3.7,20.6C66.3,333.5,65.5,344.2,65.9,355.1z"/>
			</g>
		</g>
	</g>
	<path class="st5" d="M113.8,89.8c-8.5,8.1-6.4,27.3-2.5,34.9c2.5,4.9-6.1-6.4-14.8-9.4c-7.7-2.7-8.6-3.6-13.5-4.1
		c2.8-4.1,6.1-25.3,2.1-36.4C81.1,63.7,113.8,89.8,113.8,89.8z"/>
	<g>
		<linearGradient id="SVGID_2_" gradientUnits="userSpaceOnUse" x1="83.7068" y1="95.1061" x2="116.6583" y2="95.1061">
			<stop  offset="0" style="stop-color:#FFFFFF"/>
			<stop  offset="0.6429" style="stop-color:#C6C0B9"/>
		</linearGradient>
		<path class="st8" d="M85.2,73.8c-2.3-6.3,23.4,11.4,31.5,17.4l-21.3,26.6c-5.1-1.9-9.9-5.1-11.6-7.3
			C86.5,106.3,89.1,84.8,85.2,73.8z"/>
	</g>
	<path class="st5" d="M83.2,63.3C81.9,80.8,92.9,99,106.9,100c14,1,21-12.5,22.3-30.1c1.2-17.6-5.9-28.2-19.9-29.2
		C95.4,39.7,84.4,45.7,83.2,63.3z"/>
	<path class="st5" d="M128.2,66.6c0.7,4.1-1.6,6.7,2.1,17.2c0,2.8-7.2,2.1-8.6,2.4C120.4,86.4,128.2,66.6,128.2,66.6z"/>
	<path class="st4" d="M106.5,100c1.6,0.1,3,0.1,4.4-0.2c-13.6-6-6.5-40.7-3.1-46.9c-2.1-0.9,4.7-13.1,2-13.3
		c-14-1-25.8,6.1-27.1,23.7C81.6,80.9,92.6,99,106.5,100z"/>
	<path class="st6" d="M98.9,115.2c3.7,2.3,12.6,9,12.6,9c3.5,7.9,12.2,24.4,13.5,28.4c1.8,5.7-1.7,14.2-3.6,17.1
		c-1.9,2.9-4.5,11.9-4.5,15.7c0,3.8-1,19.4-1,19.4s-33.3,0.1-37.9-1.4c-2.9-0.9-3.8-29.9-4.7-45c-0.9-15.2-2.5-33.1,10.9-49.8
		C91,110.9,93.4,111.7,98.9,115.2z"/>
	<g>
		<path d="M73.3,158.1c1,15.2,1.9,44.1,4.7,45c0,0,0,0,0,0l22.2-4c0,0,0.5-7.6-0.2-9.7c-0.7-2.1-7.8-54.1-7.8-61.2
			c0-5.2,3-10.2,5.8-13.8c-4.8-3-7.3-3.9-13.8-6.1C70.7,124.9,72.3,142.9,73.3,158.1z"/>
	</g>
	<g>
		<path class="st6" d="M76.6,197.4c-15.2,17.8-16,41.8-20.4,65.2c-3.9,21.1-9.5,57.4-9.5,57.4l84.6,0.5l-14.6-122.3L76.6,197.4z"/>
		<g>
			<path d="M56.2,262.9c-3.9,21.1-9.5,57.4-9.5,57.4l37.1,0.2c0.5-13.6,2.3-76.8,4.1-90.1c1.6-12.1,5.9-23.7,12.3-32.3l-23.7-0.4
				C61.4,215.5,60.6,239.5,56.2,262.9z"/>
		</g>
	</g>
	<g>
		<g>
			<path class="st5" d="M87,119.1c8.4-0.3,13.2,4,13,12.4c-0.2,8.4-0.8,34.5,1.7,36.7c2.5,2.2,32.5,9.7,37,8.4
				c4.4-1.3,10.6-8.4,14.3-7.9c3.7,0.5,10.7,4.3,11.5,8.7c0.8,4.3-0.1,7.5-4.4,8.3c-4.4,0.8-3.1-1.4-7.4-1
				c-4.3,0.3-3.9,0.9-10.2,2.3c-6.3,1.5-47.7,7.5-55.1,0.3c-7.5-7.2-11.1-39.3-10.7-51.9C77.1,118.2,87,119.1,87,119.1z"/>
		</g>
		<g>
			<path class="st4" d="M75.8,135.4c-0.4,12.6,4,44.5,11.2,51.9c7.8,8.1,48.8,1.1,55.1-0.3c6.3-1.5,5.9-2,10.2-2.3
				c4.3-0.4,3,1.8,7.4,1c4-0.8,5.3-2.9,4.8-6.7c-5.3-4.9-8.9-4.6-18.6,1.2c-10.7,6.4-40.2,1.3-48.2-2.5c-2.3-1.1-5.2-6.2-8.5-22.3
				c-2.8-13.8-0.9-32.8,2.5-38.5c-1.9-0.6-3.2,0.6-5.3,0.7C86.3,117.5,76.4,118,75.8,135.4z"/>
		</g>
	</g>
	<g>
		<g>
			<path class="st9" d="M187,388.7v-0.9l-8.1,0.4l-8.1-0.4v0.9l-34.3,1.8l11.1,43.7h62.6l11.1-43.7L187,388.7z M162.3,423.3
				c0,1.2-1.3,2.3-3,2.3c-1.6,0-3-1-3-2.3v-6.8c0-1.2,1.3-2.3,3-2.3c1.6,0,3,1,3,2.3V423.3z M162.3,406.3c0,1.2-1.3,2.3-3,2.3
				c-1.6,0-3-1-3-2.3v-6.8c0-1.2,1.3-2.3,3-2.3c1.6,0,3,1,3,2.3V406.3z M171.2,423.3c0,1.2-1.3,2.3-3,2.3c-1.6,0-3-1-3-2.3v-6.8
				c0-1.2,1.3-2.3,3-2.3c1.6,0,3,1,3,2.3V423.3z M171.2,406.3c0,1.2-1.3,2.3-3,2.3c-1.6,0-3-1-3-2.3v-6.8c0-1.2,1.3-2.3,3-2.3
				c1.6,0,3,1,3,2.3V406.3z M192.5,423.3c0,1.2-1.3,2.3-3,2.3c-1.6,0-3-1-3-2.3v-6.8c0-1.2,1.3-2.3,3-2.3c1.6,0,3,1,3,2.3V423.3z
				 M192.5,406.3c0,1.2-1.3,2.3-3,2.3c-1.6,0-3-1-3-2.3v-6.8c0-1.2,1.3-2.3,3-2.3c1.6,0,3,1,3,2.3V406.3z M201.4,423.3
				c0,1.2-1.3,2.3-3,2.3c-1.6,0-3-1-3-2.3v-6.8c0-1.2,1.3-2.3,3-2.3c1.7,0,3,1,3,2.3V423.3z M201.4,406.3c0,1.2-1.3,2.3-3,2.3
				c-1.6,0-3-1-3-2.3v-6.8c0-1.2,1.3-2.3,3-2.3c1.7,0,3,1,3,2.3V406.3z"/>
			<g>
				<linearGradient id="SVGID_3_" gradientUnits="userSpaceOnUse" x1="129.6269" y1="430.2034" x2="189.7857" y2="383.2872">
					<stop  offset="5.494510e-02" style="stop-color:#FFFFFF"/>
					<stop  offset="0.6429" style="stop-color:#C6C0B9"/>
				</linearGradient>
				<polygon class="st10" points="221.3,389.9 187,388.1 187,387.2 178.9,387.7 170.8,387.2 170.8,388.1 136.5,389.9 137.7,394.5 
					220.1,394.5 				"/>
			</g>
			<path class="st9" d="M227.6,387.2c0,1.9-1.3,3.4-2.9,3.4H133c-1.6,0-2.9-1.5-2.9-3.4v-5.7c0-1.9,1.3-3.4,2.9-3.4h91.7
				c1.6,0,2.9,1.5,2.9,3.4V387.2z"/>
			<g>
				<path class="st11" d="M184.6,387.6c0,1.4-1.5,2.6-3.4,2.6h-4.5c-1.9,0-3.4-1.1-3.4-2.6v-48.4c0-1.4,1.5-2.5,3.4-2.5h4.5
					c1.9,0,3.4,1.1,3.4,2.5V387.6z"/>
				<path class="st9" d="M176.7,383.6c0-1.2,1-2.2,2.2-2.2c1.2,0,2.2,1,2.2,2.2c0,1.2-1,2.2-2.2,2.2
					C177.7,385.8,176.7,384.8,176.7,383.6z"/>
			</g>
		</g>
	</g>
	<path class="st4" d="M267.4,149.7c3.3,1.8,17.3,6.2,19.8,7.3c2.6,1.1,9.9-1.8,9.9-1.8l0.7,7l-11,5.9c0,0-17.9,4.7-21.1,3.5
		C262.6,170.3,267.4,149.7,267.4,149.7z"/>
	<g>
		<path class="st12" d="M264.8,163.6c-0.7,5.9-6.3,14.4-12.5,18.8c-5.3,3.7-12.5,22.4,5.1,25.7c17.6,3.3,39.6,0.1,32-17.6
			c-5-11.6-13.2-8.3-17.6-30.7c-0.9-4.5,22.3-41.7,22.3-41.7l-29.6-2.6L264.8,163.6z"/>
		<g>
			<g>
				<path class="st13" d="M264.4,163.4c-0.7,5.9-6.2,14.5-12.5,18.8c-7,4.8-12.5,22.4,5.1,25.7c3.6,0.7,7.4,1.1,11.1,1.1
					c-0.3-0.4-0.6-0.8-1.1-1.1c-18.1-10.8-2-27.8,0.1-30.7c4.3-6.1,2.2-10.8,2.2-17.9c0-6.3,4.4-27.1,9.7-42.6l-17.7-2.6
					L264.4,163.4z"/>
			</g>
		</g>
	</g>
	<path class="st2" d="M339.6,91.2c-7,7.4-20.4,27.6-24.1,30.1c-3.7,2.6-40.4,24.3-40.4,24.3s11,26.8,9.5,31.6
		c4.8-0.4,43.4-19.5,47.1-22.1c3.7-2.6,5.1-29.8,5.1-29.8L339.6,91.2z"/>
	<rect x="218.8" y="138.1" class="st14" width="8" height="81.1"/>
	<path class="st5" d="M362.5,47.8c0.9,5.2,0.9,11.7,6.1,17.8c5.2,6.1,5.2,6.1,5.2,6.1L349.8,84c0,0-1.9-11.7-6.6-15.5
		C338.5,64.7,362.5,47.8,362.5,47.8z"/>
	<path class="st5" d="M315.1,27c3.9-14.2,36.2-26.5,43.3-5.2c13,38.8-11,48.5-11,48.5c-8.4,1.3-10.4,2.6-16.9,1.3
		c-3.2-0.6-5.8-4.5-8.6-9.9c-2.7-0.1-5.8,0.3-5.8-1.6c0.9-2.8,0.6-7.6,0.9-9.6C314.3,41.9,313.3,33.7,315.1,27z"/>
	<g>
		<path class="st4" d="M345.3,71.1c-6.6,1.2-8.7,2.1-14.6,0.9c-3.2-0.6-5.8-4.5-8.6-9.9c-2.7-0.1-5.8,0.3-5.8-1.6
			c0.9-2.8,0.6-7.6,0.9-9.6c-2.8-8.7-3.8-16.9-1.9-23.6c0.2-0.7,0.5-1.4,0.8-2.1l4.5,0.2c2.1,15.5,5.6,38.6,27.7,39.1l11.3,14.8
			l-9.7,4.9C349.9,84.2,348.6,75.9,345.3,71.1z"/>
	</g>
	<path class="st15" d="M353.6,10.9c-3.7-3.3-11.7-6.5-22-3.6c-10,2.8-12.9,5.8-17.6,14.4c-2.4,4.4-0.2,11.8-0.2,11.8
		s3.6-1.8,6.2-1.8c2.5,0,5.4-2.3,9.8,1.3c3.7,3,5.6,7.2,5.6,7.2s11.2,1,12.3,4.3c1.1,3.3,14.9,9.5,14.9,9.5s4.3-15.1,4.1-23.1
		C366.2,12.1,354.5,11.7,353.6,10.9z"/>
	<g>
		<g>
			<g>
				<path class="st16" d="M329.6,33.1c-4.4-3.6-7.3-1.3-9.8-1.3c-2.6,0-7.9,4.5-7.9,4.5s-5.6-5.7-3.2-10.2
					c4.7-8.6,12.7-15.9,22.8-18.7c4-1.1,7.7-1.3,10.9-0.9c-4.3,3.1-12.1,10.8-5,34c-3.1-0.7-2-0.1-2-0.1S333.3,36.1,329.6,33.1z"/>
			</g>
		</g>
	</g>
	<path class="st5" d="M340,42c1.5-1.7,4-6.5,6.3-4.7c2.3,1.8,5.9,11.5,2.2,15C344.7,55.8,340,42,340,42z"/>
	<path d="M379,388.5c-2,6-0.3,12.5,0.7,20.5c1,8.1,3,14.2-5.1,16.2c-8.1,2-48.1,2-48.1,2s-7.4-9.4,10.8-12.1
		c14.1-2.1,21.2-14.8,20.5-26.6C357.6,385.5,379,388.5,379,388.5z"/>
	<path class="st16" d="M329.5,208.1c1.2,27.5,7.7,103.5,9.6,107c8.8,16.9,11,89.3,11,89.3l24.7,0.5c0,0,7.5-63.9-1.3-90.1
		c-2.6-8,7.5-87,7.5-87L329.5,208.1z"/>
	<path d="M391.7,396c-2,6.1-0.3,12.5,0.7,20.5c1,8.1,3,14.1-5.1,16.2c-8.1,2-48.2,2-48.2,2s-7.4-9.4,10.8-12.1
		c14.1-2.1,21.2-14.8,20.5-26.6C370.3,393,391.7,396,391.7,396z"/>
	<path class="st15" d="M340.2,209.8c1.3,27.5,10.3,107.3,12.1,110.8c8.7,16.9,8.8,93.2,8.8,93.2l32-0.5c0,0,5.5-69.7-3.3-96
		c-1.7-5,2-49.4,3.9-84.9c1.1-21-6.1-38.6-6.1-38.6L340.2,209.8z"/>
	<path class="st2" d="M390.5,183.9c0-6.6,4.5-14.4,2.9-33.1c-0.9-11.3-2.4-14.9-2.4-43.7c0-28.8-7.9-30.1-17.8-39.5
		c0,0-17,5.7-23.2,12c-1.7,1.7-5.7,4.2-7.5,6.6c-4.8,6.2-10.9,14.9-13.6,33c-3.8,25-1.2,95-1.2,95c44.1,5.9,27.5,1.7,61-1.5
		C399.7,211.5,390.5,183.9,390.5,183.9z"/>
	
		<linearGradient id="SVGID_4_" gradientUnits="userSpaceOnUse" x1="149.1832" y1="-84.2254" x2="-344.0204" y2="-214.0162" gradientTransform="matrix(-0.3738 0.3484 0.2998 0.3217 388.3256 150.8105)">
		<stop  offset="0" style="stop-color:#FFFFFF"/>
		<stop  offset="0.6429" style="stop-color:#C6C0B9"/>
	</linearGradient>
	<polygon class="st17" points="329.1,116.3 326.4,175.9 383.2,105.6 376.6,86.1 361.2,70.6 335.7,92.7 	"/>
	<g>
		<g>
			<path class="st2" d="M375.1,67.8l-1.7-8.2c0,0-15.3,8.8-17.1,10.2c-4.9,3.7-11.7,8.7-12.2,9.7c-0.5,1,6.7,3.5,6.7,3.5
				s10.4-9.2,15.6-11.7C371.6,68.8,375.1,67.8,375.1,67.8z"/>
			<path class="st2" d="M346.5,80.9c-2.2,0.7-8.4,1.2-8.4,1.2s-5.8,18.1-6,20.9c-0.3,2.7,17.5-21.6,17.5-21.6L346.5,80.9z"/>
		</g>
	</g>
	<path d="M374.3,67.8l2.2,2.7c0,0-23.7,15.5-30.9,41.7l-5.5,1.1C340.2,113.3,347.3,81.4,374.3,67.8z"/>
	<path d="M326.9,101.1c4.8-1.9,24.3-2.2,24.3-2.2s3.3,25.4,8.8,37.5c5.5,12.1,10.5,35.6,20.4,35.6l-8.3,132.1l-47.8-1.1
		c-0.4-116.5,5.3-116.3,2.2-131.6C319.9,139,326.9,101.1,326.9,101.1z"/>
	<polygon points="375.8,170.6 392,175 390.5,183.9 378,178.7 	"/>
	<rect x="218.8" y="212.5" class="st14" width="82.7" height="27.6"/>
	<rect x="212.2" y="207" class="st2" width="95.9" height="9.9"/>
	<g>
		<path class="st1" d="M232.3,114c0,1.4-0.7,1.9-2.4,2.6l-9.5,2.6c-1.3,0-2.4-1.2-2.4-2.6V84.3c0-1.4,1.1-2.6,2.4-2.6l9.5,2.6
			c1.6,0.5,2.4,1.2,2.4,2.6V114z"/>
		<path class="st2" d="M230.2,111.1c0,1.2-0.9,2.2-2.1,2.2l-8.2,2.1c-1.1,0-2.1-0.9-2.1-2.1V86.3c0-1.2,0.9-2.2,2.1-2.2l8.2,2.2
			c1.4,0.5,2.1,1,2.1,2.1V111.1z"/>
		<path class="st2" d="M222.3,117c0,1.2-0.8,2.2-1.8,2.2h-9.9c-1,0-1.8-1-1.8-2.2V83.9c0-1.2,0.8-2.2,1.8-2.2h9.9c1,0,1.8,1,1.8,2.2
			V117z"/>
	</g>
	<g>
		<path class="st2" d="M255.1,146.7c1.2,2.1,0.7,2.7,0.1,3.2l-22,11.7c-1.2,0.9-3,0.1-3.9-1.9L209.5,126c-0.8-1.7-0.2-3.3,1.1-3.5
			l25.3-4.9c0.7-0.1,1.8,0.7,2.4,1.9L255.1,146.7z"/>
		<path class="st3" d="M251.1,145c0.5,1,0.6,2.1,0.2,2.4l-14.4,6.3c-0.9,0.7-2.2,0-2.9-1.5L217.7,127c-0.6-1.3-0.2-2.5,0.8-2.7
			l16-3.3c0.5-0.1,1.4,0.6,1.8,1.5L251.1,145z"/>
	</g>
	<path class="st5" d="M287.2,129.1c-3.6,0.6-10.2,0.9-13.8,1.6c-3.6,0.6-16-3.9-18.2-3.3c-2.2,0.6-8.6,1-10.7,1.4
		c-5.5,1.1-9.6,2.1-12.5,2.2c-2.5,0.1-4.1,3.1,0.4,3.3c5.8,0.3,13,0,13,0s-3.2,2.2-2.6,3.9c0.9,2.6,1.3,1.9,3,2.2
		c0.2,2,0.7,4.3,4,4.5c-0.8,2.8,1.2,3.9,4.3,4.3c3,0.4,17.2-2.2,21.4-3c4.2-0.8,16.4,0.4,16.4,0.4L287.2,129.1z"/>
	<path class="st3" d="M369.7,82c11-3.2,16.7,5.4,16.7,15.4c0,10.1-30.2,36.6-54.2,46.6c0,0-47.7,17.4-52.7,14.8
		c-2.6-16.2-5.1-29.4-5.1-29.4l54.5-14L369.7,82z"/>
	<g>
		<path class="st5" d="M264.3,149.3c5,1.4,9.5,4.7,7.8,6.4c-1.8,1.8-8.8,0-10.2-2.3C260.4,151.1,264.3,149.3,264.3,149.3z"/>
		<path class="st5" d="M263.5,153.9c-1.4,0.4-2,1.6-1.5,3c0.6,1.4,4.5,5,5.8,5.6c1.2,0.6,8.5,3.2,9.4,2.3c0.9-0.9,1.4-2.3-1.3-4.5
			c-2.7-2.2-5.4-3.9-6.1-4.2C269,155.8,263.5,153.9,263.5,153.9z"/>
		<path class="st5" d="M262,156.9c-1.2,1.2-1.2,4-0.9,5.3c-1.2,1.2-1.9,2.9-0.7,4.1c1.2,1.2,3.4,2.9,3.4,2.9s4.4,2,5.4,1.3
			c0.9-0.7,0.9-0.7,0.9-0.7s3-0.1,3.7-0.3c0.6-0.1,2.8-2.2,0.2-3.8c-2.6-1.6-7.2-4.1-7.8-4.7C265.6,160.6,262,156.9,262,156.9z"/>
	</g>
	<g>
		<g>
			<path class="st18" d="M167.1,214.1c1.2,1.3,2.8,3.1,2.1,7c-0.9,5.2-6.8,9.4-10.4,9.2c-3-0.2-8.5-4.4-9.2-9.6
				c-0.5-3.3,0.7-6.1,3-7.4c1.7-1,4.6-0.2,6.6,0.6C160.5,214.4,165.3,212.2,167.1,214.1z"/>
			<path class="st11" d="M159.1,215.4c0-1.9,2.7-12,4.5-12s1.9,0,1.9,0L159.1,215.4z"/>
			<path class="st19" d="M161.5,208.7c-0.8-1.9-4.5-6.9-7.7-6.9C153,205.8,161.5,208.7,161.5,208.7z"/>
		</g>
		<g>
			<path class="st20" d="M157.1,217.3c1.2,1.3,2.8,3.1,2.1,7c-0.9,5.2-6.8,9.4-10.4,9.2c-3-0.2-8.5-4.4-9.2-9.6
				c-0.5-3.3,0.7-6.1,3.1-7.4c1.7-1,4.6-0.2,6.6,0.6C150.5,217.6,155.3,215.4,157.1,217.3z"/>
			<path class="st11" d="M149.1,218.6c0-1.9,2.7-12,4.5-12c1.9,0,1.9,0,1.9,0L149.1,218.6z"/>
			<path class="st19" d="M151.5,211.9c-0.8-1.9-4.5-6.9-7.7-6.9C143,209,151.5,211.9,151.5,211.9z"/>
		</g>
	</g>
	<g>
		<path class="st21" d="M125.9,46.3c-5.9-6.4-18.9-10.9-33-4.3c-5.7,1.1-13,7.1-15.8,20.9c-3.9,18.6-6.7,36.4-6.7,36.4
			s15.2,3.1,19.7,4.5c4.5,1.3,26,5.1,30.5,0.2c-8.9-2.3-11.2-25-7.7-39.3c10.4-13.4,15.2-8.6,15.2-8.6S131.6,52.4,125.9,46.3z"/>
		<g>
			<g>
				<path class="st16" d="M92.5,42c-5.7,1.1-13,7.1-15.8,20.9c-3.9,18.6-6.7,36.4-6.7,36.4s15.1,3.5,19.7,4.5
					c21.1,4.7,22.3,3.1,28.3,1.6c-0.2-0.2-0.3-0.4-0.5-0.7C103,90.3,99.5,54,109.4,38.9C104.2,38.4,98.5,39.2,92.5,42z"/>
			</g>
		</g>
	</g>
	<path class="st22" d="M82.3,110.1l-1.1-10.3l32.3,15.4l-2.1,8.9l9.1,0.9l0.2,18.9c0,0-12.4-22.1-26.1-29.8
		C88.9,111,82.3,110.1,82.3,110.1z"/>
	<rect x="75" y="193.1" class="st23" width="42.2" height="5.3"/>
	<g>
		<path class="st23" d="M100.9,127c0.5,4.7,1.2,32.1,1.2,32.1l-25.1,7c0,0-6.3-36.4,0.9-44.2c6.3-6.8,14.1-8.1,18.3-3.6
			C100.4,122.8,100.9,127,100.9,127z"/>
		<g>
			<g>
				<g>
					<path class="st22" d="M78,121.8c-7.2,7.8-0.9,44.2-0.9,44.2l14.1-3.9c-1.5-5.7-4.3-17.5-4.5-26.1c-0.2-10.3,1.8-17.7,4.6-20.2
						C87.3,115.2,82.3,117.2,78,121.8z"/>
				</g>
			</g>
		</g>
	</g>
</g>
</svg>
