<?xml version="1.0" encoding="utf-8"?>
<!-- Generator: Adobe Illustrator 22.1.0, SVG Export Plug-In . SVG Version: 6.00 Build 0)  -->
<svg version="1.1" xmlns="http://www.w3.org/2000/svg" xmlns:xlink="http://www.w3.org/1999/xlink" x="0px" y="0px"
	 viewBox="0 0 400 400" style="enable-background:new 0 0 400 400;" xml:space="preserve">
<style type="text/css">
	.st0{opacity:0.15;}
	.st1{fill-rule:evenodd;clip-rule:evenodd;fill:#808080;}
	.st2{fill:#808080;}
	.st3{fill-rule:evenodd;clip-rule:evenodd;fill:#744536;}
	.st4{fill-rule:evenodd;clip-rule:evenodd;fill:#96635A;}
	.st5{fill-rule:evenodd;clip-rule:evenodd;fill:#929497;}
	.st6{fill-rule:evenodd;clip-rule:evenodd;fill:#363740;}
	.st7{fill-rule:evenodd;clip-rule:evenodd;fill:#383B44;}
	.st8{fill-rule:evenodd;clip-rule:evenodd;fill:#393947;}
	.st9{fill-rule:evenodd;clip-rule:evenodd;fill:#282637;}
	.st10{fill-rule:evenodd;clip-rule:evenodd;fill:#2A2B32;}
	.st11{fill-rule:evenodd;clip-rule:evenodd;fill:#252630;}
	.st12{fill-rule:evenodd;clip-rule:evenodd;fill:#3C3837;}
	.st13{fill-rule:evenodd;clip-rule:evenodd;fill:#404041;}
	.st14{fill-rule:evenodd;clip-rule:evenodd;fill:#EBA17A;}
	.st15{fill-rule:evenodd;clip-rule:evenodd;fill:#F2874D;}
	.st16{fill-rule:evenodd;clip-rule:evenodd;fill:#EB702F;}
	.st17{fill-rule:evenodd;clip-rule:evenodd;fill:#A55B43;}
	.st18{fill-rule:evenodd;clip-rule:evenodd;fill:#F19C71;}
	.st19{fill-rule:evenodd;clip-rule:evenodd;fill:#6D6E70;}
	.st20{fill-rule:evenodd;clip-rule:evenodd;fill:#ADAEB1;}
	.st21{fill-rule:evenodd;clip-rule:evenodd;fill:#A6A8AB;}
	.st22{fill-rule:evenodd;clip-rule:evenodd;fill:#808188;}
	.st23{fill-rule:evenodd;clip-rule:evenodd;fill:#808082;}
	.st24{fill-rule:evenodd;clip-rule:evenodd;fill:#BCBDC0;}
	.st25{fill-rule:evenodd;clip-rule:evenodd;fill:#A9ABAE;}
	.st26{fill-rule:evenodd;clip-rule:evenodd;fill:#C7C9CE;}
	.st27{fill-rule:evenodd;clip-rule:evenodd;fill:#90503B;}
	.st28{fill-rule:evenodd;clip-rule:evenodd;fill:#6A3823;}
	.st29{fill-rule:evenodd;clip-rule:evenodd;fill:#A15641;}
	.st30{fill-rule:evenodd;clip-rule:evenodd;fill:#BDB358;}
	.st31{fill-rule:evenodd;clip-rule:evenodd;fill:#FFF584;}
	.st32{fill-rule:evenodd;clip-rule:evenodd;fill:#FFCA05;}
	.st33{fill-rule:evenodd;clip-rule:evenodd;fill:#EDC9AF;}
	.st34{fill-rule:evenodd;clip-rule:evenodd;fill:#DFE0E2;}
	.st35{fill-rule:evenodd;clip-rule:evenodd;fill:#C5C8CB;}
	.st36{fill-rule:evenodd;clip-rule:evenodd;fill:#AFB2B7;}
	.st37{fill-rule:evenodd;clip-rule:evenodd;fill:#E1E3E7;}
	.st38{fill-rule:evenodd;clip-rule:evenodd;fill:#A1A2A9;}
	.st39{fill-rule:evenodd;clip-rule:evenodd;fill:#3B3527;}
	.st40{fill-rule:evenodd;clip-rule:evenodd;fill:#694D59;}
	.st41{fill-rule:evenodd;clip-rule:evenodd;fill:#5F4952;}
	.st42{fill-rule:evenodd;clip-rule:evenodd;fill:#B5B7DC;}
	.st43{fill-rule:evenodd;clip-rule:evenodd;fill:#AEABCF;}
	.st44{fill-rule:evenodd;clip-rule:evenodd;fill:#4D4B6B;}
	.st45{fill-rule:evenodd;clip-rule:evenodd;fill:#404E57;}
	.st46{fill-rule:evenodd;clip-rule:evenodd;fill:#313D48;}
	.st47{fill-rule:evenodd;clip-rule:evenodd;fill:#FACAB8;}
	.st48{fill-rule:evenodd;clip-rule:evenodd;fill:#D4A99F;}
	.st49{fill-rule:evenodd;clip-rule:evenodd;fill:#373839;}
	.st50{fill-rule:evenodd;clip-rule:evenodd;fill:#7A98A5;}
	.st51{fill-rule:evenodd;clip-rule:evenodd;fill:#96B8CA;}
	.st52{fill-rule:evenodd;clip-rule:evenodd;fill:#79654D;}
	.st53{fill-rule:evenodd;clip-rule:evenodd;fill:#9DCB45;}
	.st54{fill-rule:evenodd;clip-rule:evenodd;fill:#52A07A;}
	.st55{fill-rule:evenodd;clip-rule:evenodd;fill:#F69F89;}
	.st56{fill-rule:evenodd;clip-rule:evenodd;fill:#F37E69;}
	.st57{fill-rule:evenodd;clip-rule:evenodd;fill:#C66D6E;}
	.st58{fill-rule:evenodd;clip-rule:evenodd;fill:#6386C4;}
	.st59{fill-rule:evenodd;clip-rule:evenodd;fill:#6F3F2D;}
	.st60{fill-rule:evenodd;clip-rule:evenodd;fill:#E3B38D;}
	.st61{fill-rule:evenodd;clip-rule:evenodd;fill:#CC9B76;}
	.st62{fill-rule:evenodd;clip-rule:evenodd;fill:#FFFFFF;}
	.st63{fill-rule:evenodd;clip-rule:evenodd;fill:#4F4C4C;}
	.st64{fill-rule:evenodd;clip-rule:evenodd;fill:#E3A77F;}
	.st65{fill-rule:evenodd;clip-rule:evenodd;fill:#EDB58E;}
	.st66{fill:#3B2515;}
</style>
<g id="BACKGROUND">
</g>
<g id="OBJECTS">
	<g>
		<g class="st0">
			<g>
				<rect x="227.7" y="225" class="st1" width="16.5" height="158.1"/>
			</g>
			<g>
				<rect x="227.7" y="228.3" class="st1" width="8.2" height="154.8"/>
			</g>
			<g>
				<rect x="107.3" y="303" class="st1" width="9.8" height="58.6"/>
			</g>
			<g>
				<rect x="101" y="282.8" class="st1" width="22.5" height="25.5"/>
			</g>
			<g>
				<rect x="101" y="283.2" class="st1" width="8.7" height="25.1"/>
			</g>
			<g>
				<path class="st1" d="M113.9,262.2c35.8,0,64.9,9.2,64.9,20.6c0,1.2-0.3,2.3-0.9,3.4H49.9c-0.6-1.1-0.9-2.3-0.9-3.4
					C49,271.4,78.1,262.2,113.9,262.2z"/>
			</g>
			<g>
				<path class="st1" d="M47,278.5h130.5c1.4,0,2.6,1.1,2.6,2.5v3.2c0,1.4-1.2,2.5-2.6,2.5H47c-1.4,0-2.6-1.1-2.6-2.5V281
					C44.4,279.7,45.5,278.5,47,278.5z"/>
			</g>
			<g>
				<g>
					<rect x="105.8" y="341.2" class="st1" width="12.9" height="27.9"/>
				</g>
				<g>
					<polygon class="st1" points="103.1,363.4 54.5,375.6 54.1,380.8 112.2,373.8 170.2,380.8 169.8,375.6 121.2,363.4 					"/>
				</g>
				<g>
					<path class="st1" d="M56,383.1c2.6,0,4.7-2,4.7-4.5c0-2.5-2.1-4.5-4.7-4.5s-4.7,2-4.7,4.5C51.3,381.1,53.4,383.1,56,383.1z"/>
				</g>
				<g>
					<path class="st1" d="M168.5,383.1c2.6,0,4.7-2,4.7-4.5c0-2.5-2.1-4.5-4.7-4.5s-4.7,2-4.7,4.5
						C163.8,381.1,165.9,383.1,168.5,383.1z"/>
				</g>
			</g>
			<g>
				<path class="st1" d="M37.9,140.6h81.9c4.2,0,7.7,3.3,7.7,7.4V188c0,4.1-3.4,7.4-7.7,7.4H37.9c-4.2,0-7.7-3.3-7.7-7.4V148
					C30.2,143.9,33.7,140.6,37.9,140.6z"/>
			</g>
			<g>
				<path class="st1" d="M43.6,140.6h81.9c4.2,0,7.7,3.3,7.7,7.4V188c0,4.1-3.4,7.4-7.7,7.4H43.6c-4.2,0-7.7-3.3-7.7-7.4V148
					C35.9,143.9,39.4,140.6,43.6,140.6z"/>
			</g>
			<g>
				<path class="st1" d="M184.2,358.3c-1,1.9-3.6,7.6-3.6,7.6l-0.2,17.3l10.8-0.1l0.2-2.1c0,0,5.3,1.9,8.7,1.9
					c3.4,0.1,25.8,0.2,28-1.2c2.2-1.5-4.8-3.3-5.3-3.6c-0.5-0.2-17.6-4.6-21.6-8.9c-4.1-4.3-4.4-9.2-4.4-9.2L184.2,358.3z"/>
			</g>
			<g>
				<path class="st1" d="M128.1,233.6l67.4,23c11.1,3.3,16.6,10.8,15.8,21.2c-1.9,25-8.6,62.5-12.6,80.8c-0.4,2,3.1,5.8,2.8,7.4
					c-0.3,1.5-20.4,3.6-22.1,3.5l2.9-88.6c-11.8,0-47.7-7.8-60.4-11C110.7,268.2,120,235.6,128.1,233.6z"/>
			</g>
			<g>
				<path class="st1" d="M137.9,243.7c-12.3-7.3-12.6-14.5-14.4-14.5c-1.8,0-59.8,1.5-59.8,1.5s-6.2,11.6-6.2,22.6
					c0,11,9.5,19,11.1,19.4c1.6,0.4,40.2,6.9,46.9,3.5C122.3,272.8,137.9,243.7,137.9,243.7z"/>
			</g>
			<g>
				<path class="st1" d="M68.3,238.9l83.4,19.7c11.1,3.3,16.6,10.8,15.8,21.2c-2.3,29.7-7.6,50.7-11.6,86.7l-19.1-0.2l2.3-85.8
					c-11.8,0-56.4-4.4-69.1-7.6C47.1,267.3,55.3,233.3,68.3,238.9z"/>
			</g>
			<g>
				<path class="st1" d="M228.5,188c0.3,0,1.8,0.1,1.8,0.1s12.4,5,11.7,5.9c-0.7,0.9-1.7,1.7-5.3,0.8C232.9,194,228.5,188,228.5,188
					z"/>
			</g>
			<g>
				<path class="st1" d="M132,115.5c-12.2,0.6-20.1,14.7-14,23.4l31.4,45l56.5,15.5c4.5,1.2,11.2-9.2,6.5-10.7L161,172
					C156.6,164.5,144.1,141.6,132,115.5z"/>
			</g>
			<g>
				<path class="st1" d="M90.6,100.9c-2.2,0.3-10.6,3-12.8,3c-2.2,0-32.6,7-32.6,7c7.3,30.9,9.3,117.3,9.3,147.7
					c30.1-18.4,83.5-10.8,75.5-27.2c-7-4.5,9.8-107.1,2.1-116c-3.9-4.4-17.2-5.1-25.4-7.4C98.5,105.7,90.7,100.8,90.6,100.9z"/>
			</g>
			<g>
				<path class="st1" d="M78.7,111.4L77.8,159c0,0,19.3,0.5,19-0.2c-0.3-0.6-1.3-40.7-1.3-40.7L78.7,111.4z"/>
			</g>
			<g>
				<path class="st1" d="M81.9,155.5c-0.7,0.9-4.1,3.5-4.1,3.5l0.1,7l1.7,0.3l0.4-5.9l2.1,0l-0.4,6.2l2.4-0.1c0,0-0.2-6.3,0.1-6.3
					c0.3,0,1.6,0.1,1.6,0.1l-0.2,6l1.7,0.2l0.2-6.5l1.7,0.1l-0.2,6.6l1.9-0.2l0.1-6.5l1.7,0.1v6.4l1.9-0.1l0-6.2l1.1-0.1l0.3,6.2
					c0,0,1.6,0.2,1.6,0c0-0.2-0.8-7.5-0.8-7.5s-5.6-2.9-6-3C90.5,155.7,81.9,155.5,81.9,155.5z"/>
			</g>
			<g>
				<path class="st1" d="M85.3,81.3c0.3,2.9-0.3,16-2.2,18.7c-1.8,2.7-4.8,3.8-10,4.7c-5.2,0.9,8.8,15.5,24.2,16.2
					c21.6,0.9,14-11.4,1.8-18.6c-3.7-2.2-3-19.1-3-19.1L85.3,81.3z"/>
			</g>
			<g>
				<path class="st1" d="M150.2,204.1c7.7,0,13.9-2.4,13.9-5.3c0-2.9-6.2-5.3-13.9-5.3c-7.7,0-13.9,2.4-13.9,5.3
					C136.3,201.7,142.6,204.1,150.2,204.1z"/>
			</g>
			<g>
				<path class="st1" d="M206.7,200c4.5,0.1,13.2-0.1,13.5-1.9c0.3-1.8-7.5-2.7-6.7-3.7c2.9-3.3,4.4-2.3,6.5-1.3
					c1.6,0.7,3.1,3.5,4.7,4.2c2.4,1,4.7,0.7,4.1-0.1c-0.5-0.8-5.4-7.1-5.4-7.1s6.6,6.9,8.2,7.1c1.6,0.1,4.4,0.1,4.3-0.6
					c-0.1-0.8-8-7.5-8-7.5s8.9,7.2,10.2,7.2c1.3,0.1,4.9,0.6,4.3-0.6c-0.6-1.2-7.6-6.8-10.3-8.2c-6.3-3.4-26.6,0.4-28.8,3.3
					C201.3,193.4,202.1,199.9,206.7,200z"/>
			</g>
			<g>
				<path class="st1" d="M140.9,358.4c-1,1.9-3.6,7.6-3.6,7.6l0,17.1l10.1,0l0.6-2c0,0,5.3,1.9,8.7,1.9c3.4,0.1,25.8,0.2,28-1.2
					c2.2-1.5-4.8-3.3-5.3-3.6c-0.5-0.2-17.6-4.6-21.6-8.9c-4.1-4.3-4.4-9.2-4.4-9.2L140.9,358.4z"/>
			</g>
			<g>
				<path class="st1" d="M110.8,309.9h0.2c0.9,0,1.7,0.7,1.7,1.6v26.7c0,0.9-0.7,1.6-1.7,1.6h-0.2c-0.9,0-1.7-0.7-1.7-1.6v-26.7
					C109.2,310.6,109.9,309.9,110.8,309.9z"/>
			</g>
			<g>
				<rect x="105.8" y="341.2" class="st1" width="6" height="22.1"/>
			</g>
			<g>
				<g>
					<g>
						<rect x="177.2" y="197" class="st1" width="3.5" height="1.6"/>
					</g>
					<g>
						<rect x="182.2" y="197" class="st1" width="3.5" height="1.6"/>
					</g>
					<g>
						<rect x="187.2" y="197" class="st1" width="3.5" height="1.6"/>
					</g>
					<g>
						<rect x="192.2" y="196.9" class="st1" width="3.5" height="1.6"/>
					</g>
					<g>
						<rect x="197.2" y="196.9" class="st1" width="3.5" height="1.6"/>
					</g>
					<g>
						<rect x="202.2" y="196.9" class="st1" width="3.5" height="1.6"/>
					</g>
					<g>
						<rect x="207.2" y="196.9" class="st1" width="3.5" height="1.6"/>
					</g>
					<g>
						<rect x="212.2" y="196.8" class="st1" width="3.5" height="1.6"/>
					</g>
					<g>
						<rect x="217.2" y="196.8" class="st1" width="3.5" height="1.6"/>
					</g>
					<g>
						<rect x="222.2" y="196.8" class="st1" width="3.5" height="1.6"/>
					</g>
					<g>
						<rect x="227.2" y="196.7" class="st1" width="3.5" height="1.6"/>
					</g>
					<g>
						<rect x="232.3" y="196.7" class="st1" width="3.5" height="1.6"/>
					</g>
					<g>
						<rect x="237.3" y="196.7" class="st1" width="3.5" height="1.6"/>
					</g>
					<g>
						<rect x="242.3" y="196.6" class="st1" width="3.5" height="1.6"/>
					</g>
					<g>
						<rect x="247.3" y="196.6" class="st1" width="3.5" height="1.6"/>
					</g>
					<g>
						<rect x="252.3" y="196.6" class="st1" width="3.5" height="1.6"/>
					</g>
					<g>
						<rect x="257.3" y="196.5" class="st1" width="3.5" height="1.6"/>
					</g>
					<g>
						<rect x="262.3" y="196.5" class="st1" width="3.5" height="1.6"/>
					</g>
				</g>
				<g>
					<rect x="173.3" y="197.8" class="st1" width="96.4" height="2.4"/>
				</g>
			</g>
			<g>
				<g>
					<path class="st1" d="M288.3,95.4h-122c-3.8,0-7,3.1-7,6.8v74.3c0,3.7,3.1,6.8,7,6.8h122c3.8,0,7-3.1,7-6.8v-74.3
						C295.3,98.4,292.1,95.4,288.3,95.4z"/>
				</g>
				<g>
					<path class="st1" d="M291.8,95.4h-122c-3.8,0-7,3.1-7,6.8v74.3c0,3.7,3.1,6.8,7,6.8h122c3.8,0,7-3.1,7-6.8v-74.3
						C298.8,98.4,295.7,95.4,291.8,95.4z"/>
				</g>
				<g>
					<path class="st1" d="M203.5,116.2H260c2.3,0,4.2,1.9,4.2,4.1v38.6c0,2.3-1.9,4.1-4.2,4.1h-56.5c-2.3,0-4.2-1.9-4.2-4.1v-38.6
						C199.3,118.1,201.2,116.2,203.5,116.2z"/>
				</g>
				<g>
					<path class="st1" d="M206.1,116.2h56.4c2.3,0,4.2,1.9,4.2,4.1v38.6c0,2.3-1.9,4.1-4.2,4.1h-56.4c-2.3,0-4.2-1.9-4.2-4.1v-38.6
						C201.9,118.1,203.8,116.2,206.1,116.2z"/>
				</g>
				<g>
					<rect x="218" y="163.1" class="st1" width="27.5" height="37.1"/>
				</g>
				<g>
					<rect x="220.6" y="163.1" class="st1" width="27.5" height="37.1"/>
				</g>
				<g>
					<rect x="190.3" y="197.9" class="st1" width="30.3" height="2.3"/>
				</g>
			</g>
			<g>
				<rect x="28.7" y="223.6" class="st1" width="16.5" height="159.4"/>
			</g>
			<g>
				<rect x="366.6" y="225" class="st1" width="16.5" height="158.1"/>
			</g>
			<g>
				<rect x="21.4" y="208.2" class="st1" width="361.7" height="20"/>
			</g>
			<g>
				<rect x="148.3" y="223.7" class="st1" width="16.5" height="159.4"/>
			</g>
			<g>
				<rect x="148.3" y="228.3" class="st1" width="8.2" height="154.8"/>
			</g>
			<g>
				<rect x="21.4" y="208.2" class="st1" width="361.7" height="20"/>
			</g>
			<g>
				<rect x="21.4" y="208.2" class="st1" width="141.4" height="20"/>
			</g>
			<g>
				<rect x="14.4" y="200.2" class="st1" width="383" height="14.9"/>
			</g>
			<g>
				<path class="st1" d="M117.8,108.4c0.7,2.1,6.8,17.9-7.2,22.5c-14,4.6-39.3-15.7-43.6-23.6c-4.3-7.9,11.4-9,11.4-9
					s4.3,10.4,18.6,11.7c14.3,1.3,11.1-4.7,13.2-5.3C112.2,104.2,117.8,108.4,117.8,108.4z"/>
			</g>
			<g>
				<path class="st1" d="M108.3,112.4c5.5,0,9.9,4.3,9.9,9.6c0,5.3-4.4,9.6-9.9,9.6c-5.5,0-9.9-4.3-9.9-9.6
					C98.4,116.7,102.9,112.4,108.3,112.4L108.3,112.4z M108.3,115.1c-3.9,0-7.1,3.1-7.1,6.9c0,3.8,3.2,6.9,7.1,6.9
					c3.9,0,7.1-3.1,7.1-6.9C115.4,118.2,112.2,115.1,108.3,115.1z"/>
			</g>
			<g>
				<path class="st1" d="M108.4,108.5h25.8V134c0,2.4-2,4.4-4.6,4.4h-16.7c-2.5,0-4.6-2-4.6-4.4V108.5z"/>
			</g>
			<g>
				<rect x="108.4" y="118.4" class="st1" width="25.8" height="4.1"/>
			</g>
			<g>
				<path class="st1" d="M98.3,117.2c1-0.4,0.6,1.7,0.6,1.7s5.9-0.9,7.1,1.1c1.2,1.9-0.9,4.5-0.9,4.5s2,1,1.4,2.5
					c-0.5,1.5-1.1,2.2-1.1,2.2s1.4,4.1,0.8,5.1c-0.7,1-1,1.5-1,1.5s0.6,2.1-0.2,3.1c-0.7,1-4.5,2.7-9,3.6c-4.5,0.9-9.1-1.6-10.3-4
					C82.2,130.6,91.7,119.7,98.3,117.2z"/>
			</g>
			<g>
				<path class="st1" d="M48.8,110.1c-36.2,2.3-10.4,92.2,3.8,92.9c13.3,0.6,42.3-54.1,46.1-61.1c0.2-0.3-13.5-8.5-13.7-8.2
					l-32.2,41.9C53.1,165.2,55.3,109.9,48.8,110.1z"/>
			</g>
			<g>
				<g>
					<path class="st1" d="M305.7,135.9h82.7v64.3h-82.7v-10.1c1.3-1.5,2.2-4.4,2.2-7.6s-0.9-6.1-2.2-7.6v-30.6
						c0.9-0.9,1.5-2.3,1.5-3.9c0-1.6-0.6-3-1.5-3.9V135.9z"/>
				</g>
				<g>
					<polygon class="st1" points="305.7,172.4 325.3,163.3 305.7,163.3 					"/>
				</g>
				<g>
					<polygon class="st1" points="305.7,145.8 318.6,146.2 305.7,151.5 					"/>
				</g>
				<g>
					<path class="st1" d="M367.8,135.9h20.6v1.9c1.3,0.3,4.3,1.7,4.3,1.7l-4.3-0.4v11.3c0.3,0.1,0.6,0.2,0.9,0.3
						c3.7,1.5,5.4,3,5.4,3l-6.3-1v15.9c2.2,0.5,4.2,1.1,4.2,1.1l-4.2-0.4v15.2c1.3,0.3,2.5,0.5,3.3,0.5c2.5,0.2,4.8-0.1,4.2,0.1
						c-0.6,0.2-4.4,1.5-5.1,1.6c-0.3,0-1.3,0.2-2.5,0.3v13.1h-10.3h-10.3c0,0-1.6-16.4-1.8-17.5c-0.2-1-0.4-4.1,0.7-6.5
						c0.5-1.2,0.5-6.4,0.4-11.6c-0.8-1.6-1.2-3.9-1.2-6.5c0-2.5,0.4-4.7,1.1-6.3C367.2,147.8,367.8,135.9,367.8,135.9z"/>
				</g>
				<g>
					<path class="st1" d="M325.3,163.3c-1.2,0-18.6,0-18.6,0s-3.3-0.3-6.3,1.9c-3,2.2-3.7,5.1-3.7,5.1L325.3,163.3z"/>
				</g>
				<g>
					<path class="st1" d="M318.6,146.2c-2.6,0.3-16.3,3.2-16.3,3.2l3.4-3.6L318.6,146.2z"/>
				</g>
				<g>
					<path class="st1" d="M358.9,134.5c-2.8,1.4-22.8,1.4-23.3,1.4c-0.5,0-6.4,0-10.8-0.4c-4.4-0.4-9.8-3.1-9.8-3.1l31.1-0.4
						c0,0,0.3,0.6,3.7,1.4C353.1,134.1,358.9,134.5,358.9,134.5z"/>
				</g>
				<g>
					<path class="st1" d="M335.1,135.9c0,0,10.4,0.1,20.9-2.4c10.6-2.5,16.3-6.8,16.3-6.8l23.8-0.3c-5.3,4.3-9.2,8.2-18,9.4
						C378.1,135.9,335.3,135.9,335.1,135.9z"/>
				</g>
				<g>
					<rect x="310.3" y="138.7" class="st1" width="51.4" height="0.5"/>
				</g>
				<g>
					<rect x="311.6" y="140.8" class="st1" width="51.4" height="0.5"/>
				</g>
				<g>
					<rect x="310.8" y="150.1" class="st1" width="51.4" height="0.5"/>
				</g>
				<g>
					<rect x="312.2" y="152.1" class="st1" width="51.4" height="0.5"/>
				</g>
				<g>
					<rect x="309.5" y="169.4" class="st1" width="51.4" height="0.5"/>
				</g>
				<g>
					<rect x="310.8" y="171.4" class="st1" width="51.4" height="0.5"/>
				</g>
				<g>
					<rect x="309.5" y="178" class="st1" width="51.4" height="0.5"/>
				</g>
				<g>
					<rect x="310.8" y="180" class="st1" width="51.4" height="0.5"/>
				</g>
				<g>
					<rect x="311" y="174.5" class="st1" width="51.4" height="0.5"/>
				</g>
				<g>
					<rect x="312.3" y="176.5" class="st1" width="51.4" height="0.5"/>
				</g>
				<g>
					<rect x="309.5" y="159" class="st1" width="51.4" height="0.5"/>
				</g>
				<g>
					<rect x="310.8" y="161.1" class="st1" width="51.4" height="0.5"/>
				</g>
				<g>
					<rect x="310.8" y="154.9" class="st1" width="51.4" height="0.5"/>
				</g>
				<g>
					<rect x="312.2" y="157" class="st1" width="51.4" height="0.5"/>
				</g>
				<g>
					<rect x="313.5" y="145" class="st1" width="51.4" height="0.5"/>
				</g>
				<g>
					<rect x="314.8" y="147.1" class="st1" width="51.4" height="0.5"/>
				</g>
				<g>
					<rect x="318.1" y="166.1" class="st1" width="44.6" height="0.5"/>
				</g>
				<g>
					<rect x="312.6" y="183.7" class="st1" width="51.4" height="0.5"/>
				</g>
				<g>
					<rect x="369.2" y="137.8" class="st1" width="18.1" height="0.3"/>
				</g>
				<g>
					<rect x="368.9" y="140.6" class="st1" width="18.1" height="0.3"/>
				</g>
				<g>
					<rect x="369.9" y="144.2" class="st1" width="18.1" height="0.3"/>
				</g>
				<g>
					<rect x="368" y="146.8" class="st1" width="18.1" height="0.3"/>
				</g>
				<g>
					<rect x="369" y="156.3" class="st1" width="18.1" height="0.3"/>
				</g>
				<g>
					<rect x="368.2" y="152.9" class="st1" width="18.1" height="0.3"/>
				</g>
				<g>
					<rect x="368" y="149.7" class="st1" width="18.1" height="0.3"/>
				</g>
				<g>
					<rect x="367.5" y="171.3" class="st1" width="18.1" height="0.3"/>
				</g>
				<g>
					<rect x="368.3" y="164" class="st1" width="18.1" height="0.3"/>
				</g>
				<g>
					<rect x="368.3" y="161.1" class="st1" width="18.1" height="0.3"/>
				</g>
				<g>
					<rect x="368.8" y="167.6" class="st1" width="18.1" height="0.3"/>
				</g>
				<g>
					<rect x="368.6" y="158.7" class="st1" width="18.1" height="0.3"/>
				</g>
				<g>
					<rect x="368.6" y="170.4" class="st1" width="18.1" height="0.3"/>
				</g>
				<g>
					<rect x="370" y="169" class="st1" width="18.1" height="0.3"/>
				</g>
				<g>
					<rect x="368.9" y="165.7" class="st1" width="18.1" height="0.3"/>
				</g>
				<g>
					<rect x="368.4" y="178.6" class="st1" width="18.1" height="0.3"/>
				</g>
				<g>
					<rect x="367.8" y="174.6" class="st1" width="18.1" height="0.3"/>
				</g>
				<g>
					<rect x="369.8" y="185.1" class="st1" width="18.1" height="0.3"/>
				</g>
				<g>
					<rect x="368.8" y="181.4" class="st1" width="18.1" height="0.3"/>
				</g>
				<g>
					<rect x="368.9" y="183.5" class="st1" width="18.1" height="0.3"/>
				</g>
				<g>
					<rect x="368.4" y="190.5" class="st1" width="18.1" height="0.3"/>
				</g>
				<g>
					<rect x="367.6" y="187.4" class="st1" width="18.1" height="0.3"/>
				</g>
				<g>
					<rect x="369.5" y="193" class="st1" width="18.1" height="0.3"/>
				</g>
			</g>
			<g>
				<g>
					<rect x="313.2" y="182.8" class="st1" width="3.9" height="7"/>
				</g>
				<g>
					<rect x="312.2" y="182.8" class="st1" width="0.7" height="7"/>
				</g>
				<g>
					<path class="st1" d="M317.1,166.3l-1.6,0.1l-0.4-3.8c0-0.1,0-0.2,0.1-0.3l0.3-0.1l0.8-0.1c0.2,0,0.4,0.2,0.4,0.4L317.1,166.3z"
						/>
				</g>
				<g>
					<path class="st1" d="M318.6,168.2l-4.2,0.4l-0.3-3.4c0-0.1,0-0.3,0.1-0.4c0.1-0.1,0.2-0.2,0.4-0.2l3.2-0.3c0.1,0,0.3,0,0.4,0.1
						c0.1,0.1,0.2,0.2,0.2,0.4L318.6,168.2z"/>
				</g>
				<g>
					<polygon class="st1" points="317.4,199.6 314.1,166.3 318.4,166 321.6,199.1 					"/>
				</g>
				<g>
					<polygon class="st1" points="319.4,199.4 316.1,166.2 318.4,166 321.6,199.1 					"/>
				</g>
				<g>
					<polygon class="st1" points="318.4,166.2 318.4,165.6 313.7,166.1 313.6,166.1 313.3,166.2 313.2,166.5 314.1,175.4 
						314.6,175.3 315,175.2 314.8,173.1 314.3,172.6 313.8,167 313.8,166.7 314.1,166.5 					"/>
				</g>
				<g>
					<polygon class="st1" points="310.6,167.6 312.6,167.4 315.7,197.3 313.7,197.5 					"/>
				</g>
				<g>
					<polygon class="st1" points="311.6,167.5 312.6,167.4 315.7,197.3 314.7,197.4 					"/>
				</g>
				<g>
					<path class="st1" d="M310.2,160.2c0-0.2,1.2-0.4,1.2-0.1l1.6,9.6l-2.2,0.2l0.7,6.5l-0.2,0c-0.1-0.1-0.1,0-0.3-1.3
						c-0.2-1.3-0.9-5.3-0.9-5.9C310.1,166.1,310.3,163.7,310.2,160.2z"/>
				</g>
				<g>
					<polygon class="st1" points="310.6,169.3 313.1,169.1 313.2,169.6 310.7,169.8 					"/>
				</g>
				<g>
					<polygon class="st1" points="323.8,168.4 318,191.7 315.7,191.2 321.5,167.8 322.7,167.7 					"/>
				</g>
				<g>
					<polygon class="st1" points="323.8,168.4 318,191.7 316.9,191.4 322.8,167.4 					"/>
				</g>
				<g>
					<path class="st1" d="M321.5,167.8l2.6-5.3l-0.2,5.8c-0.2,0.2-0.4,0.5-0.6,0.5c-0.4-0.1,0-0.9-0.5-1c-0.5-0.1-0.6,0.8-0.9,0.7
						C321.5,168.4,321.5,167.8,321.5,167.8z"/>
				</g>
				<g>
					<path class="st1" d="M324,162.6l-0.2,5.8c-0.2,0.2-0.4,0.5-0.6,0.5c-0.4-0.1,0-0.9-0.5-1l0,0L324,162.6z"/>
				</g>
				<g>
					<polygon class="st1" points="323.2,164.2 324,162.6 323.9,164.3 					"/>
				</g>
				<g>
					<polygon class="st1" points="327.9,170.9 318.5,193.1 316.2,192.2 325.6,170.1 326.9,170.1 					"/>
				</g>
				<g>
					<polygon class="st1" points="327.9,170.9 318.5,193.1 317.4,192.7 327,169.8 					"/>
				</g>
				<g>
					<path class="st1" d="M325.6,170.1l3.4-4.8l-1.1,5.7c-0.2,0.1-0.4,0.4-0.6,0.4c-0.4-0.1,0.1-0.9-0.3-1.1c-0.5-0.2-0.7,0.7-1,0.6
						C325.6,170.6,325.6,170.1,325.6,170.1z"/>
				</g>
				<g>
					<path class="st1" d="M329,165.2l-1.1,5.7c-0.2,0.1-0.4,0.4-0.6,0.4c-0.4-0.1,0.1-0.9-0.3-1.1l0,0L329,165.2z"/>
				</g>
				<g>
					<polygon class="st1" points="328,166.7 329,165.2 328.7,167 					"/>
				</g>
				<g>
					<path class="st1" d="M327.7,177v20.9c0,0.9-0.7,1.7-1.5,1.7h-15.1c-0.8,0-1.5-0.7-1.5-1.7V177H327.7z"/>
				</g>
				<g>
					<rect x="309.6" y="177" class="st1" width="18.1" height="8.3"/>
				</g>
				<g>
					<rect x="308.7" y="196.9" class="st1" width="20" height="3.3"/>
				</g>
			</g>
			<g>
				<g>
					<path class="st1" d="M17.5,194.4h48.4v5H17.5v-0.6c0.3-0.5,0.4-1.2,0.4-1.8c0-0.7-0.2-1.3-0.4-1.8V194.4z"/>
				</g>
				<g>
					<polygon class="st1" points="16.3,193.8 65.2,193.8 66.9,193.8 66.9,195.4 66.9,198.6 66.9,200.2 65.2,200.2 16.3,200.2 
						16.3,198.6 65.2,198.6 65.2,195.4 16.3,195.4 					"/>
				</g>
				<g>
					<path class="st1" d="M62,188H13.7v5H62v-0.6c-0.3-0.5-0.4-1.2-0.4-1.8c0-0.7,0.2-1.3,0.4-1.8V188z"/>
				</g>
				<g>
					<polygon class="st1" points="63.3,187.5 14.3,187.5 12.7,187.5 12.7,189.1 12.7,192.2 12.7,193.8 14.3,193.8 63.3,193.8 
						63.3,192.2 14.3,192.2 14.3,189.1 63.3,189.1 					"/>
				</g>
				<g>
					<path class="st1" d="M15.7,175.7h43.4c-0.4,1.6-0.6,3.4-0.6,5.4c0,2,0.2,3.9,0.6,5.4H15.7V175.7z"/>
				</g>
				<g>
					<g>
						<path class="st1" d="M58.8,177c0,0.2-0.1,0.4-0.1,0.5H17.3V177H58.8z"/>
					</g>
					<g>
						<path class="st1" d="M58.6,178.8c0,0.2,0,0.4,0,0.5H17.3v-0.5H58.6z"/>
					</g>
					<g>
						<path class="st1" d="M58.4,180.5c0,0.2,0,0.4,0,0.5H17.3v-0.5H58.4z"/>
					</g>
					<g>
						<path class="st1" d="M58.5,182.3c0,0.2,0,0.4,0,0.5H17.3v-0.5H58.5z"/>
					</g>
					<g>
						<path class="st1" d="M58.6,184.1c0,0.2,0,0.4,0.1,0.5H17.3v-0.5H58.6z"/>
					</g>
				</g>
				<g>
					<polygon class="st1" points="14.8,174.2 16.5,174.2 60.4,174.2 60.4,175.9 16.5,175.9 16.5,185.8 60.4,185.8 60.4,187.5 
						16.5,187.5 14.8,187.5 14.8,185.8 14.8,175.9 					"/>
				</g>
				<g>
					<rect x="11.4" y="169.8" class="st1" width="47.9" height="4.4"/>
				</g>
				<g>
					<rect x="15.3" y="167.6" class="st1" width="47.9" height="2.2"/>
				</g>
				<g>
					<rect x="12.8" y="161.9" class="st1" width="47.9" height="5.7"/>
				</g>
				<g>
					<path class="st1" d="M9.6,156.1h47.8v5.2H9.6c0.3-0.8,0.4-1.6,0.4-2.6C10,157.7,9.8,156.9,9.6,156.1z"/>
				</g>
				<g>
					<polygon class="st1" points="7.8,155.4 58.1,155.4 58.1,161.9 7.8,161.9 7.8,160.7 56.6,160.7 56.6,156.7 7.8,156.7 					"/>
				</g>
			</g>
			<g>
				<rect x="14.4" y="200.2" class="st1" width="153.7" height="14.9"/>
			</g>
			<g>
				<rect x="28.7" y="228.3" class="st1" width="8.2" height="154.8"/>
			</g>
			<g>
				<rect x="366.6" y="228.3" class="st1" width="8.2" height="154.8"/>
			</g>
			<g>
				<path class="st1" d="M73.1,49.9c-0.6-1.4-6.8-16.1-7.8-14.5c-13.5,19.9-7.7,52.1,7.4,58.8L73.1,49.9z"/>
			</g>
			<g>
				<path class="st1" d="M136.1,39.3c1.6,0.7,6.9,5.2,7.8,10.8c0.9,5.6-8.7,31.2-9.1,29.2c-0.4-2-5.4-36.9-5.2-37.5
					C129.7,41.3,136.1,39.3,136.1,39.3z"/>
			</g>
			<g>
				<path class="st1" d="M91,28.4l33.4,6c12.3,2.2,12.3,21.9,10.1,39.7c-1.1,8.8,4,14.4-2.7,25c-4.7,7.3-22.5,12.3-32.1,11.2
					c-10.9-1.3-35.1-8.8-34.3-23.5l2.4-42.9C68.4,33.3,80.2,26.5,91,28.4z"/>
			</g>
			<g>
				<path class="st1" d="M132.8,97.5c-0.3,0.5-0.6,1.1-1,1.7c-4.7,7.3-22.5,12.3-32.1,11.2c-10.9-1.3-35.1-8.8-34.3-23.5l0.2-2.8
					l0,0c0,0,0.8,0.2,2.4-1.2c1.5-1.4,1.2-9.9,1.2-9.9l4-0.3c-1.9,18.5,11.5,28.7,12.3,23.8c0.8-4.9,2.1-9.3,5.1-9.9
					c3.7-0.7,9.6,4,14,5.1c3.4,1.3,10.3,0.8,12.6,4.1c2.3,3.3-5.9,8-4.6,8.7C113.3,104.8,126.8,99.8,132.8,97.5z"/>
			</g>
			<g>
				<path class="st1" d="M74.2,63.8c-3.9-2.1-10.8-6-14.4-1.4C56.3,67.1,58.6,80,61.4,82c2.8,2,8.9,4,9.3,0.3
					C71,78.5,74.2,63.8,74.2,63.8z"/>
			</g>
			<g>
				<path class="st1" d="M68.6,65.5c0.3-2-5.1-3.3-6.7-0.8c-1.6,2.5-0.8,13.7,1.5,14.9c2.3,1.2,4.1,1.6,4.4-0.4
					c0.3-2,0.2-3.6-0.7-5.1c-0.8-1.5-0.5-2.4,0.6-2.9c1.1-0.5,1.5-2.9,1.5-2.9L68.6,65.5z"/>
			</g>
			<g>
				<path class="st1" d="M69.3,60.1c1.6,0.6-0.1,12.1-0.2,12.9c0,0.8,2.3,0.9,3.7,0.2c1.4-0.7-0.7-19.5,6.3-29.4
					c7-9.8,29.5-12.2,28.6-12.4c-0.9-0.2-18.7-10-30.7-6.4c-12.3,3.7-20,24.3-15.9,36.2C66.6,58,67.7,59.4,69.3,60.1z"/>
			</g>
			<g>
				<path class="st1" d="M92.7,23.2c24.6-9.6,32.5,9,60,12c-3.1-0.1-10.8,31.1-51.3,11.5C90.9,41.7,70.6,31.9,92.7,23.2z"/>
			</g>
			<g>
				<path class="st1" d="M106.6,68.3c-0.2-0.3-0.9-1.4-2.1-2c-5.6-2.7-21.9-3.6-26.3-3c-0.6,0.1-0.6,0-0.7,0.4
					c-0.1,0.4-0.4,2.5-0.2,2.9c0.1,0.3,1,0.6,1.6,1.7c1.1,2.1,0.2,9.1,3.1,12.7c2.9,3.8,15.6,5.3,19.5,1.1c2.6-2.8,4.1-6,5.7-9.1
					c0.8-0.7,1.5-0.6,2-0.7c0.4,0,0.7,0,0.9,0c0.2,0,0.5,0.1,0.8,0.2c0.6,0.1,1.2,0.3,1.8,1.1c0.8,3.4,1.6,6.9,3.5,10.1
					c2.9,5,15.6,6.2,19.3,3.1c3.6-3,4.3-10,5.9-11.8c0.9-1,1.7-1,2-1.3c0.2-0.3,0.4-2.5,0.4-2.8c0-0.4-0.1-0.4-0.6-0.6
					c-4.2-1.5-20.3-4.1-26.4-2.7c-1.3,0.3-2.2,1.2-2.5,1.5c-0.5,0.1-1.3,0.1-3.8-0.2C107.8,68.7,107.1,68.5,106.6,68.3L106.6,68.3z
					 M137.1,70.9L137.1,70.9c0,0,1.5,0.3,1.9,1.9c0.5,1.6-0.2,5.2-0.8,6.9c-0.5,1.7-1.7,4.4-2.9,5.7c-4,3.8-15.5,2.1-18-1.9
					c-1.9-3-4.7-11.8,0.2-13.6C121.7,68.3,133.2,69.1,137.1,70.9L137.1,70.9z M83.9,65L83.9,65c4.2-0.9,15.6,0.8,19.3,3.3
					c4.4,2.9-0.4,10.8-2.9,13.3c-3.3,3.3-14.9,2.6-17.9-2c-1-1.5-1.4-4.3-1.6-6.1c-0.1-1.8,0-5.4,0.8-6.9C82.4,65,83.9,65,83.9,65z"
					/>
			</g>
			<g>
				<path class="st1" d="M78.1,66.7c0-0.3,0.5-3.3,0.5-3.3L66.1,57l-0.2,3.1l6.6,4.3L78.1,66.7z"/>
			</g>
			<g>
				<path class="st1" d="M94.7,70c1.8,0,3.2,1.6,3,3.6c-0.2,2-1.8,3.6-3.6,3.6c-1.8,0-3.2-1.6-3-3.6C91.2,71.6,92.8,70,94.7,70z"/>
			</g>
			<g>
				<path class="st1" d="M125.5,73c1.8,0,3.2,1.6,3,3.6c-0.2,2-1.8,3.6-3.6,3.6c-1.8,0-3.2-1.6-3-3.6C122.1,74.6,123.7,73,125.5,73z
					"/>
			</g>
			<g>
				<path class="st1" d="M95.8,74.8c0.8,0,1.5-0.7,1.5-1.5c0-0.8-0.7-1.5-1.5-1.5c-0.8,0-1.5,0.7-1.5,1.5
					C94.3,74.2,95,74.8,95.8,74.8z"/>
			</g>
			<g>
				<path class="st1" d="M126.7,77.7c0.8,0,1.5-0.7,1.5-1.5c0-0.8-0.7-1.5-1.5-1.5c-0.8,0-1.5,0.7-1.5,1.5
					C125.2,77.1,125.9,77.7,126.7,77.7z"/>
			</g>
			<g>
				<path class="st1" d="M102.3,60c-2.3-1.2-18.7-2.6-18.7,0.6c0,1.5,14,1.6,17.2,2.7c3.3,1.1,4.9,1.3,4.2-0.7
					C104.3,60.6,102.3,60,102.3,60z"/>
			</g>
			<g>
				<path class="st1" d="M133.5,63.8c-2.3-1.2-18.7-2.6-18.7,0.6c0,1.5,14,1.6,17.2,2.7c3.3,1.1,4.9,1.3,4.2-0.7
					C135.5,64.4,133.5,63.8,133.5,63.8z"/>
			</g>
			<g>
				<path class="st1" d="M90.6,30.2c0,0,9.2,9.3,27.3,10.9c18.1,1.6,26.5-3.8,26.1-3.2c-0.4,0.6-6.5,5-5.9,5
					c0.6-0.1,10.7-6,10.2-5.4c-0.5,0.6-3.1,8-14.2,11.5c-11,3.4-31-2.9-38.2-8.3C88.6,35.1,88,28.5,88,28.5L90.6,30.2z"/>
			</g>
			<g>
				<path class="st1" d="M116.5,90.5c-2.8,2.1-8.8,1.1-10.9-1.6c-2.9-3.6-1.1-10.1,3.6-14.6C110.1,86.7,123.9,85,116.5,90.5z"/>
			</g>
			<g>
				<path class="st1" d="M117.2,89.1c-2.8,2-8.8,1.1-10.9-1.5c-2.9-3.5-1.1-9.6,3.6-13.9C110.7,85.4,124.5,83.8,117.2,89.1z"/>
			</g>
			<g>
				<g>
					<path class="st2" d="M106.7,98.8c-1.6,0.1-3.4-0.2-4.9-0.6c-4.3-1.2-8.9-3.9-8.8-7.1c0-0.3,0.2-0.4,0.5-0.4
						c0.3,0,0.5,0.2,0.5,0.5c-0.1,2.6,4,5.1,8.1,6.2c3.9,1.1,7.2,0.7,8.1-0.8c0.1-0.2,0.4-0.3,0.6-0.2c0.2,0.1,0.3,0.4,0.2,0.6
						C110.2,98.2,108.5,98.7,106.7,98.8z"/>
				</g>
			</g>
		</g>
		<g>
			<rect x="225.8" y="224.6" class="st3" width="16.9" height="167.3"/>
			<rect x="225.8" y="228" class="st4" width="8.5" height="163.9"/>
			<rect x="102.1" y="307.1" class="st5" width="10.1" height="62.1"/>
			<rect x="95.7" y="285.8" class="st6" width="23.1" height="27"/>
			<rect x="95.7" y="286.2" class="st7" width="8.9" height="26.6"/>
			<path class="st8" d="M108.9,264c36.8,0,66.6,9.7,66.6,21.8c0,1.2-0.3,2.4-0.9,3.6H43.2c-0.6-1.2-0.9-2.4-0.9-3.6
				C42.3,273.7,72.1,264,108.9,264z"/>
			<path class="st9" d="M40.2,281.2h134c1.5,0,2.7,1.2,2.7,2.7v3.4c0,1.5-1.2,2.7-2.7,2.7h-134c-1.5,0-2.7-1.2-2.7-2.7v-3.4
				C37.5,282.4,38.7,281.2,40.2,281.2z"/>
			<g>
				<rect x="100.6" y="347.6" class="st6" width="13.2" height="29.5"/>
				<polygon class="st10" points="97.8,371 47.9,384 47.5,389.5 107.1,382.1 166.7,389.5 166.3,384 116.4,371 				"/>
				<circle class="st11" cx="49.5" cy="387.1" r="4.8"/>
				<path class="st11" d="M164.9,391.9c2.6,0,4.8-2.2,4.8-4.8c0-2.6-2.2-4.8-4.8-4.8c-2.6,0-4.8,2.2-4.8,4.8
					C160.1,389.7,162.3,391.9,164.9,391.9z"/>
			</g>
			<path class="st9" d="M30.9,135.2H115c4.3,0,7.9,3.5,7.9,7.9v42.4c0,4.3-3.5,7.9-7.9,7.9H30.9c-4.3,0-7.9-3.5-7.9-7.9V143
				C23,138.7,26.5,135.2,30.9,135.2z"/>
			<path class="st8" d="M36.7,135.2h84.1c4.3,0,7.9,3.5,7.9,7.9v42.4c0,4.3-3.5,7.9-7.9,7.9H36.7c-4.3,0-7.9-3.5-7.9-7.9V143
				C28.9,138.7,32.4,135.2,36.7,135.2z"/>
			<path class="st12" d="M181,365.6c-1,2.1-3.7,8-3.7,8l-0.2,18.3l11-0.1l0.2-2.2c0,0,5.5,2,9,2.1c3.5,0.1,26.5,0.3,28.7-1.3
				c2.2-1.5-5-3.5-5.5-3.8c-0.5-0.3-18-4.9-22.2-9.4c-4.2-4.5-4.5-9.7-4.5-9.7L181,365.6z"/>
			<path class="st12" d="M123.5,233.6l69.2,24.3c11.4,3.5,17,11.4,16.2,22.4c-1.9,26.5-8.8,66.2-12.9,85.6c-0.4,2.1,3.1,6.2,2.8,7.8
				c-0.3,1.6-21,3.8-22.7,3.7l2.9-93.7c-12.1,0-49-8.3-62-11.7C105.6,270.3,115.1,235.8,123.5,233.6z"/>
			<path class="st12" d="M133.6,244.4c-12.7-7.7-12.9-15.4-14.8-15.4c-1.9,0-61.4,1.5-61.4,1.5s-6.3,12.3-6.3,23.9
				c0,11.6,9.8,20.1,11.4,20.5c1.7,0.4,41.2,7.3,48.1,3.7C117.5,275.2,133.6,244.4,133.6,244.4z"/>
			<path class="st13" d="M62.1,239.2l85.7,20.9c11.4,3.5,17,11.4,16.2,22.4c-2.3,31.4-7.8,53.7-11.9,91.8l-19.7-0.2l2.4-90.8
				c-12.1,0-58-4.6-70.9-8C40.3,269.3,48.7,233.4,62.1,239.2z"/>
			<path class="st14" d="M226.5,185.4c0.3,0,1.8,0.1,1.8,0.1s12.7,5.3,12,6.2c-0.7,0.9-1.7,1.8-5.5,0.9
				C231.1,191.7,226.5,185.4,226.5,185.4z"/>
			<path class="st15" d="M127.5,108.6c-12.5,0.7-20.6,15.5-14.3,24.8l32.3,47.6l58,16.4c4.7,1.3,11.5-9.7,6.7-11.4l-52.8-17.6
				C152.7,160.5,140,136.2,127.5,108.6z"/>
			<path class="st16" d="M85,93.2c-2.2,0.3-10.9,3.2-13.2,3.2c-2.2,0-33.5,7.4-33.5,7.4c7.5,32.8,9.6,124.1,9.6,156.4
				c30.9-19.5,85.7-11.4,77.5-28.8c-7.2-4.8,10-113.4,2.1-122.8c-4-4.7-17.7-5.4-26.1-7.9C93.1,98.3,85.1,93,85,93.2z"/>
			<path class="st17" d="M72.8,104.3l-0.9,50.4c0,0,19.8,0.5,19.5-0.2c-0.3-0.7-1.4-43.1-1.4-43.1L72.8,104.3z"/>
			<path class="st17" d="M76.1,150.9c-0.7,1-4.2,3.7-4.2,3.7L72,162l1.8,0.4l0.4-6.3l2.2,0l-0.4,6.6l2.5-0.1c0,0-0.2-6.6,0.1-6.6
				c0.3,0,1.6,0.1,1.6,0.1l-0.2,6.4l1.7,0.2l0.3-6.9l1.8,0.1l-0.2,7l1.9-0.2l0.1-6.9l1.7,0.1v6.8l1.9-0.1l0-6.6l1.1-0.1l0.3,6.6
				c0,0,1.7,0.2,1.6,0c0-0.2-0.8-7.9-0.8-7.9s-5.8-3.1-6.1-3.2C84.9,151.2,76.1,150.9,76.1,150.9z"/>
			<path class="st18" d="M79.5,72.5c0.3,3.1-0.3,16.9-2.2,19.8c-1.9,2.9-4.9,4-10.3,4.9c-5.3,0.9,9,16.4,24.8,17.1
				c22.2,1,14.3-12.1,1.9-19.7c-3.8-2.3-3.1-20.2-3.1-20.2L79.5,72.5z"/>
			<path class="st19" d="M146.2,202.4c7.9,0,14.3-2.5,14.3-5.6c0-3.1-6.4-5.6-14.3-5.6c-7.9,0-14.3,2.5-14.3,5.6
				C131.9,199.8,138.4,202.4,146.2,202.4z"/>
			<path class="st14" d="M204.2,198.1c4.7,0.1,13.6-0.1,13.9-2c0.3-1.9-7.7-2.8-6.9-3.9c3-3.5,4.6-2.4,6.7-1.4
				c1.7,0.8,3.2,3.7,4.9,4.4c2.5,1,4.8,0.7,4.2-0.1c-0.5-0.9-5.6-7.5-5.6-7.5s6.8,7.3,8.4,7.5c1.7,0.1,4.6,0.1,4.4-0.7
				c-0.1-0.8-8.2-7.9-8.2-7.9s9.1,7.6,10.4,7.7c1.3,0.1,5.1,0.6,4.4-0.7c-0.6-1.2-7.8-7.2-10.6-8.7c-6.4-3.6-27.3,0.4-29.6,3.5
				C198.6,191.1,199.5,198,204.2,198.1z"/>
			<path class="st13" d="M136.7,365.8c-1,2.1-3.7,8-3.7,8l0,18.1l10.4,0l0.7-2.1c0,0,5.5,2,9,2.1c3.5,0.1,26.5,0.3,28.7-1.3
				c2.2-1.5-5-3.5-5.5-3.8c-0.5-0.3-18-4.9-22.2-9.4c-4.2-4.5-4.5-9.7-4.5-9.7L136.7,365.8z"/>
			<path class="st20" d="M105.8,314.4h0.3c0.9,0,1.7,0.8,1.7,1.7v28.3c0,0.9-0.8,1.7-1.7,1.7h-0.3c-0.9,0-1.7-0.8-1.7-1.7v-28.3
				C104.1,315.1,104.8,314.4,105.8,314.4z"/>
			<rect x="100.6" y="347.6" class="st7" width="6.2" height="23.4"/>
			<g>
				<g>
					<rect x="173.9" y="194.9" class="st21" width="3.6" height="1.7"/>
					<rect x="179" y="194.9" class="st21" width="3.6" height="1.7"/>
					<rect x="184.1" y="194.9" class="st21" width="3.6" height="1.7"/>
					<rect x="189.3" y="194.8" class="st21" width="3.6" height="1.7"/>
					<rect x="194.4" y="194.8" class="st21" width="3.6" height="1.7"/>
					<rect x="199.6" y="194.8" class="st21" width="3.6" height="1.7"/>
					<rect x="204.7" y="194.8" class="st21" width="3.6" height="1.7"/>
					<rect x="209.9" y="194.7" class="st21" width="3.6" height="1.7"/>
					<rect x="215" y="194.7" class="st21" width="3.6" height="1.7"/>
					<rect x="220.1" y="194.7" class="st21" width="3.6" height="1.7"/>
					<rect x="225.3" y="194.6" class="st21" width="3.6" height="1.7"/>
					<rect x="230.4" y="194.6" class="st21" width="3.6" height="1.7"/>
					<rect x="235.6" y="194.6" class="st21" width="3.6" height="1.7"/>
					<rect x="240.7" y="194.5" class="st21" width="3.6" height="1.7"/>
					<rect x="245.9" y="194.5" class="st21" width="3.6" height="1.7"/>
					<rect x="251" y="194.5" class="st21" width="3.6" height="1.7"/>
					<rect x="256.1" y="194.4" class="st21" width="3.6" height="1.7"/>
					<rect x="261.3" y="194.4" class="st21" width="3.6" height="1.7"/>
				</g>
				<rect x="169.9" y="195.7" class="st19" width="99" height="2.6"/>
			</g>
			<g>
				<path class="st22" d="M288,87.3H162.7c-3.9,0-7.2,3.2-7.2,7.2v78.6c0,3.9,3.2,7.2,7.2,7.2H288c4,0,7.2-3.2,7.2-7.2V94.5
					C295.1,90.6,291.9,87.3,288,87.3z"/>
				<path class="st21" d="M291.6,87.3H166.3c-3.9,0-7.2,3.2-7.2,7.2v78.6c0,3.9,3.2,7.2,7.2,7.2h125.3c4,0,7.2-3.2,7.2-7.2V94.5
					C298.8,90.6,295.5,87.3,291.6,87.3z"/>
				<path class="st23" d="M200.9,109.4h58c2.4,0,4.4,2,4.4,4.4v40.9c0,2.4-2,4.4-4.4,4.4h-58c-2.4,0-4.4-2-4.4-4.4v-40.9
					C196.6,111.4,198.5,109.4,200.9,109.4z"/>
				<path class="st24" d="M203.6,109.4h58c2.4,0,4.4,2,4.4,4.4v40.9c0,2.4-2,4.4-4.4,4.4h-58c-2.4,0-4.4-2-4.4-4.4v-40.9
					C199.2,111.4,201.2,109.4,203.6,109.4z"/>
				<rect x="215.8" y="159" class="st25" width="28.2" height="39.3"/>
				<rect x="218.5" y="159" class="st26" width="28.2" height="39.3"/>
				<rect x="187.3" y="195.9" class="st25" width="31.1" height="2.4"/>
			</g>
			<rect x="21.4" y="223.1" class="st3" width="16.9" height="168.8"/>
			<rect x="368.4" y="224.6" class="st3" width="16.9" height="167.3"/>
			<rect x="13.9" y="206.8" class="st27" width="371.4" height="21.2"/>
			<rect x="144.2" y="223.1" class="st3" width="16.9" height="168.8"/>
			<rect x="144.2" y="228" class="st4" width="8.5" height="163.9"/>
			<rect x="13.9" y="206.8" class="st27" width="371.4" height="21.2"/>
			<rect x="13.9" y="206.8" class="st28" width="145.2" height="21.2"/>
			<rect x="6.8" y="198.3" class="st29" width="393.2" height="15.7"/>
			<path class="st29" d="M112.9,101.1c0.7,2.2,7,18.9-7.4,23.8c-14.4,4.9-40.3-16.6-44.8-25c-4.4-8.3,11.7-9.5,11.7-9.5
				s4.4,11,19.1,12.3c14.7,1.4,11.4-5,13.6-5.6C107.2,96.7,112.9,101.1,112.9,101.1z"/>
			<path class="st30" d="M103.2,105.3c5.6,0,10.2,4.6,10.2,10.2c0,5.6-4.6,10.2-10.2,10.2S93,121.1,93,115.5
				C93,109.9,97.6,105.3,103.2,105.3L103.2,105.3z M103.2,108.3c-4,0-7.3,3.3-7.3,7.3c0,4,3.3,7.3,7.3,7.3c4,0,7.3-3.3,7.3-7.3
				C110.5,111.5,107.2,108.3,103.2,108.3z"/>
			<path class="st31" d="M103.2,101.2h26.4v27c0,2.6-2.1,4.7-4.7,4.7h-17.1c-2.6,0-4.7-2.1-4.7-4.7V101.2z"/>
			<rect x="103.2" y="111.7" class="st32" width="26.4" height="4.4"/>
			<path class="st33" d="M92.9,110.4c1-0.4,0.7,1.8,0.7,1.8s6.1-0.9,7.3,1.1c1.2,2.1-0.9,4.7-0.9,4.7s2,1.1,1.5,2.7
				c-0.5,1.6-1.1,2.3-1.1,2.3s1.5,4.4,0.8,5.4c-0.7,1-1,1.6-1,1.6s0.6,2.2-0.2,3.3c-0.7,1.1-4.6,2.9-9.2,3.8
				c-4.6,1-9.3-1.7-10.5-4.3C76.3,124.6,86.2,113,92.9,110.4z"/>
			<path class="st15" d="M42.1,102.9c-37.1,2.5-10.6,97.6,3.9,98.3c13.7,0.7,43.4-57.3,47.3-64.7c0.2-0.3-13.9-9-14.1-8.7l-33,44.3
				C46.5,161.2,48.7,102.7,42.1,102.9z"/>
			<g>
				<path class="st34" d="M305.8,130.2h84.9v68.1h-84.9v-10.7c1.3-1.6,2.2-4.6,2.2-8.1c0-3.4-0.9-6.4-2.2-8.1V139
					c0.9-1,1.5-2.5,1.5-4.1c0-1.7-0.6-3.2-1.5-4.1V130.2z"/>
				<polygon class="st35" points="305.8,168.9 325.9,159.3 305.8,159.3 				"/>
				<polygon class="st35" points="305.8,140.7 319,141.1 305.8,146.7 				"/>
				<path class="st35" d="M369.6,130.2h21.1v2c1.3,0.3,4.4,1.8,4.4,1.8l-4.4-0.4v12c0.3,0.1,0.6,0.2,0.9,0.4
					c3.8,1.6,5.6,3.1,5.6,3.1l-6.5-1v16.8c2.2,0.6,4.3,1.2,4.3,1.2l-4.3-0.5v16.1c1.3,0.3,2.5,0.5,3.4,0.5c2.6,0.2,4.9-0.1,4.3,0.1
					c-0.6,0.2-4.5,1.6-5.2,1.7c-0.3,0.1-1.4,0.2-2.6,0.3v13.9h-10.6h-10.6c0,0-1.7-17.4-1.9-18.5c-0.2-1.1-0.4-4.3,0.7-6.9
					c0.5-1.3,0.5-6.8,0.4-12.3c-0.8-1.7-1.2-4.1-1.2-6.8c0-2.6,0.4-4.9,1.2-6.7C369,142.8,369.6,130.2,369.6,130.2z"/>
				<path class="st34" d="M325.9,159.3c-1.2,0-19.1,0-19.1,0s-3.4-0.3-6.4,2c-3.1,2.3-3.8,5.4-3.8,5.4L325.9,159.3z"/>
				<path class="st34" d="M319,141.1c-2.7,0.3-16.7,3.4-16.7,3.4l3.5-3.8L319,141.1z"/>
				<path class="st34" d="M360.4,128.7c-2.9,1.5-23.5,1.5-23.9,1.5c-0.5,0-6.6,0-11.1-0.5c-4.5-0.4-10.1-3.3-10.1-3.3l31.9-0.4
					c0,0,0.3,0.6,3.8,1.5C354.5,128.3,360.4,128.7,360.4,128.7z"/>
				<path class="st35" d="M336,130.2c0,0,10.7,0.1,21.5-2.5c10.8-2.6,16.7-7.2,16.7-7.2l24.4-0.3c-5.5,4.6-9.5,8.7-18.5,10
					C380.1,130.2,336.2,130.2,336,130.2z"/>
				<rect x="310.5" y="133.2" class="st35" width="52.8" height="0.5"/>
				<rect x="311.9" y="135.4" class="st35" width="52.8" height="0.5"/>
				<rect x="311.1" y="145.3" class="st35" width="52.8" height="0.5"/>
				<rect x="312.5" y="147.4" class="st35" width="52.8" height="0.5"/>
				<rect x="309.8" y="165.7" class="st35" width="52.8" height="0.5"/>
				<rect x="311.1" y="167.9" class="st35" width="52.8" height="0.5"/>
				<rect x="309.8" y="174.8" class="st35" width="52.8" height="0.5"/>
				<rect x="311.1" y="176.9" class="st35" width="52.8" height="0.5"/>
				<rect x="311.3" y="171.1" class="st35" width="52.8" height="0.5"/>
				<rect x="312.7" y="173.2" class="st35" width="52.8" height="0.5"/>
				<rect x="309.8" y="154.7" class="st35" width="52.8" height="0.5"/>
				<rect x="311.1" y="156.9" class="st35" width="52.8" height="0.5"/>
				<rect x="311.1" y="150.4" class="st35" width="52.8" height="0.5"/>
				<rect x="312.5" y="152.5" class="st35" width="52.8" height="0.5"/>
				<rect x="313.8" y="139.9" class="st35" width="52.8" height="0.5"/>
				<rect x="315.2" y="142.1" class="st35" width="52.8" height="0.5"/>
				<rect x="318.6" y="162.2" class="st35" width="45.8" height="0.5"/>
				<rect x="312.9" y="180.8" class="st35" width="52.8" height="0.5"/>
				<rect x="371" y="132.3" class="st36" width="18.6" height="0.4"/>
				<rect x="370.7" y="135.2" class="st36" width="18.6" height="0.4"/>
				<rect x="371.7" y="139" class="st36" width="18.6" height="0.4"/>
				<rect x="369.8" y="141.8" class="st36" width="18.6" height="0.4"/>
				<rect x="370.8" y="151.9" class="st36" width="18.6" height="0.4"/>
				<rect x="370" y="148.2" class="st36" width="18.6" height="0.4"/>
				<rect x="369.8" y="144.9" class="st36" width="18.6" height="0.4"/>
				<rect x="369.3" y="167.7" class="st36" width="18.6" height="0.4"/>
				<rect x="370.1" y="160" class="st36" width="18.6" height="0.4"/>
				<rect x="370.1" y="156.9" class="st36" width="18.6" height="0.4"/>
				<rect x="370.6" y="163.8" class="st36" width="18.6" height="0.4"/>
				<rect x="370.4" y="154.4" class="st36" width="18.6" height="0.4"/>
				<rect x="370.4" y="166.7" class="st36" width="18.6" height="0.4"/>
				<rect x="371.9" y="165.3" class="st36" width="18.6" height="0.4"/>
				<rect x="370.7" y="161.8" class="st36" width="18.6" height="0.4"/>
				<rect x="370.2" y="175.4" class="st36" width="18.6" height="0.4"/>
				<rect x="369.6" y="171.2" class="st36" width="18.6" height="0.4"/>
				<rect x="371.6" y="182.3" class="st36" width="18.6" height="0.4"/>
				<rect x="370.6" y="178.4" class="st36" width="18.6" height="0.4"/>
				<rect x="370.7" y="180.6" class="st36" width="18.6" height="0.4"/>
				<rect x="370.2" y="188" class="st36" width="18.6" height="0.4"/>
				<rect x="369.4" y="184.8" class="st36" width="18.6" height="0.4"/>
				<rect x="371.3" y="190.7" class="st36" width="18.6" height="0.3"/>
			</g>
			<g>
				<rect x="313.5" y="179.9" class="st37" width="4" height="7.4"/>
				<rect x="312.5" y="179.9" class="st37" width="0.7" height="7.4"/>
				<path class="st38" d="M317.5,162.4l-1.7,0.2l-0.4-4c0-0.1,0-0.2,0.1-0.3l0.3-0.2l0.8-0.1c0.2,0,0.4,0.2,0.5,0.4L317.5,162.4z"/>
				<path class="st39" d="M319.1,164.4l-4.4,0.4l-0.3-3.6c0-0.2,0-0.3,0.1-0.4c0.1-0.1,0.2-0.2,0.4-0.2l3.3-0.3c0.1,0,0.3,0,0.4,0.1
					c0.1,0.1,0.2,0.2,0.2,0.4L319.1,164.4z"/>
				<polygon class="st40" points="317.8,197.6 314.5,162.5 318.9,162 322.2,197.2 				"/>
				<polygon class="st41" points="319.9,197.4 316.5,162.3 318.9,162 322.2,197.2 				"/>
				<polygon class="st38" points="318.9,162.3 318.8,161.7 314,162.2 313.9,162.2 313.7,162.3 313.6,162.6 314.5,172 314.9,172 
					315.4,171.8 315.2,169.6 314.7,169.1 314.1,163.1 314.2,162.8 314.4,162.7 				"/>
				
					<rect x="312.4" y="163.6" transform="matrix(0.9951 -9.928939e-02 9.928939e-02 0.9951 -16.2739 32.0123)" class="st42" width="2.1" height="31.8"/>
				
					<rect x="313.5" y="163.6" transform="matrix(0.9951 -9.871662e-02 9.871662e-02 0.9951 -16.1814 31.873)" class="st43" width="1" height="31.8"/>
				<path class="st44" d="M310.5,155.9c0-0.2,1.2-0.4,1.2-0.1l1.6,10.1l-2.3,0.2l0.7,6.9l-0.2,0c-0.1-0.1-0.1,0-0.3-1.4
					c-0.2-1.4-0.9-5.6-0.9-6.2C310.3,162.2,310.6,159.6,310.5,155.9z"/>
				<polygon class="st44" points="310.9,165.6 313.5,165.3 313.5,165.9 311,166.2 				"/>
				<polygon class="st45" points="324.4,164.6 318.5,189.3 316.1,188.7 322,164 323.3,163.9 				"/>
				<polygon class="st46" points="324.4,164.6 318.5,189.3 317.3,189 323.4,163.6 				"/>
				<path class="st47" d="M322,164l2.6-5.6l-0.2,6.2c-0.2,0.2-0.4,0.5-0.6,0.5c-0.4-0.1,0-1-0.5-1.1c-0.5-0.1-0.6,0.8-1,0.7
					C322,164.7,322,164,322,164z"/>
				<path class="st48" d="M324.6,158.4l-0.2,6.2c-0.2,0.2-0.4,0.5-0.6,0.5c-0.4-0.1,0-1-0.5-1.1l0,0L324.6,158.4z"/>
				<polygon class="st49" points="323.8,160.1 324.6,158.4 324.6,160.3 				"/>
				<polygon class="st45" points="328.6,167.3 319,190.8 316.7,189.9 326.3,166.4 327.6,166.4 				"/>
				<polygon class="st46" points="328.6,167.3 319,190.8 317.8,190.3 327.7,166.2 				"/>
				<path class="st47" d="M326.3,166.4l3.5-5.1l-1.1,6c-0.2,0.2-0.4,0.5-0.6,0.4c-0.4-0.1,0.1-0.9-0.4-1.2c-0.5-0.2-0.7,0.7-1.1,0.6
					C326.2,167,326.3,166.4,326.3,166.4z"/>
				<path class="st48" d="M329.8,161.3l-1.1,6c-0.2,0.2-0.4,0.5-0.6,0.4c-0.4-0.1,0.1-0.9-0.4-1.2l0,0L329.8,161.3z"/>
				<polygon class="st49" points="328.7,162.8 329.8,161.3 329.4,163.1 				"/>
				<path class="st50" d="M328.4,173.7v22.2c0,1-0.7,1.8-1.5,1.8h-15.5c-0.8,0-1.5-0.8-1.5-1.8v-22.2H328.4z"/>
				<rect x="309.9" y="173.7" class="st51" width="18.6" height="8.8"/>
				<rect x="308.9" y="194.8" class="st51" width="20.5" height="3.5"/>
			</g>
			<g>
				<path class="st34" d="M10,192.1h49.7v5.3H10v-0.6c0.3-0.6,0.4-1.2,0.4-1.9c0-0.7-0.2-1.4-0.4-1.9V192.1z"/>
				<polygon class="st52" points="8.7,191.6 58.9,191.6 60.7,191.6 60.7,193.3 60.7,196.6 60.7,198.3 58.9,198.3 8.7,198.3 
					8.7,196.6 58.9,196.6 58.9,193.3 8.7,193.3 				"/>
				<path class="st34" d="M55.7,185.4H6v5.3h49.7v-0.6c-0.3-0.6-0.4-1.2-0.4-1.9c0-0.7,0.2-1.4,0.4-1.9V185.4z"/>
				<polygon class="st53" points="56.9,184.8 6.7,184.8 5,184.8 5,186.5 5,189.8 5,191.6 6.7,191.6 56.9,191.6 56.9,189.8 
					6.7,189.8 6.7,186.5 56.9,186.5 				"/>
				<path class="st34" d="M8.1,172.4h44.5c-0.4,1.7-0.6,3.6-0.6,5.8c0,2.1,0.2,4.1,0.6,5.8H8.1V172.4z"/>
				<g>
					<path class="st35" d="M52.3,173.7c0,0.2-0.1,0.4-0.1,0.6H9.8v-0.6H52.3z"/>
					<path class="st35" d="M52.1,175.6c0,0.2,0,0.4,0,0.6H9.8v-0.6H52.1z"/>
					<path class="st35" d="M52,177.5c0,0.2,0,0.4,0,0.6H9.8v-0.6H52z"/>
					<path class="st35" d="M52,179.4c0,0.2,0,0.4,0,0.6H9.8v-0.6H52z"/>
					<path class="st35" d="M52.2,181.2c0,0.2,0,0.4,0.1,0.6H9.8v-0.6H52.2z"/>
				</g>
				<polygon class="st54" points="7.1,170.7 8.9,170.7 54,170.7 54,172.5 8.9,172.5 8.9,183 54,183 54,184.8 8.9,184.8 7.1,184.8 
					7.1,183 7.1,172.5 				"/>
				<rect x="3.7" y="166.1" class="st55" width="49.1" height="4.6"/>
				<rect x="7.7" y="163.8" class="st56" width="49.1" height="2.3"/>
				<rect x="5.1" y="157.8" class="st57" width="49.1" height="6"/>
				<path class="st34" d="M1.8,151.6h49.1v5.5H1.8c0.3-0.8,0.4-1.7,0.4-2.7C2.2,153.4,2.1,152.4,1.8,151.6z"/>
				<polygon class="st58" points="0,150.9 51.7,150.9 51.7,157.8 0,157.8 0,156.5 50.1,156.5 50.1,152.3 0,152.3 				"/>
			</g>
			<rect x="6.8" y="198.3" class="st59" width="157.8" height="15.7"/>
			<rect x="21.4" y="228" class="st4" width="8.5" height="163.9"/>
			<rect x="368.4" y="228" class="st4" width="8.5" height="163.9"/>
			<path class="st13" d="M67,39.1c-0.6-1.5-6.9-17.1-8.1-15.4C45.1,44.8,51.1,78.9,66.6,86L67,39.1z"/>
			<path class="st13" d="M131.7,27.9c1.6,0.8,7,5.5,8,11.4c0.9,6-9,33-9.4,30.9c-0.4-2.1-5.5-39.1-5.3-39.7
				C125.1,30.1,131.7,27.9,131.7,27.9z"/>
			<path class="st33" d="M85.4,16.4l34.3,6.4c12.6,2.3,12.7,23.2,10.4,42c-1.1,9.3,4.1,15.3-2.8,26.5c-4.8,7.8-23.1,13-33,11.8
				c-11.2-1.3-36-9.3-35.2-24.9l2.4-45.4C62.2,21.6,74.3,14.4,85.4,16.4z"/>
			<path class="st60" d="M128.3,89.5c-0.3,0.6-0.6,1.2-1,1.8c-4.8,7.8-23.1,13-33,11.8c-11.2-1.3-36-9.3-35.2-24.9l0.2-2.9l0,0
				c0,0,0.9,0.2,2.4-1.2c1.6-1.5,1.3-10.5,1.3-10.5l4.1-0.3c-1.9,19.5,11.8,30.4,12.7,25.2c0.8-5.2,2.2-9.8,5.3-10.5
				c3.8-0.8,9.8,4.3,14.3,5.4c3.5,1.4,10.6,0.8,13,4.3c2.4,3.5-6,8.5-4.7,9.2C108.3,97.4,122.2,92,128.3,89.5z"/>
			<path class="st33" d="M68.2,53.9c-4-2.2-11.1-6.4-14.8-1.4C49.7,57.4,52.2,71,55,73.2c2.9,2.2,9.2,4.3,9.5,0.3
				C64.9,69.5,68.2,53.9,68.2,53.9z"/>
			<path class="st61" d="M62.4,55.7c0.3-2.1-5.2-3.5-6.8-0.9c-1.6,2.6-0.9,14.5,1.5,15.7c2.4,1.2,4.2,1.7,4.5-0.4
				c0.3-2.1,0.2-3.8-0.7-5.4c-0.9-1.6-0.5-2.5,0.6-3.1c1.1-0.6,1.6-3.1,1.6-3.1L62.4,55.7z"/>
			<path class="st13" d="M63.1,50c1.7,0.7-0.1,12.8-0.2,13.6c0,0.8,2.3,0.9,3.8,0.2c1.5-0.7-0.7-20.7,6.5-31.1
				c7.1-10.4,30.3-12.9,29.3-13.1c-1-0.2-19.2-10.6-31.5-6.8c-12.6,3.9-20.5,25.7-16.3,38.3C60.3,47.8,61.5,49.3,63.1,50z"/>
			<path class="st13" d="M87.2,11c25.2-10.2,33.4,9.6,61.6,12.7c-3.2-0.1-11,32.9-52.6,12.2C85.3,30.5,64.4,20.2,87.2,11z"/>
			<path class="st13" d="M101.4,58.7c-0.2-0.4-1-1.5-2.2-2.1c-5.8-2.8-22.5-3.8-27-3.2c-0.6,0.1-0.6,0.1-0.7,0.4
				c-0.1,0.4-0.4,2.7-0.2,3c0.1,0.4,1,0.6,1.6,1.8c1.2,2.2,0.2,9.6,3.1,13.5c3,4,16,5.6,20.1,1.2c2.7-2.9,4.2-6.4,5.9-9.7
				c0.8-0.7,1.5-0.7,2.1-0.7c0.4,0,0.7,0,0.9,0c0.2,0,0.5,0.1,0.9,0.2c0.6,0.1,1.2,0.3,1.9,1.1c0.9,3.6,1.6,7.3,3.6,10.7
				c3,5.2,16,6.6,19.8,3.3c3.7-3.1,4.4-10.6,6.1-12.4c0.9-1.1,1.8-1.1,2-1.4c0.2-0.3,0.5-2.6,0.4-3c0-0.4-0.1-0.4-0.6-0.6
				c-4.3-1.6-20.8-4.4-27.1-2.9c-1.3,0.3-2.3,1.2-2.6,1.5c-0.5,0.1-1.3,0.1-3.9-0.2C102.7,59.1,101.9,58.9,101.4,58.7L101.4,58.7z
				 M132.7,61.4L132.7,61.4c0,0,1.5,0.3,2,2c0.5,1.7-0.3,5.5-0.8,7.3c-0.6,1.8-1.7,4.7-3,6c-4.1,4.1-15.9,2.2-18.4-2
				c-1.9-3.2-4.8-12.5,0.2-14.4C117,58.7,128.7,59.5,132.7,61.4L132.7,61.4z M78.1,55.2L78.1,55.2c4.3-0.9,16,0.8,19.8,3.5
				c4.5,3-0.4,11.4-3,14.1c-3.4,3.5-15.3,2.7-18.4-2.2c-1-1.6-1.5-4.6-1.6-6.5c-0.1-1.9,0-5.7,0.8-7.3
				C76.5,55.2,78.1,55.2,78.1,55.2z"/>
			<path class="st13" d="M72.1,57c0-0.3,0.5-3.5,0.5-3.5l-12.8-6.7L59.6,50l6.8,4.6L72.1,57z"/>
			<path class="st13" d="M89.2,60.5c1.9,0,3.3,1.7,3.1,3.8c-0.2,2.1-1.8,3.8-3.7,3.8c-1.9,0-3.3-1.7-3.1-3.8
				C85.6,62.2,87.3,60.5,89.2,60.5z"/>
			<path class="st13" d="M120.8,63.6c1.9,0,3.3,1.7,3.1,3.8c-0.2,2.1-1.8,3.8-3.7,3.8c-1.9,0-3.3-1.7-3.1-3.8
				C117.3,65.3,119,63.6,120.8,63.6z"/>
			<path class="st62" d="M90.4,65.6c0.9,0,1.6-0.7,1.6-1.6c0-0.9-0.7-1.6-1.6-1.6c-0.9,0-1.6,0.7-1.6,1.6
				C88.8,64.9,89.5,65.6,90.4,65.6z"/>
			<path class="st62" d="M122.1,68.7c0.9,0,1.6-0.7,1.6-1.6c0-0.9-0.7-1.6-1.6-1.6c-0.9,0-1.6,0.7-1.6,1.6
				C120.6,68,121.3,68.7,122.1,68.7z"/>
			<path class="st13" d="M97,49.9c-2.3-1.3-19.2-2.7-19.2,0.7c0,1.6,14.4,1.7,17.7,2.9c3.4,1.2,5,1.4,4.3-0.7
				C99.1,50.5,97,49.9,97,49.9z"/>
			<path class="st13" d="M129,54c-2.3-1.3-19.2-2.7-19.2,0.7c0,1.6,14.4,1.7,17.7,2.9c3.4,1.2,5,1.4,4.3-0.7
				C131.1,54.6,129,54,129,54z"/>
			<path class="st63" d="M85,18.4c0,0,9.5,9.8,28,11.5c18.6,1.7,27.2-4,26.8-3.4c-0.4,0.6-6.7,5.3-6.1,5.2
				c0.6-0.1,10.9-6.4,10.4-5.8c-0.5,0.6-3.2,8.5-14.5,12.1c-11.3,3.6-31.8-3.1-39.3-8.8c-7.5-5.8-8-12.8-8-12.8L85,18.4z"/>
			<path class="st64" d="M111.6,82.2c-2.9,2.3-9,1.2-11.2-1.7c-3-3.8-1.1-10.7,3.6-15.4C105,78.1,119.2,76.3,111.6,82.2z"/>
			<path class="st65" d="M112.3,80.6c-2.9,2.2-9,1.1-11.2-1.6c-3-3.7-1.1-10.2,3.6-14.7C105.7,76.8,119.8,75,112.3,80.6z"/>
			<g>
				<path class="st66" d="M101.5,91c-1.6,0.1-3.5-0.2-5-0.7c-4.4-1.2-9.2-4.1-9-7.6c0-0.3,0.2-0.5,0.5-0.5c0.3,0,0.5,0.2,0.5,0.5
					c-0.1,2.8,4.1,5.4,8.3,6.6c4,1.1,7.4,0.8,8.3-0.8c0.1-0.2,0.4-0.3,0.7-0.2c0.2,0.1,0.3,0.4,0.2,0.7
					C105.1,90.3,103.4,90.9,101.5,91z"/>
			</g>
		</g>
	</g>
</g>
</svg>
