<?xml version="1.0" encoding="utf-8"?>
<!-- Generator: Adobe Illustrator 22.1.0, SVG Export Plug-In . SVG Version: 6.00 Build 0)  -->
<svg version="1.1" id="Layer_1" xmlns="http://www.w3.org/2000/svg" xmlns:xlink="http://www.w3.org/1999/xlink" x="0px" y="0px"
	 viewBox="0 0 400 400" style="enable-background:new 0 0 400 400;" xml:space="preserve">
<style type="text/css">
	.st0{fill:#7FEF7F;}
	.st1{fill:#FFFFFF;}
	.st2{fill:#B0B0B0;}
	.st3{fill:url(#SVGID_1_);}
	.st4{fill:#161D21;}
	.st5{fill:#BDBDBE;}
	.st6{fill:#DEDEDF;}
	.st7{fill:#FCFCFD;}
	.st8{fill:#FFE760;}
	.st9{fill:#FFCC27;}
</style>
<g>
	<g>
		<g>
			<rect x="24" y="77.5" class="st0" width="83.1" height="46.7"/>
			<g>
				<path class="st1" d="M28.2,81.5h74.7v38.7H28.2V81.5z"/>
			</g>
			<g>
				<path class="st0" d="M30.3,108.2c5.6,0,10.4,4.7,10.4,10.4h50.1c0.1-5.5,4.6-10,10.1-10.2V93.6c-5.6-0.1-10.3-4.7-10.3-10.4
					c0,0,0,0,0-0.1H40.7c0,0.1,0,0.2,0,0.2c0,5.7-4.7,10.4-10.4,10.4c0,0-0.1,0-0.1,0L30.3,108.2C30.2,108.2,30.3,108.2,30.3,108.2z
					"/>
			</g>
			<g>
				<g>
					<path class="st1" d="M78.2,100.9c0-7-5.7-12.6-12.6-12.6c-7,0-12.6,5.7-12.6,12.6c0,7,5.7,12.6,12.6,12.6
						C72.5,113.5,78.2,107.8,78.2,100.9z"/>
					<path class="st1" d="M54.1,101c0-6.3,5.1-11.4,11.4-11.4c6.3,0,11.4,5.1,11.4,11.4c0,6.3-5.1,11.4-11.4,11.4
						C59.2,112.4,54.1,107.3,54.1,101z"/>
				</g>
			</g>
		</g>
		<rect x="81.7" y="100.1" class="st1" width="5.8" height="1.6"/>
		<rect x="89.6" y="100.1" class="st1" width="5.8" height="1.6"/>
		<rect x="36.5" y="100.1" class="st1" width="5.8" height="1.6"/>
		<rect x="44.4" y="100.1" class="st1" width="5.8" height="1.6"/>
	</g>
	<g>
		<g>
			<g>
				<g>
					<g>
						<path class="st2" d="M33.2,293.2c0,0-2.3,4.2,13.9,7.8h338.4c0,0,11.3-0.7,14.3-6.1l0-2.9L33.2,293.2z"/>
						<path class="st1" d="M33.3,284.7h366.6v9.4c0,0,0.6,1.3-3.8,0.9H36.7c0,0-3.4,0.9-3.7-1.3L33.3,284.7z"/>
						<path class="st2" d="M382.9,290.2c0,0.4-0.2,0.7-0.5,0.7h-12.5c-0.3,0-0.5-0.3-0.5-0.7l0,0c0-0.4,0.2-0.7,0.5-0.7h12.5
							C382.6,289.5,382.9,289.8,382.9,290.2L382.9,290.2z"/>
					</g>
					<path class="st2" d="M191.7,284.7c0,0-1.4,4.7,3.3,5.2h42.5c0,0,4.5,0.6,3.9-5L191.7,284.7z"/>
					<g>
						<linearGradient id="SVGID_1_" gradientUnits="userSpaceOnUse" x1="241.217" y1="284.9904" x2="241.217" y2="284.8781">
							<stop  offset="2.439020e-02" style="stop-color:#5F6767"/>
							<stop  offset="0.4756" style="stop-color:#676B6C"/>
							<stop  offset="0.5137" style="stop-color:#717576"/>
							<stop  offset="0.6192" style="stop-color:#878A8B"/>
							<stop  offset="0.7202" style="stop-color:#949899"/>
							<stop  offset="0.811" style="stop-color:#999C9D"/>
						</linearGradient>
						<path class="st3" d="M241.2,285v-0.1h0C241.2,284.9,241.2,285,241.2,285z"/>
					</g>
				</g>
			</g>
			<path class="st4" d="M363.9,284.6V117.5c0-7.6-6.2-13.8-13.8-13.8H82.9c-7.6,0-13.8,6.2-13.8,13.8v167.1H363.9z"/>
			<rect x="78.6" y="114.1" class="st1" width="275.8" height="160.3"/>
		</g>
		<g>
			<g>
				<path class="st5" d="M173.1,259.5"/>
				<rect x="138.4" y="158.6" class="st6" width="27.5" height="88.3"/>
				<path class="st5" d="M237.8,259.5"/>
				<rect x="203" y="158.6" class="st6" width="27.5" height="88.3"/>
				<path class="st5" d="M302.4,259.5"/>
				<rect x="267.7" y="158.6" class="st6" width="27.5" height="88.3"/>
				<path class="st5" d="M131,154.9v6.3c0,4.2,3.5,7.7,7.7,7.7h26.7c4.2,0,7.7-3.5,7.7-7.7v-6.3H131z M131,154.9"/>
				<path class="st5" d="M195.7,154.9v6.3c0,4.2,3.5,7.7,7.7,7.7h26.9c4.2,0,7.7-3.5,7.7-7.7v-6.3H195.7z M195.7,154.9"/>
				<path class="st5" d="M260.3,154.9v6.3c0,4.2,3.5,7.7,7.7,7.7h26.9c4.2,0,7.7-3.5,7.7-7.7v-6.3H260.3z M260.3,154.9"/>
				<polygon class="st6" points="331.9,144.5 216.5,85.1 101,144.5 100.7,144.5 100.7,144.7 100.7,144.7 100.7,144.7 100.7,156.3 
					332.3,156.3 332.3,144.5 				"/>
				<path class="st7" d="M143.2,141.2l73.2-37.6l73.2,37.6H143.2z M143.2,141.2"/>
				<rect x="115.8" y="252.2" class="st6" width="201.4" height="11.8"/>
				<rect x="105.4" y="263.4" class="st5" width="222.1" height="11.8"/>
				<rect x="131" y="246.3" class="st5" width="42.1" height="6.1"/>
				<rect x="195.6" y="246.3" class="st5" width="42.3" height="6.1"/>
				<rect x="260.3" y="246.3" class="st5" width="42.1" height="6.1"/>
			</g>
			<path class="st6" d="M227.3,124.6c0,6-4.9,10.8-10.8,10.8c-6,0-10.8-4.9-10.8-10.8c0-6,4.9-10.8,10.8-10.8
				C222.5,113.7,227.3,118.6,227.3,124.6z"/>
		</g>
	</g>
	<g>
		<g>
			<g>
				<g>
					<g>
						<path class="st8" d="M33.1,256.3C14.8,256.3,0,271.1,0,289.4c0,18.2,14.8,33.1,33.1,33.1c18.2,0,33.1-14.8,33.1-33.1
							C66.2,271.1,51.3,256.3,33.1,256.3z"/>
					</g>
					<path class="st9" d="M57.9,289.1c0,13.6-11,24.6-24.6,24.6c-13.6,0-24.6-11-24.6-24.6c0-13.6,11-24.6,24.6-24.6
						C46.9,264.5,57.9,275.5,57.9,289.1z"/>
				</g>
			</g>
		</g>
		<path class="st1" d="M43.7,281.7v-1c0-1.2-0.3-2.1-1-3c-0.7-0.9-1.5-1.3-2.6-1.3h-5.8v-4h-2.5v4h-5.8c-1,0-1.8,0.4-2.6,1.3
			c-0.7,0.8-1,1.8-1,3v5.8c0,1.2,0.3,2.1,1,3c0.7,0.9,1.5,1.3,2.6,1.3h14.1c0.6,0,1.1,0.6,1.1,1.4v5.9c0,0.8-0.5,1.4-1.1,1.4H26.1
			c-0.6,0-1.1-0.6-1.1-1.4v-1h-2.5v1c0,1.2,0.3,2.1,1,3c0.7,0.9,1.5,1.3,2.6,1.3h5.8v4h2.5v-4h5.8c1,0,1.8-0.4,2.6-1.3
			c0.7-0.8,1-1.8,1-3v-5.9c0-1.2-0.3-2.1-1-3c-0.7-0.9-1.5-1.3-2.6-1.3H26.1c-0.6,0-1.1-0.6-1.1-1.4v-5.8c0-0.8,0.5-1.4,1.1-1.4
			h14.1c0.6,0,1.1,0.6,1.1,1.4v1H43.7z"/>
	</g>
	<g>
		<g>
			<g>
				<g>
					<g>
						<path class="st8" d="M377.3,122.9c-12.5,0-22.7,10.2-22.7,22.7c0,12.5,10.2,22.7,22.7,22.7c12.5,0,22.7-10.2,22.7-22.7
							C400,133.1,389.8,122.9,377.3,122.9z"/>
					</g>
					<path class="st9" d="M394.3,145.4c0,9.3-7.6,16.9-16.9,16.9c-9.3,0-16.9-7.6-16.9-16.9c0-9.3,7.6-16.9,16.9-16.9
						C386.7,128.6,394.3,136.1,394.3,145.4z"/>
				</g>
			</g>
		</g>
		<path class="st1" d="M384.6,140.4v-0.7c0-0.8-0.2-1.5-0.7-2.1c-0.5-0.6-1.1-0.9-1.8-0.9h-4V134h-1.7v2.8h-4
			c-0.7,0-1.3,0.3-1.8,0.9c-0.5,0.6-0.7,1.2-0.7,2.1v4c0,0.8,0.2,1.5,0.7,2.1c0.5,0.6,1.1,0.9,1.8,0.9h9.7c0.4,0,0.7,0.4,0.7,1v4
			c0,0.5-0.3,1-0.7,1h-9.7c-0.4,0-0.7-0.4-0.7-1v-0.7H370v0.7c0,0.8,0.2,1.5,0.7,2.1c0.5,0.6,1.1,0.9,1.8,0.9h4v2.8h1.7v-2.8h4
			c0.7,0,1.3-0.3,1.8-0.9c0.5-0.6,0.7-1.2,0.7-2.1v-4c0-0.8-0.2-1.5-0.7-2.1c-0.5-0.6-1.1-0.9-1.8-0.9h-9.7c-0.4,0-0.7-0.4-0.7-1v-4
			c0-0.5,0.3-1,0.7-1h9.7c0.4,0,0.7,0.4,0.7,1v0.7H384.6z"/>
	</g>
</g>
</svg>
