<?xml version="1.0" encoding="utf-8"?>
<!-- Generator: Adobe Illustrator 22.1.0, SVG Export Plug-In . SVG Version: 6.00 Build 0)  -->
<svg version="1.1" id="objects" xmlns="http://www.w3.org/2000/svg" xmlns:xlink="http://www.w3.org/1999/xlink" x="0px" y="0px"
	 viewBox="0 0 400 400" style="enable-background:new 0 0 400 400;" xml:space="preserve">
<style type="text/css">
	.st0{fill-rule:evenodd;clip-rule:evenodd;fill:url(#SVGID_1_);}
	.st1{fill:#FFFFFF;}
	.st2{fill:#75CBD1;}
	.st3{fill-rule:evenodd;clip-rule:evenodd;fill:#FFFFFF;}
	.st4{fill-rule:evenodd;clip-rule:evenodd;fill:#75CBD1;}
	.st5{fill:#F6921E;}
	.st6{fill-rule:evenodd;clip-rule:evenodd;fill:#00A551;}
	.st7{font-family:'BebasNeue';}
	.st8{font-size:18.4253px;}
	.st9{fill-rule:evenodd;clip-rule:evenodd;fill:#6D6E70;}
	.st10{opacity:0.4;}
	.st11{clip-path:url(#SVGID_3_);fill-rule:evenodd;clip-rule:evenodd;fill:#FFFFFF;}
	.st12{fill-rule:evenodd;clip-rule:evenodd;fill:#71C73A;}
	.st13{fill-rule:evenodd;clip-rule:evenodd;fill:#DFE0E1;}
	.st14{fill:#9BD83A;}
	.st15{fill-rule:evenodd;clip-rule:evenodd;fill:#ADAFB1;}
	.st16{fill-rule:evenodd;clip-rule:evenodd;fill:#797B7D;}
	.st17{opacity:0.5;}
	.st18{clip-path:url(#SVGID_5_);fill-rule:evenodd;clip-rule:evenodd;fill:#FFFFFF;}
	.st19{fill:#DFE0E1;}
	.st20{opacity:0.3;fill:#652D90;}
	.st21{opacity:0.3;}
	.st22{clip-path:url(#SVGID_7_);fill-rule:evenodd;clip-rule:evenodd;fill:#FFFFFF;}
	.st23{fill:#909295;}
	.st24{fill-rule:evenodd;clip-rule:evenodd;fill:none;stroke:#69AF4F;stroke-width:2;stroke-miterlimit:10;}
	.st25{fill-rule:evenodd;clip-rule:evenodd;fill:#69AF4F;}
	.st26{fill-rule:evenodd;clip-rule:evenodd;fill:#95493A;}
	.st27{fill-rule:evenodd;clip-rule:evenodd;fill:#B6744A;}
</style>
<g>
	<g>
		<linearGradient id="SVGID_1_" gradientUnits="userSpaceOnUse" x1="200.6006" y1="71.2848" x2="200.6006" y2="339.6321">
			<stop  offset="0" style="stop-color:#828586"/>
			<stop  offset="1" style="stop-color:#ADAFB1"/>
		</linearGradient>
		<rect x="40.6" y="71.3" class="st0" width="320.1" height="268.3"/>
		<rect x="55.7" y="124.8" class="st1" width="172.4" height="187"/>
		<rect x="65.2" y="135.2" class="st2" width="153.4" height="166.3"/>
		<rect x="170.4" y="130.1" class="st1" width="4.1" height="176.4"/>
		<rect x="238.7" y="121.8" class="st3" width="111.4" height="206.6"/>
		<rect x="248.4" y="93.8" class="st4" width="92.1" height="122.6"/>
		<g>
			<polygon class="st5" points="275,172.5 274.5,171.9 293.1,155.3 293.3,155.5 311.4,168.3 310.9,168.9 293.1,156.4 			"/>
		</g>
		<g>
			<g>
				<path class="st6" d="M314,191.6c0.1,1.8-1.2,3.4-3,3.5l-31.2,2.4c-1.8,0.1-3.4-1.2-3.5-3l-1.6-20.7c-0.1-1.8,1.2-3.4,3-3.5
					L309,168c1.8-0.1,3.4,1.2,3.5,3L314,191.6z"/>
				<path class="st1" d="M311.1,195.8l-31.2,2.4c-2.2,0.2-4.1-1.5-4.2-3.6l-1.6-20.7c-0.2-2.2,1.5-4.1,3.6-4.2l31.2-2.4
					c2.2-0.2,4.1,1.5,4.2,3.6l1.6,20.7C314.9,193.7,313.3,195.6,311.1,195.8z M277.8,171c-1.4,0.1-2.5,1.3-2.4,2.8l1.6,20.7
					c0.1,1.4,1.3,2.5,2.7,2.4l31.2-2.4c1.4-0.1,2.5-1.3,2.4-2.7l-1.6-20.7c-0.1-1.4-1.3-2.5-2.7-2.4L277.8,171z"/>
			</g>
			<text transform="matrix(0.9971 -7.633020e-02 7.633020e-02 0.9971 280.4014 190.0194)" class="st1 st7 st8">OPEN</text>
		</g>
		<path class="st9" d="M293.9,155.9c0,0.4-0.4,0.8-0.8,0.8c-0.4,0-0.8-0.4-0.8-0.8c0-0.5,0.4-0.8,0.8-0.8
			C293.6,155.1,293.9,155.4,293.9,155.9z"/>
		<rect x="248.4" y="230.4" class="st4" width="92.1" height="86.9"/>
		<g class="st10">
			<defs>
				<rect id="SVGID_2_" x="248.4" y="93.8" class="st10" width="92.1" height="122.6"/>
			</defs>
			<clipPath id="SVGID_3_">
				<use xlink:href="#SVGID_2_"  style="overflow:visible;"/>
			</clipPath>
			
				<rect x="222.6" y="158.3" transform="matrix(0.7698 -0.6383 0.6383 0.7698 -39.9705 226.7537)" class="st11" width="143.5" height="21.1"/>
			
				<rect x="238.8" y="179" transform="matrix(0.7698 -0.6383 0.6383 0.7698 -46.1049 240.6042)" class="st11" width="143.5" height="10.5"/>
		</g>
		<g>
			<path class="st12" d="M58.2,122c0,12.9-12.8,23.3-28.5,23.3C14,145.4,1.2,134.9,1.2,122H58.2z"/>
			<path class="st13" d="M115.1,122c0,12.9-12.8,23.3-28.5,23.3c-15.7,0-28.5-10.5-28.5-23.3H115.1z"/>
			<path class="st12" d="M172.1,122c0,12.9-12.8,23.3-28.5,23.3c-15.7,0-28.5-10.5-28.5-23.3H172.1z"/>
			<path class="st13" d="M229.1,122c0,12.9-12.8,23.3-28.5,23.3c-15.7,0-28.5-10.5-28.5-23.3H229.1z"/>
			<path class="st12" d="M286.1,122c0,12.9-12.8,23.3-28.5,23.3c-15.7,0-28.5-10.5-28.5-23.3H286.1z"/>
			<path class="st13" d="M343,122c0,12.9-12.8,23.3-28.5,23.3c-15.7,0-28.5-10.5-28.5-23.3H343z"/>
			<path class="st12" d="M400,122c0,12.9-12.8,23.3-28.5,23.3c-15.7,0-28.5-10.5-28.5-23.3H400z"/>
			<polygon class="st14" points="58.2,122 98.4,57 45.6,57 1.2,122 			"/>
			<polygon class="st1" points="115.1,122 139.1,57 98.4,57 58.2,122 			"/>
			<polygon class="st14" points="172.1,122 179.3,57 139.1,57 115.1,122 			"/>
			<g>
				<polygon class="st14" points="343,122 302.8,57 355.6,57 400,122 				"/>
				<polygon class="st1" points="286.1,122 262.1,57 302.8,57 343,122 				"/>
				<polygon class="st14" points="229.1,122 221.9,57 262.1,57 286.1,122 				"/>
			</g>
			<polygon class="st1" points="179.3,57 172.1,122 229.1,122 221.9,57 			"/>
		</g>
		<rect x="40.6" y="49" class="st15" width="320.1" height="8.1"/>
		<rect x="40.6" y="55.9" class="st16" width="320.1" height="2.3"/>
		<g class="st17">
			<defs>
				<rect id="SVGID_4_" x="248.4" y="230.4" class="st17" width="92.1" height="86.9"/>
			</defs>
			<clipPath id="SVGID_5_">
				<use xlink:href="#SVGID_4_"  style="overflow:visible;"/>
			</clipPath>
			
				<rect x="219.1" y="256.2" transform="matrix(0.7698 -0.6383 0.6383 0.7698 -106.8609 248.3533)" class="st18" width="143.5" height="32.2"/>
			
				<rect x="238.8" y="286.8" transform="matrix(0.7698 -0.6382 0.6382 0.7698 -114.9103 265.403)" class="st18" width="143.5" height="10.5"/>
		</g>
		<path class="st5" d="M249.4,222.9c0,2.1-1.7,3.9-3.9,3.9c-2.1,0-3.9-1.7-3.9-3.9c0-2.1,1.7-3.9,3.9-3.9
			C247.7,219,249.4,220.8,249.4,222.9z"/>
		<rect x="52.6" y="308.8" class="st19" width="178.5" height="8.4"/>
		<path class="st20" d="M127.3,204.3c2.8-7.5,9.8-19.6,7-24.9c-2.8-5.3-19.1-2.2-19.6-7.2c-0.5-5.1,0-12.7,0-12.7l-7.5-2.8l-7.5,2.8
			c0,0,0.5,7.6,0,12.7c-0.5,5.1-16.8,1.9-19.6,7.2c-2.8,5.3,4.2,17.4,7,24.9c2.8,7.5-8.8,21.5-7.7,30.8c0,0,14.9,6,24.7,7.2v59.1
			h6.1v-59.1c9.8-1.2,24.7-7.2,24.7-7.2C136.1,225.8,124.5,211.8,127.3,204.3z"/>
		<g class="st21">
			<defs>
				<rect id="SVGID_6_" x="65.2" y="135.2" class="st21" width="153.4" height="166.3"/>
			</defs>
			<clipPath id="SVGID_7_">
				<use xlink:href="#SVGID_6_"  style="overflow:visible;"/>
			</clipPath>
			<path class="st22" d="M171.7,189c-0.3-15.5-0.4-30.9-0.4-46.4L29.7,259.9l34.6,41.8l107-88.7C171.5,205,171.8,197,171.7,189z"/>
			<path class="st22" d="M171.2,217.8L60.8,309.3l7.3,8.8l103.3-85.6C171.1,227.6,171.1,222.7,171.2,217.8z"/>
			<path class="st22" d="M172.7,285.4l81.7-67.8L240,200.3l-67.4,55.9C172.6,265.9,172.5,275.7,172.7,285.4z"/>
			<path class="st22" d="M172.8,244.3l68.9-57.1l-6.4-7.7l-62.4,51.7C172.9,235.5,172.8,239.9,172.8,244.3z"/>
			<path class="st22" d="M172.9,225.7l61.7-51.2l-2.4-2.9L173,220.7C173,222.4,173,224.1,172.9,225.7z"/>
		</g>
		<rect x="35.8" y="336.8" class="st23" width="329.7" height="8.9"/>
	</g>
	<g>
		<g>
			<path class="st24" d="M31.8,262.7c0,0-7.9,11.8-7.9,53.5"/>
			<path class="st25" d="M26,276.6c0,0,1.7-5.7-10.6-13C15.5,263.5,15.2,277.4,26,276.6z"/>
			<path class="st25" d="M27.6,275.3c0,0,1.6-5.7,15.8-5.6C43.4,269.7,36.4,281.7,27.6,275.3z"/>
			<path class="st25" d="M26.4,288.7c0,0,1.6-5.7,15.8-5.6C42.2,283.1,35.2,295.1,26.4,288.7z"/>
			<path class="st25" d="M23.9,303.4c0,0,1.6-5.7,15.8-5.6C39.7,297.8,32.7,309.8,23.9,303.4z"/>
			<path class="st25" d="M24.8,288.8c0,0,0.5-5.9-12.9-10.7C11.9,278.1,14.3,291.8,24.8,288.8z"/>
			<path class="st25" d="M24.8,307.2c0,0,0.5-5.9-12.9-10.7C11.9,296.4,14.3,310.1,24.8,307.2z"/>
		</g>
		<g>
			<polygon class="st26" points="23.2,316.8 4.1,316.8 12.2,351 23.2,351 34.6,351 42.7,316.8 			"/>
			<rect y="312" class="st27" width="47.6" height="8.5"/>
		</g>
	</g>
</g>
</svg>
