<?xml version="1.0" encoding="utf-8"?>
<!-- Generator: Adobe Illustrator 22.1.0, SVG Export Plug-In . SVG Version: 6.00 Build 0)  -->
<svg version="1.1" id="objects" xmlns="http://www.w3.org/2000/svg" xmlns:xlink="http://www.w3.org/1999/xlink" x="0px" y="0px"
	 viewBox="0 0 400 400" style="enable-background:new 0 0 400 400;" xml:space="preserve">
<style type="text/css">
	.st0{fill:#3D3D3D;}
	.st1{fill:#4B413B;}
	.st2{fill:#DEAB8E;}
	.st3{fill:#008076;}
	.st4{fill:#009680;}
	.st5{fill:#FFFFFF;}
	.st6{fill:none;}
	.st7{fill:#1D5D68;}
	.st8{fill:#FFF5BB;}
	.st9{fill:#FF5A5A;}
	.st10{fill:#00C7A0;}
	.st11{fill:#92E1FF;}
	.st12{fill:none;stroke:#00C7A0;stroke-miterlimit:10;}
	.st13{fill:#8BCB0A;}
	.st14{fill:#419B19;}
</style>
<g>
	<g>
		<polygon class="st0" points="320.2,246 314.4,235.9 308.5,225.7 302.6,235.9 296.8,246 303.3,246 303.3,340.1 313.6,340.1 
			313.6,246 		"/>
		<polygon class="st0" points="314.9,110.3 311.7,104.8 308.5,99.2 305.3,104.8 302.1,110.3 305.7,110.3 305.7,153 311.3,153 
			311.3,110.3 		"/>
		<g>
			<path class="st1" d="M29.8,339.3H13.2v-0.8H8.4v0.8H4.2v-7.2l10.8,0.4c0,0,5.5,3.8,14.8,4.8C30.7,337.4,29.8,339.3,29.8,339.3z"
				/>
			<path class="st1" d="M78.8,339.3H62.2v-0.8h-4.8v0.8h-4.2v-7.2l10.8,0.4c0,0,5.5,3.8,14.8,4.8C79.7,337.4,78.8,339.3,78.8,339.3z
				"/>
			<polygon class="st2" points="164.7,247.5 169.4,248 177.4,233.3 175,233.3 166.8,243.1 			"/>
			<polygon class="st2" points="103.3,239.8 109.1,233.7 117.8,218.2 128.1,219.9 131.6,229.7 128.2,233.3 127.7,238.1 124.6,237.4 
				120.7,241.1 116.6,240.3 113.8,242.8 			"/>
			<path class="st1" d="M109.9,234.1l-2.4-0.5c0,0,2.3-9.3,3.9-12.1c2.7-4.7,9-4.6,9-4.6s9.4,1.4,13.3,6c2.5,3-1.4,8-1.4,8l-7.4-3.6
				l-6.3,1.7c0,0-1-3.1-2.1-3.1c-0.7,0-2.4,1.4-2.3,2.5c0,0.4,0.7,1.3,0.7,1.3L109.9,234.1z"/>
			<path class="st3" d="M81.3,300.4l-0.8-3.2l-61.2,37.5c0,0-0.2,0.3-3.9,0.3c-5.6,0-13.7-1.5-11.2-3.3
				c45.7-30.4,65.6-44.3,73.1-49.6L81.3,300.4z"/>
			<path class="st4" d="M101.2,312.7L67.3,334c-5,1.3-19.2,1.2-17.7-1.1L83.8,311l-2.6-10.7l-4-18.2c2.9-2,3.9-2.8,3.9-2.8h15.3
				L101.2,312.7z"/>
			<polygon class="st5" points="102.7,240.4 105.8,236.7 116.2,240.4 			"/>
			
				<rect x="117.5" y="227" transform="matrix(0.7131 -0.7011 0.7011 0.7131 -125.2414 150.013)" class="st1" width="6.3" height="2.1"/>
			<line class="st6" x1="77.2" y1="282.2" x2="76.6" y2="279.4"/>
			<polygon class="st7" points="67.5,288.2 95.1,239.6 168.9,240.4 165,249 118.2,256.4 98.7,294.9 			"/>
		</g>
		<path class="st5" d="M166.5,222.5c0,1.1-0.9,2-2,2s-2-0.9-2-2c0-1.1,0.9-2,2-2S166.5,221.3,166.5,222.5z"/>
		<path class="st5" d="M166.5,208.9c0,1.1-0.9,2-2,2s-2-0.9-2-2c0-1.1,0.9-2,2-2S166.5,207.8,166.5,208.9z"/>
		<path class="st5" d="M166.5,195.4c0,1.1-0.9,2-2,2s-2-0.9-2-2c0-1.1,0.9-2,2-2S166.5,194.3,166.5,195.4z"/>
		<path class="st5" d="M166.5,181.9c0,1.1-0.9,2-2,2s-2-0.9-2-2c0-1.1,0.9-2,2-2S166.5,180.7,166.5,181.9z"/>
		<path class="st5" d="M166.5,89c0,1.1-0.9,2-2,2s-2-0.9-2-2c0-1.1,0.9-2,2-2S166.5,87.8,166.5,89z"/>
		<path class="st5" d="M166.5,75.4c0,1.1-0.9,2-2,2s-2-0.9-2-2c0-1.1,0.9-2,2-2S166.5,74.3,166.5,75.4z"/>
		<path class="st5" d="M166.5,61.9c0,1.1-0.9,2-2,2s-2-0.9-2-2s0.9-2,2-2S166.5,60.8,166.5,61.9z"/>
		<g>
			<path class="st0" d="M232.1,132.2c0,14.4-11.7,26.1-26.1,26.1c-14.4,0-26.1-11.7-26.1-26.1c0-14.4,11.7-26.1,26.1-26.1
				C220.4,106.1,232.1,117.8,232.1,132.2z"/>
			<g>
				<path class="st8" d="M257.7,129.2c0-1.2-1-2.2-2.2-2.3l-2.3-0.2c-1.2-0.1-2.3-1.1-2.5-2.3c-0.5-2.6-1.1-5.2-2-7.6
					c-0.4-1.1,0-2.6,1-3.2l1.9-1.3c1-0.7,1.3-2.1,0.7-3.1l-3-5.3c-0.6-1-1.9-1.5-3-0.9l-2.1,1c-1.1,0.5-2.5,0.1-3.3-0.8
					c-1.7-2-3.6-3.9-5.6-5.6c-0.9-0.8-1.3-2.2-0.8-3.3l1-2.1c0.5-1.1,0.1-2.4-1-3l-5.3-3c-1-0.6-2.4-0.3-3.1,0.7l-1.3,1.9
					c-0.7,1-2.1,1.4-3.2,1c-2.4-0.9-5-1.6-7.6-2c-1.2-0.2-2.2-1.3-2.3-2.5l-0.2-2.3c-0.1-1.2-1.1-2.2-2.3-2.2H203
					c-1.2,0-2.2,1-2.3,2.2l-0.2,2.3c-0.1,1.2-1.1,2.3-2.3,2.5c-2.6,0.5-5.2,1.1-7.6,2c-1.1,0.4-2.6,0-3.2-1l-1.3-1.9
					c-0.7-1-2.1-1.3-3.1-0.7l-5.3,3c-1,0.6-1.5,2-1,3l1,2.1c0.5,1.1,0.1,2.5-0.8,3.3c-2,1.7-3.9,3.6-5.6,5.6
					c-0.8,0.9-2.2,1.3-3.3,0.8l-2.1-1c-1.1-0.5-2.4-0.1-3,0.9l-3,5.3c-0.6,1-0.3,2.4,0.7,3.1l1.9,1.3c1,0.7,1.4,2.1,1,3.2
					c-0.9,2.4-1.6,5-2,7.6c-0.2,1.2-1.3,2.2-2.5,2.3l-2.3,0.2c-1.2,0.1-2.2,1.1-2.2,2.3v6.1c0,1.2,1,2.2,2.2,2.3l2.3,0.2
					c1.2,0.1,2.3,1.1,2.5,2.3c0.5,2.6,1.1,5.2,2,7.6c0.4,1.1,0,2.6-1,3.2l-1.9,1.3c-1,0.7-1.3,2.1-0.7,3.1l3,5.3c0.6,1,2,1.5,3,1
					l2.1-1c1.1-0.5,2.5-0.1,3.3,0.8c1.7,2,3.6,3.9,5.6,5.6c0.9,0.8,1.3,2.2,0.8,3.3l-1,2.1c-0.5,1.1-0.1,2.4,1,3l5.3,3
					c1,0.6,2.4,0.3,3.1-0.7l1.3-1.9c0.7-1,2.1-1.4,3.3-1c2.4,0.9,5,1.6,7.6,2c1.2,0.2,2.2,1.3,2.3,2.5l0.2,2.3
					c0.1,1.2,1.1,2.2,2.3,2.2h6.1c1.2,0,2.2-1,2.3-2.2l0.2-2.3c0.1-1.2,1.1-2.3,2.3-2.5c2.6-0.5,5.2-1.1,7.6-2c1.1-0.4,2.6,0,3.2,1
					l1.3,1.9c0.7,1,2.1,1.3,3.1,0.7l5.3-3c1-0.6,1.5-2,1-3l-1-2.1c-0.5-1.1-0.1-2.5,0.8-3.3c2-1.7,3.9-3.6,5.6-5.6
					c0.8-0.9,2.2-1.3,3.3-0.8l2.1,1c1.1,0.5,2.4,0.1,3-1l3-5.3c0.6-1,0.3-2.4-0.7-3.1l-1.9-1.3c-1-0.7-1.4-2.1-1-3.2
					c0.9-2.4,1.6-5,2-7.6c0.2-1.2,1.3-2.2,2.5-2.3l2.3-0.2c1.2-0.1,2.2-1.1,2.2-2.3L257.7,129.2z M245.1,134.9
					c0,1.2-0.1,3.1-0.3,4.3c-0.4,2.2-1,4.4-1.7,6.5c-0.4,1.1-1.3,2.8-1.9,3.9l-2.6,4.4c-0.6,1-1.7,2.6-2.4,3.6
					c-1.5,1.8-3.1,3.4-4.9,4.9c-0.9,0.8-2.5,1.8-3.6,2.4l-4.5,2.6c-1,0.6-2.8,1.5-3.9,1.9c-2.1,0.7-4.2,1.3-6.4,1.7
					c-1.2,0.2-3.1,0.3-4.3,0.3h-5.4c-1.2,0-3.1-0.1-4.3-0.3c-2.2-0.4-4.3-1-6.4-1.7c-1.1-0.4-2.8-1.3-3.9-1.9l-4.5-2.6
					c-1-0.6-2.6-1.7-3.6-2.4c-1.8-1.5-3.4-3.1-4.9-4.9c-0.8-0.9-1.8-2.5-2.4-3.6l-2.6-4.5c-0.6-1-1.5-2.8-1.9-3.9
					c-0.7-2.1-1.3-4.2-1.7-6.4c-0.2-1.2-0.3-3.1-0.3-4.3l0-5.4c0-1.2,0.1-3.1,0.3-4.3c0.4-2.2,1-4.3,1.7-6.4
					c0.4-1.1,1.3-2.9,1.9-3.9l2.6-4.5c0.6-1,1.7-2.7,2.4-3.6c1.5-1.8,3.1-3.4,4.9-4.9c0.9-0.8,2.5-1.8,3.6-2.4l4.5-2.6
					c1-0.6,2.8-1.5,3.9-1.9c2.1-0.7,4.2-1.3,6.4-1.7c1.2-0.2,3.1-0.3,4.3-0.3h5.3c1.2,0,3.1,0.1,4.3,0.3c2.2,0.4,4.4,1,6.4,1.7
					c1.1,0.4,2.8,1.3,3.9,1.9l4.5,2.6c1,0.6,2.7,1.7,3.6,2.4c1.8,1.5,3.4,3.1,4.9,4.9c0.8,0.9,1.8,2.5,2.4,3.6l2.6,4.5
					c0.6,1,1.5,2.8,1.9,3.9c0.8,2.1,1.3,4.2,1.7,6.4c0.2,1.2,0.3,3.1,0.3,4.3V134.9z"/>
				<path class="st8" d="M206.2,90.6H206c-23,0-41.6,18.6-41.6,41.6c0,22.9,18.6,41.6,41.6,41.6h0.1c22.9-0.1,41.4-18.7,41.4-41.6
					C247.6,109.3,229.1,90.7,206.2,90.6z M244.8,139.2c-0.4,2.2-1,4.4-1.7,6.5c-0.4,1.1-1.3,2.8-1.9,3.9l-2.6,4.4
					c-0.6,1-1.7,2.6-2.4,3.6c-1.5,1.8-3.1,3.4-4.9,4.9c-0.9,0.8-2.5,1.8-3.6,2.4l-4.5,2.6c-1,0.6-2.8,1.5-3.9,1.9
					c-2.1,0.7-4.2,1.3-6.4,1.7c-1.2,0.2-3.1,0.3-4.3,0.3h-5.4c-1.2,0-3.1-0.1-4.3-0.3c-2.2-0.4-4.3-1-6.4-1.7
					c-1.1-0.4-2.8-1.3-3.9-1.9l-4.5-2.6c-1-0.6-2.6-1.7-3.6-2.4c-1.8-1.5-3.4-3.1-4.9-4.9c-0.8-0.9-1.8-2.5-2.4-3.6l-2.6-4.5
					c-0.6-1-1.5-2.8-1.9-3.9c-0.7-2.1-1.3-4.2-1.7-6.4c-0.2-1.2-0.3-3.1-0.3-4.3l0-5.4c0-1.2,0.1-3.1,0.3-4.3c0.4-2.2,1-4.3,1.7-6.4
					c0.4-1.1,1.3-2.9,1.9-3.9l2.6-4.5c0.6-1,1.7-2.7,2.4-3.6c1.5-1.8,3.1-3.4,4.9-4.9c0.9-0.8,2.5-1.8,3.6-2.4l4.5-2.6
					c1-0.6,2.8-1.5,3.9-1.9c2.1-0.7,4.2-1.3,6.4-1.7c1.2-0.2,3.1-0.3,4.3-0.3h5.3c1.2,0,3.1,0.1,4.3,0.3c2.2,0.4,4.4,1,6.4,1.7
					c1.1,0.4,2.8,1.3,3.9,1.9l4.5,2.6c1,0.6,2.7,1.7,3.6,2.4c1.8,1.5,3.4,3.1,4.9,4.9c0.8,0.9,1.8,2.5,2.4,3.6l2.6,4.5
					c0.6,1,1.5,2.8,1.9,3.9c0.8,2.1,1.3,4.2,1.7,6.4c0.2,1.2,0.3,3.1,0.3,4.3v5.3C245.1,136.1,245,138,244.8,139.2z"/>
			</g>
			<g>
				<rect x="186.5" y="127.6" class="st4" width="11.6" height="13.8"/>
				<rect x="213.7" y="123" class="st4" width="11.6" height="18.4"/>
				<rect x="200.2" y="132.8" class="st4" width="11.6" height="8.6"/>
				<rect x="186.5" y="137.9" class="st9" width="11.6" height="3.5"/>
				<rect x="200.2" y="139.6" class="st9" width="11.6" height="1.8"/>
				<rect x="213.7" y="132.8" class="st9" width="11.6" height="8.6"/>
			</g>
		</g>
		<g>
			<circle class="st0" cx="273.2" cy="187.2" r="15.3"/>
			<path class="st9" d="M311.9,180.4l-2.3-7.4c-0.3-0.8-1.1-1.3-2-1.1l-3.9,0.9c-0.8,0.2-1.8-0.3-2.3-1c-1.8-3-4-5.7-6.6-8
				c-0.7-0.6-0.9-1.6-0.6-2.4l1.6-3.7c0.3-0.8,0-1.8-0.8-2.2l-6.9-3.6c-0.8-0.4-1.8-0.1-2.2,0.6l-2.2,3.4c-0.5,0.7-1.5,1.1-2.3,0.9
				c-3.3-0.9-6.8-1.2-10.3-0.9c-0.9,0.1-1.8-0.5-2.1-1.3l-1.5-3.7c-0.3-0.8-1.2-1.2-2.1-1L258,152c-0.8,0.3-1.3,1.1-1.1,2l0.9,3.9
				c0.2,0.8-0.3,1.8-1,2.3c-3,1.8-5.7,4-8,6.6c-0.6,0.7-1.6,0.9-2.4,0.6l-3.7-1.6c-0.8-0.3-1.8,0-2.2,0.8l-3.6,6.9
				c-0.4,0.8-0.1,1.7,0.6,2.2l3.4,2.2c0.7,0.5,1.1,1.5,0.9,2.3c-0.9,3.3-1.2,6.8-1,10.3c0.1,0.9-0.5,1.8-1.3,2.1l-3.7,1.5
				c-0.8,0.3-1.2,1.2-1,2.1l2.3,7.4c0.3,0.8,1.1,1.3,2,1.2l3.9-0.9c0.8-0.2,1.8,0.3,2.3,1c1.8,3,4,5.7,6.6,8
				c0.6,0.6,0.9,1.6,0.6,2.4l-1.6,3.7c-0.3,0.8,0,1.8,0.8,2.2l6.9,3.6c0.8,0.4,1.7,0.1,2.2-0.6l2.2-3.4c0.5-0.7,1.5-1.1,2.3-0.9
				c3.3,0.9,6.8,1.2,10.3,1c0.9-0.1,1.8,0.5,2.1,1.3l1.5,3.7c0.3,0.8,1.2,1.2,2.1,1l7.4-2.3c0.8-0.3,1.3-1.1,1.1-2l-0.9-3.9
				c-0.2-0.8,0.3-1.8,1-2.3c3-1.8,5.7-4,8-6.6c0.6-0.6,1.6-0.9,2.4-0.6l3.7,1.6c0.8,0.3,1.8,0,2.2-0.8l3.6-6.9
				c0.4-0.8,0.1-1.7-0.6-2.2l-3.4-2.2c-0.7-0.5-1.1-1.5-0.9-2.3c0.8-3.3,1.2-6.8,0.9-10.3c-0.1-0.9,0.5-1.8,1.3-2.1l3.7-1.5
				C311.7,182.1,312.1,181.2,311.9,180.4z M249.5,195.7c-4.1-13.1,3.3-27.2,16.4-31.3c13.1-4.1,27.2,3.3,31.3,16.4
				c4.1,13.2-3.3,27.2-16.4,31.3C267.6,216.2,253.6,208.9,249.5,195.7z"/>
			<path class="st10" d="M282.3,183c-0.6-0.6-1.7-0.6-2.3,0l-8,8l-5.3-5.3c-0.6-0.6-1.7-0.6-2.3,0c-0.6,0.6-0.6,1.7,0,2.3l6.4,6.4
				c0.3,0.3,0.8,0.5,1.2,0.5c0.4,0,0.9-0.1,1.2-0.5l9.1-9.1C282.9,184.6,282.9,183.6,282.3,183z"/>
		</g>
		<g>
			<rect x="212.7" y="258.7" class="st4" width="31.9" height="41.7"/>
			<path class="st10" d="M293.2,284.4c0.3-1.4-0.7-2.9-2.1-3.3l-2.8-0.7c-1.4-0.4-2.5-1.9-2.5-3.3c0-3.3-0.3-6.5-0.8-9.6
				c-0.3-1.4,0.6-3.1,1.9-3.7l2.6-1.2c1.3-0.6,2-2.2,1.5-3.6l-2.6-7c-0.5-1.4-2.1-2.2-3.5-1.8l-2.8,0.8c-1.4,0.4-3.1-0.4-3.8-1.6
				c-1.6-2.8-3.5-5.4-5.5-7.9c-0.9-1.1-1.1-3-0.2-4.2l1.6-2.3c0.8-1.2,0.6-2.9-0.5-3.9l-5.7-4.8c-1.1-0.9-2.9-0.9-3.9,0.2l-2,2
				c-1,1-2.9,1.2-4.1,0.5c-2.8-1.6-5.7-2.9-8.8-4.1c-1.4-0.5-2.4-2-2.3-3.5l0.2-2.8c0.1-1.5-0.9-2.8-2.4-3.1l-7.3-1.3
				c-1.4-0.3-2.9,0.7-3.3,2.1l-0.7,2.8c-0.4,1.4-1.9,2.5-3.3,2.5c-3.3,0-6.5,0.3-9.6,0.8c-1.4,0.3-3.1-0.5-3.7-1.9l-1.2-2.6
				c-0.6-1.3-2.2-2-3.6-1.5l-7,2.6c-1.4,0.5-2.2,2.1-1.8,3.5l0.7,2.8c0.4,1.4-0.4,3.1-1.6,3.8c-2.8,1.6-5.4,3.5-7.9,5.5
				c-1.1,0.9-3,1.1-4.1,0.2l-2.3-1.6c-1.2-0.8-2.9-0.6-3.9,0.5l-4.8,5.7c-0.9,1.1-0.9,2.9,0.2,3.9l2,2c1,1,1.2,2.9,0.5,4.1
				c-1.6,2.8-3,5.7-4.1,8.8c-0.5,1.4-2,2.4-3.5,2.3l-2.8-0.3c-1.5-0.1-2.8,0.9-3.1,2.4l-1.3,7.3c-0.3,1.4,0.7,2.9,2.1,3.3l2.8,0.7
				c1.4,0.4,2.5,1.9,2.5,3.3c0,3.3,0.3,6.5,0.9,9.6c0.3,1.4-0.6,3.1-1.9,3.7l-2.6,1.2c-1.3,0.6-2,2.2-1.5,3.6l2.6,7
				c0.5,1.4,2.1,2.2,3.5,1.8l2.8-0.7c1.4-0.4,3.1,0.4,3.8,1.6c1.6,2.8,3.5,5.4,5.5,7.9c0.9,1.1,1.1,3,0.2,4.1l-1.6,2.3
				c-0.8,1.2-0.6,2.9,0.5,3.9l5.7,4.8c1.1,0.9,2.9,0.9,3.9-0.2l2-2c1-1,2.9-1.2,4.1-0.5c2.8,1.6,5.7,3,8.8,4.1
				c1.4,0.5,2.4,2,2.3,3.5l-0.3,2.8c-0.1,1.5,0.9,2.8,2.4,3.1l7.3,1.3c1.4,0.3,2.9-0.7,3.3-2.1l0.7-2.7c0.4-1.4,1.9-2.5,3.3-2.5
				c3.3,0,6.5-0.3,9.6-0.8c1.4-0.3,3.1,0.5,3.7,1.9l1.2,2.6c0.6,1.3,2.2,2,3.6,1.5l7-2.6c1.4-0.5,2.2-2.1,1.8-3.5l-0.7-2.7
				c-0.4-1.4,0.4-3.1,1.6-3.8c2.8-1.6,5.4-3.5,7.9-5.5c1.1-0.9,3-1.1,4.1-0.2l2.3,1.6c1.2,0.8,2.9,0.6,3.9-0.5l4.8-5.7
				c0.9-1.1,0.9-2.9-0.2-3.9l-2-2c-1-1-1.2-2.9-0.5-4.1c1.6-2.8,3-5.7,4.1-8.7c0.5-1.4,2-2.4,3.5-2.3l2.8,0.3
				c1.5,0.1,2.8-0.9,3.1-2.4L293.2,284.4z M223.8,313.5c-20-3.5-33.5-22.6-29.9-42.6c3.5-20,22.6-33.5,42.6-29.9
				c20,3.5,33.5,22.6,29.9,42.6C262.9,303.5,243.8,317,223.8,313.5z"/>
			<rect x="214.5" y="261.1" class="st5" width="28.4" height="37.7"/>
			<rect x="218.3" y="267.1" class="st11" width="20.8" height="1.2"/>
			<rect x="218.3" y="272.6" class="st11" width="20.8" height="1.2"/>
			<rect x="218.3" y="278.1" class="st11" width="20.8" height="1.2"/>
			<rect x="218.3" y="283.6" class="st11" width="20.8" height="1.2"/>
			<rect x="218.3" y="289.1" class="st11" width="20.8" height="1.2"/>
			<polyline class="st12" points="233.5,292.7 236.1,295.3 239.3,292.1 			"/>
			<path class="st4" d="M236.2,261.1c0-0.4-0.3-0.6-0.6-0.6h-14c-0.4,0-0.6,0.3-0.6,0.6l0,0c0,0.4,0.3,0.6,0.6,0.6h14
				C236,261.7,236.2,261.5,236.2,261.1L236.2,261.1z"/>
		</g>
	</g>
	<g>
		<g>
			
				<rect x="220.6" y="71.3" transform="matrix(-1 -1.224647e-16 1.224647e-16 -1 594.1079 217.0951)" class="st13" width="152.8" height="74.5"/>
			<path class="st14" d="M228.2,78.6v59.9h137.8V78.6H228.2z M346.9,131h-38.7c6.1-4.5,10.2-12.8,10.2-22c0-9.8-4.6-18.4-11.4-22.9
				h39.8c0,6,5.6,13.6,11.6,13.6v22C352.5,121.6,346.9,125,346.9,131z M235.7,99.7c6,0,11.4-7.6,11.4-13.6h38.4
				c-6.8,4.5-11.4,13-11.4,22.9c0,9.3,4.1,17.5,10.2,22H247c0-6-5.4-9.4-11.4-9.4V99.7z"/>
			<g>
				<path class="st5" d="M304.2,101.6c-0.2-0.2-0.5-0.5-1-0.8c-0.4-0.3-0.9-0.5-1.5-0.8c-0.6-0.3-1.2-0.5-1.8-0.7
					c-0.7-0.2-1.3-0.3-2-0.3v7.5l0.7,0.1c1.3,0.3,2.5,0.7,3.5,1.1c1.1,0.4,1.9,0.9,2.7,1.4c0.7,0.6,1.3,1.2,1.7,2
					c0.4,0.8,0.6,1.8,0.6,3c0,1.3-0.2,2.4-0.7,3.3c-0.5,0.9-1.1,1.7-1.9,2.3c-0.8,0.6-1.8,1.1-2.8,1.4c-1.1,0.3-2.2,0.5-3.5,0.5v3.8
					h-1.9v-3.9c-1.7-0.1-3.4-0.5-5-1c-1.6-0.6-3-1.4-4.3-2.4l1.8-3.5c0.3,0.3,0.7,0.6,1.2,0.9c0.5,0.3,1.1,0.7,1.8,1
					c0.7,0.3,1.4,0.6,2.2,0.8c0.8,0.2,1.6,0.4,2.5,0.5v-7.5c-0.1,0-0.3-0.1-0.5-0.1c-0.2,0-0.3-0.1-0.5-0.1
					c-1.3-0.3-2.4-0.7-3.4-1.1c-1-0.4-1.7-0.8-2.4-1.4c-0.6-0.5-1.1-1.2-1.4-1.9c-0.3-0.7-0.5-1.6-0.5-2.6c0-1.2,0.2-2.2,0.6-3.2
					c0.4-0.9,1-1.7,1.7-2.4c0.7-0.7,1.6-1.2,2.6-1.6c1-0.4,2.1-0.6,3.3-0.7v-3.7h1.9v3.7c1.6,0.1,3,0.4,4.3,0.9
					c1.3,0.5,2.5,1.2,3.5,1.9L304.2,101.6z M292.3,102.6c0,1,0.4,1.8,1.1,2.3c0.7,0.5,1.8,1,3.2,1.3V99c-1.5,0.1-2.6,0.4-3.3,1
					C292.6,100.7,292.3,101.5,292.3,102.6z M302.7,114.6c0-1.1-0.4-1.9-1.3-2.4c-0.8-0.5-2-1-3.6-1.5v7.2c1.5,0,2.7-0.3,3.6-0.9
					C302.3,116.5,302.7,115.6,302.7,114.6z"/>
			</g>
			<path class="st5" d="M333.1,108.5c0,3.2,2.6,5.9,5.9,5.9c3.2,0,5.9-2.6,5.9-5.9c0-3.2-2.6-5.9-5.9-5.9
				C335.8,102.7,333.1,105.3,333.1,108.5z"/>
			<path class="st5" d="M261,108.5c0,3.2-2.6,5.9-5.9,5.9c-3.2,0-5.9-2.6-5.9-5.9c0-3.2,2.6-5.9,5.9-5.9
				C258.4,102.7,261,105.3,261,108.5z"/>
		</g>
		<g>
			
				<rect x="243.5" y="90.2" transform="matrix(-1 -1.224647e-16 1.224647e-16 -1 639.8354 254.9885)" class="st13" width="152.8" height="74.5"/>
			<path class="st14" d="M251,97.5v59.9h137.8V97.5H251z M369.7,150h-38.7c6.1-4.5,10.2-12.8,10.2-22c0-9.8-4.6-18.4-11.4-22.9h39.8
				c0,6,5.6,13.6,11.6,13.6v22C375.3,140.6,369.7,144,369.7,150z M258.5,118.6c6,0,11.4-7.6,11.4-13.6h38.4
				c-6.8,4.5-11.4,13-11.4,22.9c0,9.3,4.1,17.5,10.2,22h-37.2c0-6-5.4-9.4-11.4-9.4V118.6z"/>
			<g>
				<path class="st5" d="M327.1,120.6c-0.2-0.2-0.5-0.5-1-0.8c-0.4-0.3-0.9-0.5-1.5-0.8c-0.6-0.3-1.2-0.5-1.8-0.7
					c-0.7-0.2-1.3-0.3-2-0.3v7.5l0.7,0.1c1.3,0.3,2.5,0.7,3.5,1.1c1.1,0.4,1.9,0.9,2.7,1.4c0.7,0.6,1.3,1.2,1.7,2
					c0.4,0.8,0.6,1.8,0.6,3c0,1.3-0.2,2.4-0.7,3.3c-0.5,0.9-1.1,1.7-1.9,2.3c-0.8,0.6-1.8,1.1-2.8,1.4c-1.1,0.3-2.2,0.5-3.5,0.5v3.8
					h-1.9v-3.9c-1.7-0.1-3.4-0.5-5-1c-1.6-0.6-3-1.4-4.3-2.4l1.8-3.5c0.3,0.3,0.7,0.6,1.2,0.9c0.5,0.3,1.1,0.7,1.8,1
					c0.7,0.3,1.4,0.6,2.2,0.8c0.8,0.2,1.6,0.4,2.5,0.5v-7.5c-0.1,0-0.3-0.1-0.5-0.1c-0.2,0-0.3-0.1-0.5-0.1
					c-1.3-0.3-2.4-0.7-3.4-1.1c-1-0.4-1.7-0.8-2.4-1.4c-0.6-0.5-1.1-1.2-1.4-1.9c-0.3-0.7-0.5-1.6-0.5-2.6c0-1.2,0.2-2.2,0.6-3.2
					c0.4-0.9,1-1.7,1.7-2.4c0.7-0.7,1.6-1.2,2.6-1.6c1-0.4,2.1-0.6,3.3-0.7v-3.7h1.9v3.7c1.6,0.1,3,0.4,4.3,0.9
					c1.3,0.5,2.5,1.2,3.5,1.9L327.1,120.6z M315.1,121.5c0,1,0.4,1.8,1.1,2.3c0.7,0.5,1.8,1,3.2,1.3V118c-1.5,0.1-2.6,0.4-3.3,1
					C315.5,119.6,315.1,120.5,315.1,121.5z M325.6,133.5c0-1.1-0.4-1.9-1.3-2.4c-0.8-0.5-2-1-3.6-1.5v7.2c1.5,0,2.7-0.3,3.6-0.9
					C325.2,135.4,325.6,134.6,325.6,133.5z"/>
			</g>
			<path class="st5" d="M356,127.5c0,3.2,2.6,5.9,5.9,5.9c3.2,0,5.9-2.6,5.9-5.9c0-3.2-2.6-5.9-5.9-5.9
				C358.6,121.6,356,124.3,356,127.5z"/>
			<path class="st5" d="M283.8,127.5c0,3.2-2.6,5.9-5.9,5.9c-3.2,0-5.9-2.6-5.9-5.9c0-3.2,2.6-5.9,5.9-5.9
				C281.2,121.6,283.8,124.3,283.8,127.5z"/>
		</g>
	</g>
</g>
</svg>
