<?xml version="1.0" encoding="utf-8"?>
<!-- Generator: Adobe Illustrator 22.1.0, SVG Export Plug-In . SVG Version: 6.00 Build 0)  -->
<svg version="1.1" id="objects" xmlns="http://www.w3.org/2000/svg" xmlns:xlink="http://www.w3.org/1999/xlink" x="0px" y="0px"
	 viewBox="0 0 400 400" style="enable-background:new 0 0 400 400;" xml:space="preserve">
<style type="text/css">
	.st0{fill:#45ACE5;}
	.st1{fill:none;}
	.st2{fill:#F6F6F6;}
	.st3{fill:#DADADA;}
	.st4{fill:#1D1D1B;}
	.st5{fill:#9BD83A;}
	.st6{fill:#9D9D9C;}
	.st7{fill:#A07648;}
	.st8{fill:#BC8C58;}
	.st9{fill:#CA9E67;}
	.st10{fill:#F9F09B;}
	.st11{fill:#352F2D;}
	.st12{fill:#8EBF2E;}
	.st13{fill:#F73161;}
</style>
<g>
	<g id="Product_List">
		<g id="List">
			<path class="st0" d="M379.7,348.8c0,7-5.1,12.6-11.4,12.6H151.6c-6.3,0-11.4-5.7-11.4-12.6V45.9c0-7,5.1-12.6,11.4-12.6h216.6
				c6.3,0,11.4,5.6,11.4,12.6V348.8z"/>
			<polygon class="st1" points="323.1,67.6 192.4,67.6 192.4,39.5 189.2,39.5 189.2,75.7 327,75.7 327,39.5 323.1,39.5 			"/>
			<path class="st1" d="M256.2,9.4c-15.7-0.7-20.5,9.4-21.9,14.8h41.5C274.4,19.1,269.8,10,256.2,9.4z"/>
			<g>
				<polygon class="st2" points="166.3,57.6 166.3,326.6 355.6,326.6 355.6,107.2 281.6,57.6 				"/>
				<path class="st3" d="M355.6,107.2l-74.1-49.6v49.6c0,0,14.4-4.8,34.1-4.8C339.1,102.5,355.6,107.2,355.6,107.2z"/>
			</g>
			<path class="st4" d="M323.1,35.2v-11h-42.5c-1.5-5.9-6.7-18.7-24.2-19.4C236.6,4,231.1,18,229.6,24.2h-37.2v11h-7.6V80h146.5
				V35.2H323.1z M301.2,39.7c3.4,0,6.2,2.8,6.2,6.2c0,3.4-2.8,6.2-6.2,6.2c-3.4,0-6.2-2.8-6.2-6.2C295,42.4,297.8,39.7,301.2,39.7z
				 M256.2,9.4c13.6,0.6,18.1,9.7,19.6,14.8h-41.5C235.8,18.8,240.5,8.8,256.2,9.4z M212,39.7c3.4,0,6.2,2.8,6.2,6.2
				c0,3.4-2.8,6.2-6.2,6.2c-3.4,0-6.2-2.8-6.2-6.2C205.9,42.4,208.6,39.7,212,39.7z M327,75.7H189.2V39.5h3.3v28.1h130.7V39.5h3.9
				V75.7z"/>
			<g>
				<rect x="215.5" y="80" class="st5" width="66.1" height="8.7"/>
				<rect x="215.5" y="92" class="st5" width="66.1" height="3.7"/>
				<rect x="215.5" y="98.1" class="st5" width="66.1" height="3.7"/>
			</g>
			<path class="st6" d="M213.2,133.7c0,7.8-6.4,14.2-14.2,14.2c-7.8,0-14.2-6.4-14.2-14.2s6.4-14.2,14.2-14.2
				C206.9,119.6,213.2,125.9,213.2,133.7z"/>
			<circle class="st6" cx="199.1" cy="180.1" r="14.2"/>
			<path class="st6" d="M213.2,226.4c0,7.8-6.4,14.2-14.2,14.2c-7.8,0-14.2-6.4-14.2-14.2c0-7.8,6.4-14.2,14.2-14.2
				C206.9,212.2,213.2,218.6,213.2,226.4z"/>
			<path class="st6" d="M213.2,278.5c0,7.8-6.4,14.2-14.2,14.2c-7.8,0-14.2-6.4-14.2-14.2c0-7.8,6.4-14.2,14.2-14.2
				C206.9,264.3,213.2,270.7,213.2,278.5z"/>
			<g>
				<rect x="225.3" y="123" class="st5" width="106" height="13.9"/>
				<rect x="225.3" y="140.4" class="st5" width="106" height="4.6"/>
			</g>
			<g>
				<rect x="225.3" y="169.1" class="st5" width="106" height="13.9"/>
				<rect x="225.3" y="186.4" class="st5" width="106" height="4.6"/>
			</g>
			<g>
				<rect x="225.3" y="220.6" class="st5" width="106" height="13.9"/>
				<rect x="225.3" y="238" class="st5" width="106" height="4.6"/>
			</g>
			<g>
				<rect x="225.3" y="267.5" class="st5" width="106" height="13.9"/>
				<rect x="225.3" y="284.9" class="st5" width="106" height="4.6"/>
			</g>
		</g>
		<g id="Box">
			<g>
				<polygon class="st7" points="99.3,259.3 174.1,280.6 101.5,353.2 28.9,280.6 				"/>
				<polygon class="st8" points="101.7,395.2 28.9,369 28.9,280.6 101.7,306.9 				"/>
				<polygon class="st9" points="101.7,395.2 174.6,369 174.6,280.6 101.7,306.9 				"/>
				<polygon class="st10" points="149.1,368.3 148.9,289.9 118.4,280.7 144.5,272.2 129,267.7 102.3,275.9 73.4,267.1 58.3,271.7 
					86.4,280.7 55.6,290.1 55.6,368.3 71.6,374.1 71.6,295.9 102.6,285.8 133.1,295.6 133.1,374.1 				"/>
			</g>
			<g>
				<polygon class="st7" points="90.8,166.7 165.5,188 92.9,260.6 20.3,188 				"/>
				<polygon class="st8" points="93.2,302.6 20.3,276.4 20.3,188 93.2,214.2 				"/>
				<polygon class="st9" points="93.2,302.6 166,276.4 166,188 93.2,214.2 				"/>
				<polygon class="st10" points="140.5,275.7 140.3,197.3 109.8,188.1 136,179.6 120.4,175.1 93.8,183.2 64.8,174.5 49.7,179.1 
					77.9,188.1 47,197.5 47,275.7 63.1,281.5 63.1,203.3 94,193.2 124.5,203 124.5,281.5 				"/>
			</g>
		</g>
		<g id="Pen">
			<path class="st11" d="M114.6,90c-3.9,1.7-8.4-0.1-10.1-4l-8-18.7c-1.7-3.9,0.1-8.4,4-10.1l4.9-2.1c3.9-1.7,8.4,0.1,10.1,4l8,18.7
				c1.7,3.9-0.1,8.4-4.1,10.1L114.6,90z"/>
			<path class="st12" d="M192.7,231.5c-0.1-0.8-0.2-1.7-0.6-2.5l-58-135.6l-3.4-8l-3-7c-0.1-0.1-0.1-0.3-0.2-0.4
				c-1.8-3.6-6.1-5.3-9.9-3.6L106,79.2c-3.9,1.7-5.7,6.2-4.1,10.1l3,7l3.4,8l58,135.6c0.4,0.9,0.9,1.6,1.5,2.3
				c0.2,0.3,0.5,0.6,0.7,0.9c6,7.5,16.4,10.6,18.5,9.7C189.7,251.7,194.7,241.4,192.7,231.5z"/>
			<path class="st11" d="M191.2,261.1c-1.3,0.6-2.8,0-3.4-1.4l-5.2-12.2c-0.6-1.3,0-2.8,1.3-3.4l0,0c1.3-0.6,2.8,0,3.4,1.4l5.2,12.2
				C193.1,259.1,192.5,260.6,191.2,261.1L191.2,261.1z"/>
			<path class="st5" d="M187.1,252.8c2.6-1.1,7.6-11.4,5.6-21.3c-0.1-0.8-0.2-1.7-0.6-2.5l-58-135.6l-3.4-8l-3-7
				c-0.1-0.1-0.1-0.3-0.2-0.4l41.2,165.2C174.6,250.7,185,253.7,187.1,252.8z"/>
			
				<rect x="105.6" y="90.5" transform="matrix(0.9194 -0.3933 0.3933 0.9194 -27.6835 54.6571)" class="st11" width="27.9" height="8.7"/>
			<path class="st11" d="M141.7,138.7c-1.6,0.7-3.5-0.1-4.1-1.7l-22.1-51.6c-0.7-1.6,0.1-3.5,1.7-4.1l0,0c1.6-0.7,3.5,0.1,4.1,1.7
				l22.1,51.6C144.1,136.2,143.3,138,141.7,138.7L141.7,138.7z"/>
		</g>
	</g>
	<g>
		<g>
			<path class="st13" d="M212.5,192.7c-1.2,0-2.4-0.5-3.3-1.4l-26.9-26.9c-1.8-1.8-1.8-4.7,0-6.6c1.8-1.8,4.7-1.8,6.6,0l26.9,26.9
				c1.8,1.8,1.8,4.7,0,6.6C214.9,192.3,213.7,192.7,212.5,192.7z"/>
		</g>
		<g>
			<path class="st13" d="M185.6,192.7c-1.2,0-2.4-0.5-3.3-1.4c-1.8-1.8-1.8-4.7,0-6.6l26.9-26.9c1.8-1.8,4.7-1.8,6.6,0
				c1.8,1.8,1.8,4.7,0,6.6l-26.9,26.9C188,192.3,186.8,192.7,185.6,192.7z"/>
		</g>
	</g>
	<g>
		<g>
			<path class="st13" d="M212.5,146.8c-1.2,0-2.4-0.5-3.3-1.4l-26.9-26.9c-1.8-1.8-1.8-4.7,0-6.6c1.8-1.8,4.7-1.8,6.6,0l26.9,26.9
				c1.8,1.8,1.8,4.7,0,6.6C214.9,146.4,213.7,146.8,212.5,146.8z"/>
		</g>
		<g>
			<path class="st13" d="M185.6,146.8c-1.2,0-2.4-0.5-3.3-1.4c-1.8-1.8-1.8-4.7,0-6.6l26.9-26.9c1.8-1.8,4.7-1.8,6.6,0
				c1.8,1.8,1.8,4.7,0,6.6l-26.9,26.9C188,146.4,186.8,146.8,185.6,146.8z"/>
		</g>
	</g>
</g>
</svg>
