<?xml version="1.0" encoding="utf-8"?>
<!-- Generator: Adobe Illustrator 22.1.0, SVG Export Plug-In . SVG Version: 6.00 Build 0)  -->
<svg version="1.1" id="objects" xmlns="http://www.w3.org/2000/svg" xmlns:xlink="http://www.w3.org/1999/xlink" x="0px" y="0px"
	 viewBox="0 0 400 400" style="enable-background:new 0 0 400 400;" xml:space="preserve">
<style type="text/css">
	.st0{fill:#BC9673;}
	.st1{fill:#ECB98C;}
	.st2{fill:#221F21;}
	.st3{fill:#FFFFFF;}
	.st4{fill:#184F78;}
	.st5{fill:#9A9A9A;}
	.st6{fill:#41424D;}
	.st7{fill:#35363D;}
	.st8{fill:#F6E2C9;}
	.st9{fill:#CECECE;}
	.st10{fill:#F9C68F;}
	.st11{fill:#282928;}
	.st12{fill:#E0BA94;}
	.st13{fill:#FBBF32;}
	.st14{fill:#F9A823;}
	.st15{fill:#E5E5E9;}
	.st16{fill:#CE5852;}
	.st17{fill:#8BCB0A;}
	.st18{fill:#419B19;}
</style>
<g>
	<path class="st0" d="M133.7,192.3c-0.7,0.5-9.6,21.7-30.5,37.2l0.7-36.8L133.7,192.3z"/>
	<path class="st1" d="M81.4,234.8l8.6-37.9c0,0,0.8-2.9,2.6-6c1.8-3.2,4.8-5.7,8.2-6.9l45.9-16.5l-11.3,24l-23.3,7.1
		c0,0-3.1,1-2.8,8.1l-0.4,18.9c-0.2,6.6,3.9,12.7,10.2,14.9c1.1,0.4,2.3,0.7,3.5,0.7l-20.2,27.3l-15.2-16.2
		C87.4,252.4,79.3,244.6,81.4,234.8z"/>
	<path class="st2" d="M308.8,323.7H133.5c-3.7,0-6.8-3-6.8-6.8V76.7c0-3.7,3-6.8,6.8-6.8h175.3c3.7,0,6.8,3,6.8,6.8V317
		C315.6,320.7,312.6,323.7,308.8,323.7z"/>
	<path class="st3" d="M290.4,311.5H152.5c-7.3,0-13.2-5.9-13.2-13.2V95.3c0-7.3,5.9-13.2,13.2-13.2h137.9c7.3,0,13.2,5.9,13.2,13.2
		v203.1C303.6,305.6,297.7,311.5,290.4,311.5z"/>
	<path class="st4" d="M235.6,64.9c0,0,0.2-10.8-11.4-13.4c-2.2-0.5-4.6-0.5-6.8,0C205.8,54.1,206,64.9,206,64.9
		c-29.5-1.6-30.1,21.6-30.1,21.6h89.7C265.7,86.5,265.1,63.3,235.6,64.9z M221.2,69.6c-3.5,0-6.4-2.9-6.4-6.4s2.9-6.4,6.4-6.4
		s6.4,2.9,6.4,6.4S224.7,69.6,221.2,69.6z"/>
	<rect x="155.9" y="109.3" class="st5" width="129.9" height="6.2"/>
	<rect x="155.9" y="126.9" class="st5" width="129.9" height="6.2"/>
	<rect x="155.9" y="144.4" class="st5" width="129.9" height="6.2"/>
	<rect x="155.9" y="162" class="st5" width="129.9" height="6.2"/>
	<rect x="155.9" y="179.6" class="st5" width="129.9" height="6.2"/>
	<rect x="155.9" y="197.2" class="st5" width="129.9" height="6.2"/>
	<rect x="155.9" y="214.8" class="st5" width="129.9" height="6.2"/>
	<rect x="155.9" y="232.4" class="st5" width="129.9" height="6.2"/>
	<rect x="155.9" y="249.9" class="st5" width="129.9" height="6.2"/>
	<rect x="155.9" y="267.5" class="st5" width="129.9" height="6.2"/>
	<rect x="155.9" y="285.1" class="st5" width="129.9" height="6.2"/>
	<path class="st6" d="M148.5,386.1h-28.2c-8.9,0-16.2-7.2-16.2-16.2l0-54.9l28.1,0l4.2,0l28.1,0h0.1l0,55
		C164.6,378.9,157.4,386.1,148.5,386.1z"/>
	<path class="st7" d="M120.3,386.1L120.3,386.1c-8.9,0-16.2-7.2-16.2-16.2l0-55l32.3,0v0l0,55C136.4,378.9,129.2,386.1,120.3,386.1z
		"/>
	<path class="st1" d="M135.2,228.7c1-2.4,4.1-12.1,3.7-21.1l-0.6-18.5c0,0,0.1-6.2,5.8-8.9c0.3-0.1,0.5-0.2,0.8-0.3
		c1.6-0.4,7.5-1.4,11.9,2.7c0.5,0.5,0.9,1,1.1,1.7c0.6,1.4,1.3,4.5,1.4,10.3l2,50.3c0,0-0.1,12.7-2.6,21.3c0,0.1-0.1,0.3-0.1,0.4
		c-0.3,1.3-1.8,8.8-3.3,12.3c-0.3,0.6-0.4,1.2-0.4,1.8l0,7.6c0,0.1-0.1,0.2-0.2,0.2h-40.4V284c0-1.1-0.4-2.1-1.1-2.9l-10.7-12.4
		l18.7-25.3c0.4-0.6,0.9-1.3,1.4-1.9C123,240.9,128.6,244.8,135.2,228.7z"/>
	<path class="st8" d="M154.4,195.4l-10.2-0.2c-0.9,0-1.6-0.7-1.5-1.6l0.2-5.6c0,0,0.4-4.4,6.1-5c0,0,4.7-0.3,6.8,3.8
		c0,0,0.7,1.7,0.3,5.3l0,1.8C156,194.7,155.2,195.4,154.4,195.4z"/>
	<path class="st9" d="M106.9,316.5l54.9-0.1c3.5,0,6.4-2.9,6.4-6.5l0-17.2c0-3.5-2.9-6.4-6.5-6.4l-54.9,0.1c-3.5,0-6.4,2.9-6.4,6.5
		l0,17.2C100.4,313.6,103.3,316.5,106.9,316.5z"/>
	<path class="st10" d="M240.9,140.3c0,0-22.4-2.3-22.9-1.4c-0.5,0.9,15.1,17.9,15.1,17.9l6.5-6.2L240.9,140.3z"/>
	<path class="st11" d="M226.8,139c0,0-8.8-0.7-9-0.2c-0.2,0.6,5.5,7.1,5.5,7.1L226.8,139z"/>
	<path class="st12" d="M277.4,169.6c0.8,0.1,18.1,14.9,43.3,19.4l-16.8-32.2L277.4,169.6z"/>
	<path class="st1" d="M342.4,184L318,154.4c0,0-2-2.2-4.9-4.1c-3-2-6.7-2.9-10.3-2.5l-47.8,5.7l20.6,16.2l23.7-4c0,0,3.2-0.5,6,6
		l8.7,16.5c3.1,5.8,2.2,12.9-2.4,17.7c-0.8,0.9-1.7,1.6-2.8,2.2l29.8,15.1l6.2-21C344.9,202.1,348.5,191.7,342.4,184z"/>
	<path class="st6" d="M381.3,348.7l-23.4,11.9c-8.4,4.2-18.6,0.9-22.8-7.5l-30.8-61.7l0.1,0l28.5-14.2l24.8-12.4l30.9,61.7
		C392.7,334.6,389.5,344.6,381.3,348.7z"/>
	<path class="st7" d="M357.8,360.7L357.8,360.7c-8.2,4.2-18.3,0.9-22.4-7.4l-30.9-61.9l28.5-14.2l32,61
		C369.3,346.3,366.1,356.5,357.8,360.7z"/>
	<path class="st13" d="M240.9,140.3l96.6,46.5l-7.8,16.1l-96.6-46c0,0-0.8-2.7,1.7-3.1c0,0-1.4-2.4,1.7-3.2c0,0-1.3-2.3,1.7-3.7
		c0,0-1.3-2.3,1.3-3.1C239.3,143.7,238.1,142,240.9,140.3z"/>
	<path class="st14" d="M236.3,148.3c-0.5,1.1,0.1,2.2,0.1,2.2c-3.1,0.8-1.7,3.2-1.7,3.2c-2.5,0.4-1.7,3.1-1.7,3.1l96.6,46l3.8-7.8
		L236.3,148.3z"/>
	<path class="st1" d="M292.2,202.3c-1.9-1.7-9-8.8-12.6-17l-7.7-16.6c0,0-2.8-5.5-9.1-5.3c-0.3,0-0.6,0-0.9,0.1
		c-1.6,0.4-7.2,2-9.3,7.6c-0.2,0.6-0.3,1.3-0.3,2c0.1,1.5,0.8,4.5,3.4,9.7l20.5,45.2c0,0,5.7,11.2,11.7,17.6
		c0.1,0.1,0.2,0.2,0.3,0.3c0.8,1,5.5,7,8.4,9.4c0.5,0.4,0.9,0.9,1.1,1.4l3.4,6.7c0.1,0.1,0.2,0.2,0.3,0.1l35.7-17.9l-2-3.9
		c-0.5-0.9-0.6-2-0.3-3.1l4-15.7L311,209.1c-0.6-0.3-1.4-0.8-2.1-1.1C308.3,207.7,305.2,213.7,292.2,202.3z"/>
	<path class="st8" d="M260.6,181.4l8.9-4.7c0.8-0.4,1-1.4,0.6-2.1l-2.7-4.8c0,0-2.3-3.7-7.6-1.8c0,0-4.3,1.8-4.3,6.4
		c0,0,0.2,1.8,2,4.8l0.8,1.6C258.9,181.5,259.8,181.8,260.6,181.4z"/>
	<path class="st9" d="M356,267.3l-48.5,24.2c-3.1,1.6-7,0.3-8.5-2.9l-7.6-15.2c-1.6-3.1-0.3-7,2.9-8.5l48.5-24.2
		c3.1-1.6,7-0.3,8.5,2.9l7.6,15.2C360.4,261.9,359.1,265.7,356,267.3z"/>
	<polygon class="st15" points="329.5,202.8 334.2,205 342,189 337.2,186.6 	"/>
	<path class="st16" d="M334.2,205l4.8,2.3c2.2,1,4.7,0.1,5.8-2l4-8.3c1-2.1,0.1-4.7-2-5.8l-4.8-2.3L334.2,205z"/>
	<g>
		<g>
			
				<rect x="9.6" y="13.9" transform="matrix(-1 -1.224647e-16 1.224647e-16 -1 164.7472 98.7369)" class="st17" width="145.6" height="71"/>
			<path class="st18" d="M16.8,20.8v57.1H148V20.8H16.8z M129.8,70.8H93c5.8-4.3,9.7-12.2,9.7-21c0-9.4-4.4-17.5-10.8-21.8h37.9
				c0,5.7,5.3,12.9,11,12.9v20.9C135.1,61.8,129.8,65.1,129.8,70.8z M23.9,40.9c5.7,0,10.8-7.2,10.8-12.9h36.6
				c-6.5,4.3-10.8,12.4-10.8,21.8c0,8.8,3.9,16.7,9.7,21H34.7c0-5.7-5.1-8.9-10.8-8.9V40.9z"/>
			<g>
				<path class="st3" d="M89.2,42.8c-0.2-0.2-0.5-0.5-0.9-0.7c-0.4-0.3-0.9-0.5-1.4-0.8c-0.5-0.2-1.1-0.4-1.7-0.6
					c-0.6-0.2-1.3-0.3-2-0.3v7.1l0.7,0.1c1.2,0.3,2.4,0.6,3.4,1c1,0.4,1.8,0.8,2.5,1.3c0.7,0.5,1.2,1.2,1.6,1.9
					c0.4,0.8,0.6,1.7,0.6,2.8c0,1.2-0.2,2.3-0.7,3.1c-0.4,0.9-1,1.6-1.8,2.2c-0.8,0.6-1.7,1-2.7,1.3c-1,0.3-2.1,0.4-3.3,0.5v3.6
					h-1.8v-3.7c-1.7-0.1-3.2-0.4-4.7-1c-1.5-0.5-2.9-1.3-4.1-2.3l1.8-3.3c0.3,0.3,0.6,0.6,1.1,0.9c0.5,0.3,1,0.6,1.7,0.9
					c0.6,0.3,1.4,0.6,2.1,0.8c0.8,0.2,1.6,0.4,2.4,0.5v-7.1c-0.1,0-0.3-0.1-0.4-0.1c-0.1,0-0.3-0.1-0.4-0.1c-1.2-0.3-2.3-0.7-3.2-1
					c-0.9-0.4-1.7-0.8-2.3-1.3c-0.6-0.5-1.1-1.1-1.4-1.8c-0.3-0.7-0.5-1.5-0.5-2.5c0-1.1,0.2-2.1,0.6-3c0.4-0.9,0.9-1.6,1.7-2.3
					c0.7-0.6,1.5-1.1,2.5-1.5c1-0.4,2-0.6,3.2-0.7v-3.5h1.8v3.5c1.5,0.1,2.9,0.4,4.1,0.9c1.3,0.5,2.4,1.1,3.3,1.8L89.2,42.8z
					 M77.8,43.7c0,1,0.3,1.7,1,2.2c0.7,0.5,1.7,0.9,3.1,1.3v-6.8c-1.4,0.1-2.4,0.4-3.1,1C78.1,41.9,77.8,42.7,77.8,43.7z M87.8,55.1
					c0-1-0.4-1.8-1.2-2.3c-0.8-0.5-1.9-1-3.4-1.4v6.8c1.5,0,2.6-0.3,3.4-0.8C87.4,56.9,87.8,56.1,87.8,55.1z"/>
			</g>
			<path class="st3" d="M116.7,49.4c0,3.1,2.5,5.6,5.6,5.6c3.1,0,5.6-2.5,5.6-5.6c0-3.1-2.5-5.6-5.6-5.6
				C119.2,43.8,116.7,46.3,116.7,49.4z"/>
			<path class="st3" d="M48,49.4c0,3.1-2.5,5.6-5.6,5.6c-3.1,0-5.6-2.5-5.6-5.6c0-3.1,2.5-5.6,5.6-5.6C45.5,43.8,48,46.3,48,49.4z"
				/>
		</g>
		<g>
			
				<rect x="31.4" y="31.9" transform="matrix(-1 -1.224647e-16 1.224647e-16 -1 208.2986 134.827)" class="st17" width="145.6" height="71"/>
			<path class="st18" d="M38.5,38.9v57.1h131.2V38.9H38.5z M151.6,88.8h-36.8c5.8-4.3,9.7-12.2,9.7-21c0-9.4-4.4-17.5-10.8-21.8
				h37.9c0,5.7,5.3,12.9,11,12.9v20.9C156.9,79.9,151.6,83.1,151.6,88.8z M45.7,59c5.7,0,10.8-7.2,10.8-12.9h36.6
				c-6.5,4.3-10.8,12.4-10.8,21.8c0,8.8,3.9,16.7,9.7,21H56.5c0-5.7-5.1-8.9-10.8-8.9V59z"/>
			<g>
				<path class="st3" d="M111,60.8c-0.2-0.2-0.5-0.5-0.9-0.7c-0.4-0.3-0.9-0.5-1.4-0.8c-0.5-0.2-1.1-0.4-1.7-0.6
					c-0.6-0.2-1.3-0.3-1.9-0.3v7.1l0.7,0.1c1.2,0.3,2.4,0.6,3.4,1c1,0.4,1.8,0.8,2.5,1.3c0.7,0.5,1.2,1.2,1.6,1.9
					c0.4,0.8,0.6,1.7,0.6,2.8c0,1.2-0.2,2.3-0.7,3.1c-0.4,0.9-1,1.6-1.8,2.2c-0.8,0.6-1.7,1-2.7,1.3c-1,0.3-2.1,0.4-3.3,0.5v3.6
					h-1.8v-3.7c-1.7-0.1-3.2-0.4-4.7-1c-1.5-0.5-2.9-1.3-4.1-2.3l1.8-3.3c0.3,0.3,0.6,0.6,1.1,0.9c0.5,0.3,1,0.6,1.7,0.9
					c0.6,0.3,1.4,0.6,2.1,0.8c0.8,0.2,1.6,0.4,2.4,0.5v-7.1c-0.1,0-0.3-0.1-0.4-0.1c-0.1,0-0.3-0.1-0.4-0.1c-1.2-0.3-2.3-0.7-3.2-1
					c-0.9-0.4-1.7-0.8-2.3-1.3c-0.6-0.5-1.1-1.1-1.4-1.8c-0.3-0.7-0.5-1.5-0.5-2.5c0-1.1,0.2-2.1,0.6-3c0.4-0.9,0.9-1.6,1.7-2.3
					c0.7-0.6,1.5-1.1,2.5-1.5c1-0.4,2-0.6,3.2-0.7v-3.5h1.8v3.5c1.5,0.1,2.9,0.4,4.1,0.9c1.3,0.5,2.4,1.1,3.3,1.8L111,60.8z
					 M99.6,61.7c0,1,0.3,1.7,1,2.2c0.7,0.5,1.7,0.9,3.1,1.3v-6.8c-1.4,0.1-2.4,0.4-3.1,1C99.9,59.9,99.6,60.7,99.6,61.7z
					 M109.5,73.2c0-1-0.4-1.8-1.2-2.3c-0.8-0.5-1.9-1-3.4-1.4v6.8c1.5,0,2.6-0.3,3.4-0.8C109.2,74.9,109.5,74.2,109.5,73.2z"/>
			</g>
			<path class="st3" d="M138.5,67.4c0,3.1,2.5,5.6,5.6,5.6c3.1,0,5.6-2.5,5.6-5.6c0-3.1-2.5-5.6-5.6-5.6
				C141,61.8,138.5,64.3,138.5,67.4z"/>
			<path class="st3" d="M69.8,67.4c0,3.1-2.5,5.6-5.6,5.6c-3.1,0-5.6-2.5-5.6-5.6c0-3.1,2.5-5.6,5.6-5.6
				C67.3,61.8,69.8,64.3,69.8,67.4z"/>
		</g>
	</g>
</g>
</svg>
