<svg xmlns="http://www.w3.org/2000/svg" width="18" height="18" viewBox="0 0 18 18"><defs><style>.a,.b{fill:#fff;stroke:#fff;}.a{stroke-width:0.5px;}</style></defs><g transform="translate(-4.5 -4.5)"><path class="a" d="M36.878,18.225h.707a2.23,2.23,0,0,0-2.1-2.054V15h-.707v1.164a2.1,2.1,0,0,0-2.1,1.942c0,.882.724,1.6,2.1,2.1v2.816a1.506,1.506,0,0,1-1.388-1.342h-.707a2.23,2.23,0,0,0,2.1,2.054V24.9h.707V23.738a2.1,2.1,0,0,0,2.1-1.942c0-.882-.724-1.6-2.1-2.1V16.883a1.506,1.506,0,0,1,1.388,1.342Zm-3.484-.119c0-.642.567-1.128,1.388-1.232v2.572c-.65-.266-1.388-.707-1.388-1.34ZM36.878,21.8c0,.642-.567,1.128-1.388,1.232V20.456c.65.266,1.388.707,1.388,1.34Z" transform="translate(-21.458 -6.791)"/><path class="b" d="M13.5,5a8.51,8.51,0,1,0,6.008,2.492A8.5,8.5,0,0,0,13.5,5Zm0,16.056a7.565,7.565,0,1,1,5.34-2.216,7.557,7.557,0,0,1-5.34,2.216Z"/></g></svg>