<svg xmlns="http://www.w3.org/2000/svg" width="67.171" height="55.406" viewBox="0 0 67.171 55.406"><defs><style>.a{opacity:0.25;}.b,.c{fill:#0f73ee;}.b{stroke:#0f73ee;stroke-width:2px;}</style></defs><g class="a" transform="translate(1696.18 3731)"><g transform="translate(-1695 -3730)"><path class="b" d="M71.672,35.483a1.814,1.814,0,0,0-2.526,0l-2.732,2.732V37.6A26.694,26.694,0,0,0,18.13,21.894a1.81,1.81,0,1,0,2.937,2.115A23.12,23.12,0,0,1,62.863,37.6v.547l-2.732-2.732a1.786,1.786,0,0,0-2.526,2.526l5.735,5.735a1.865,1.865,0,0,0,1.3.547,1.994,1.994,0,0,0,1.3-.547l5.735-5.735a1.62,1.62,0,0,0,0-2.46Z" transform="translate(-7.377 -10.898)"/><path class="b" d="M53.6,60.5A23.073,23.073,0,0,1,11.871,46.907v-.547L14.6,49.092a1.865,1.865,0,0,0,1.3.547,1.994,1.994,0,0,0,1.3-.547,1.814,1.814,0,0,0,0-2.526l-5.871-5.8a1.814,1.814,0,0,0-2.526,0L3.063,46.5a1.786,1.786,0,0,0,2.526,2.526l2.732-2.732v.616A26.694,26.694,0,0,0,56.6,62.614a1.778,1.778,0,0,0-.411-2.526,1.914,1.914,0,0,0-2.6.408Z" transform="translate(-2.55 -20.205)"/></g><path class="c" d="M48.7,29.963a2.687,2.687,0,0,0,3.782,0l6.845-6.845a2.676,2.676,0,0,0-3.784-3.784L53.317,21.56l0-15.19a2.671,2.671,0,0,0-5.343,0V21.562L45.75,19.336a2.676,2.676,0,0,0-3.784,3.784Z" transform="translate(-1712.988 -3720.517)"/></g></svg>