<svg xmlns="http://www.w3.org/2000/svg" width="63.926" height="56.342" viewBox="0 0 63.926 56.342"><defs><style>.a{opacity:0.25;}.b{fill:#0f73ee;}</style></defs><g class="a" transform="translate(-2.5 -11.319)"><path class="b" d="M63.96,21.519a3.247,3.247,0,0,0-3.9,2.424L54.4,47.435H26.129L18.051,15.192a3.239,3.239,0,0,0-3.163-2.49l-9.156,0A3.232,3.232,0,0,0,2.5,15.931a3.276,3.276,0,0,0,3.232,3.232h6.529l8.078,32.243A3.239,3.239,0,0,0,23.5,53.9h33.39a3.239,3.239,0,0,0,3.163-2.49L66.316,25.42a3.216,3.216,0,0,0-2.356-3.9Z" transform="translate(0 -1.38)"/><path class="b" d="M43.378,84.99a5.789,5.789,0,1,1-5.79-5.79,5.788,5.788,0,0,1,5.79,5.79" transform="translate(-9.577 -23.116)"/><path class="b" d="M77.179,84.99a5.789,5.789,0,1,1-5.79-5.79,5.788,5.788,0,0,1,5.79,5.79" transform="translate(-20.625 -23.116)"/><path class="b" d="M48.592,29.586a2.648,2.648,0,0,0,3.728,0l6.747-6.747a2.638,2.638,0,0,0-3.73-3.73L53.143,21.3l0-14.972a2.633,2.633,0,0,0-5.266,0V21.305l-2.194-2.194a2.638,2.638,0,1,0-3.73,3.73Z" transform="translate(-9.46 7.621)"/></g></svg>