<svg xmlns="http://www.w3.org/2000/svg" width="67.046" height="55.46" viewBox="0 0 67.046 55.46"><defs><style>.a{fill:#0f73ee;stroke:#0f73ee;stroke-width:2px;}</style></defs><g transform="translate(1696 3731)"><g transform="translate(-1695 -3730)"><path class="a" d="M72.3,35.769a1.835,1.835,0,0,0-2.556,0l-2.764,2.764v-.621a27.005,27.005,0,0,0-48.848-15.89,1.831,1.831,0,1,0,2.971,2.14A23.39,23.39,0,0,1,63.389,37.913v.553L60.626,35.7a1.807,1.807,0,1,0-2.556,2.556l5.8,5.8a1.887,1.887,0,0,0,1.312.553A2.017,2.017,0,0,0,66.5,44.06l5.8-5.8a1.639,1.639,0,0,0,0-2.488Z" transform="translate(-7.947 -10.898)"/><path class="a" d="M54.194,60.733A23.342,23.342,0,0,1,11.98,46.985v-.553L14.743,49.2a1.886,1.886,0,0,0,1.312.553,2.017,2.017,0,0,0,1.312-.553,1.835,1.835,0,0,0,0-2.556l-5.94-5.872a1.835,1.835,0,0,0-2.556,0l-5.8,5.8a1.807,1.807,0,1,0,2.556,2.556l2.764-2.764v.623a27.005,27.005,0,0,0,48.848,15.89,1.8,1.8,0,0,0-.416-2.556,1.936,1.936,0,0,0-2.626.413Z" transform="translate(-2.551 -20.54)"/></g><path class="a" d="M42.1,29.967a1.529,1.529,0,0,0-1.054.467c-3.79,3.8-7.242,7.544-10.925,11.285l-4.66-3.726a1.534,1.534,0,0,0-1.917,2.4l5.75,4.6a1.534,1.534,0,0,0,2.049-.12c4.121-4.13,7.826-8.2,11.884-12.267A1.534,1.534,0,0,0,42.1,29.968Z" transform="translate(-1695.858 -3740.958)"/></g></svg>