<svg xmlns="http://www.w3.org/2000/svg" width="63.924" height="56.34" viewBox="0 0 63.924 56.34"><defs><style>.a,.b{fill:#0f73ee;}.b{stroke:#0f73ee;stroke-width:3px;}</style></defs><g transform="translate(-2.5 -11.319)"><path class="a" d="M63.957,21.533a3.246,3.246,0,0,0-3.9,2.428L54.4,47.49H26.128L18.05,15.2A3.239,3.239,0,0,0,14.887,12.7l-9.156,0A3.235,3.235,0,0,0,2.5,15.936a3.278,3.278,0,0,0,3.232,3.237H12.26l8.077,32.294A3.239,3.239,0,0,0,23.5,53.961H56.889a3.239,3.239,0,0,0,3.163-2.494l6.261-26.026a3.221,3.221,0,0,0-2.356-3.908Z" transform="translate(0 -1.38)"/><path class="a" d="M43.327,84.964A5.763,5.763,0,1,1,37.562,79.2a5.763,5.763,0,0,1,5.764,5.764" transform="translate(-9.558 -23.067)"/><path class="a" d="M77.128,84.964A5.763,5.763,0,1,1,71.363,79.2a5.763,5.763,0,0,1,5.764,5.764" transform="translate(-20.585 -23.067)"/><path class="b" d="M44.444,29.967a1.716,1.716,0,0,0-1.183.525C39.006,34.755,35.131,38.961,31,43.16l-5.231-4.182a1.722,1.722,0,0,0-2.152,2.69l6.455,5.164a1.722,1.722,0,0,0,2.3-.134c4.626-4.636,8.785-9.207,13.341-13.771a1.722,1.722,0,0,0-1.264-2.959Z" transform="translate(7.136 -12.189)"/></g></svg>