<svg xmlns="http://www.w3.org/2000/svg" xmlns:xlink="http://www.w3.org/1999/xlink" width="160" height="160" viewBox="0 0 160 160"><defs><style>.a,.d,.q{fill:none;}.a{stroke:#707070;}.b,.e{fill:#fff;}.b{stroke:rgba(74,144,226,0.25);stroke-miterlimit:10;}.c{fill:#d1e3f8;}.c,.d{stroke:#d1e3f8;}.f{fill:#bed7f4;}.g{fill:#a5caf5;}.h{clip-path:url(#a);}.i{fill:rgba(15,115,238,0.24);}.j{fill:#b28b67;}.k{fill:#1f28cf;}.l{fill:#e4e4e4;}.m{fill:#2b44ff;}.n{fill:#2026a2;}.o{fill:#f2f2f2;}.p{fill:#191847;}.r,.s,.t{stroke:none;}.s{fill:#bed7f4;}.t{fill:#a5caf5;}</style><clipPath id="a"><path class="a" d="M8563.261-3088.986s-35.134,38.594-50.036,66.813,14.965,51.947,14.965,51.947a64.9,64.9,0,0,0,19.153,15.113c6.3,3.2,14.491,4.786,22.5,4.829a56.055,56.055,0,0,0,25.777-6.584,73.683,73.683,0,0,0,16.959-13.357c.408-.281,5.9-9,5.9-9s4.078,10.59,7.908,9a5.747,5.747,0,0,0,3.876-4.876s2.825,2.042,8.219-.7,1.04-12.406,1.04-12.406l-12.479-4.9,15.535-47.278,8.693-24.07s-10.053-6.714-29.969,0-36.545,3.585-34.584-3.6-2.248-20.93-2.248-20.93Z" transform="translate(-8495.607 3088.986)"/></clipPath></defs><g transform="translate(117.704 25.912)"><g class="b"><rect class="r" width="38.698" height="15.952" rx="4"/><rect class="q" x="0.5" y="0.5" width="37.698" height="14.952" rx="3.5"/></g><g transform="translate(2.659 4.786)"><path class="c" d="M1.2,0H20.368a1.2,1.2,0,0,1,0,2.393H1.2A1.2,1.2,0,1,1,1.2,0Z"/><rect class="c" width="14.475" height="2.393" rx="1.196" transform="translate(0 3.988)"/></g><g transform="translate(32.494 5.908)"><ellipse class="d" cx="2.068" cy="2.068" rx="2.068" ry="2.068"/><ellipse class="d" cx="0.886" cy="0.886" rx="0.886" ry="0.886" transform="translate(1.182 1.182)"/></g><g transform="translate(0 18.315)"><g class="e"><path class="r" d="M 35.97195053100586 11.90688037872314 L 2.725709199905396 11.90688037872314 C 1.498449325561523 11.90688037872314 0.4999992549419403 10.9084300994873 0.4999992549419403 9.681170463562012 L 0.4999992549419403 2.725710153579712 C 0.4999992549419403 1.49845016002655 1.498449325561523 0.5000001788139343 2.725709199905396 0.5000001788139343 L 35.97195053100586 0.5000001788139343 C 37.19921112060547 0.5000001788139343 38.19765853881836 1.49845016002655 38.19765853881836 2.725710153579712 L 38.19765853881836 9.681170463562012 C 38.19765853881836 10.9084300994873 37.19921112060547 11.90688037872314 35.97195053100586 11.90688037872314 Z"/><path class="s" d="M 2.7257080078125 1 C 1.774150848388672 1 1 1.774149894714355 1 2.725709915161133 L 1 9.681170463562012 C 1 10.63273048400879 1.774150848388672 11.40688037872314 2.7257080078125 11.40688037872314 L 35.97195053100586 11.40688037872314 C 36.92350769042969 11.40688037872314 37.69765853881836 10.63273048400879 37.69765853881836 9.681170463562012 L 37.69765853881836 2.725709915161133 C 37.69765853881836 1.774149894714355 36.92350769042969 1 35.97195053100586 1 L 2.7257080078125 1 M 2.7257080078125 0 L 35.97195053100586 0 C 37.47731781005859 0 38.69765853881836 1.220339775085449 38.69765853881836 2.725709915161133 L 38.69765853881836 9.681170463562012 C 38.69765853881836 11.1865406036377 37.47731781005859 12.40688037872314 35.97195053100586 12.40688037872314 L 2.7257080078125 12.40688037872314 C 1.220340728759766 12.40688037872314 0 11.1865406036377 0 9.681170463562012 L 0 2.725709915161133 C 0 1.220339775085449 1.220340728759766 0 2.7257080078125 0 Z"/></g><g transform="translate(11.521 3.722)"><rect class="f" width="21.564" height="1.861" rx="0.931"/><rect class="f" width="14.475" height="1.861" rx="0.931" transform="translate(0 3.102)"/></g><ellipse class="f" cx="3.545" cy="3.545" rx="3.545" ry="3.545" transform="translate(2.659 2.659)"/></g><g transform="translate(0 33.085)"><g class="e"><path class="r" d="M 35.97195053100586 11.90688037872314 L 2.725709199905396 11.90688037872314 C 1.498449325561523 11.90688037872314 0.4999992549419403 10.9084300994873 0.4999992549419403 9.681170463562012 L 0.4999992549419403 2.725710153579712 C 0.4999992549419403 1.49845016002655 1.498449325561523 0.5000001788139343 2.725709199905396 0.5000001788139343 L 35.97195053100586 0.5000001788139343 C 37.19921112060547 0.5000001788139343 38.19765853881836 1.49845016002655 38.19765853881836 2.725710153579712 L 38.19765853881836 9.681170463562012 C 38.19765853881836 10.9084300994873 37.19921112060547 11.90688037872314 35.97195053100586 11.90688037872314 Z"/><path class="t" d="M 2.7257080078125 1 C 1.774150848388672 1 1 1.774149894714355 1 2.725709915161133 L 1 9.681170463562012 C 1 10.63273048400879 1.774150848388672 11.40688037872314 2.7257080078125 11.40688037872314 L 35.97195053100586 11.40688037872314 C 36.92350769042969 11.40688037872314 37.69765853881836 10.63273048400879 37.69765853881836 9.681170463562012 L 37.69765853881836 2.725709915161133 C 37.69765853881836 1.774149894714355 36.92350769042969 1 35.97195053100586 1 L 2.7257080078125 1 M 2.7257080078125 0 L 35.97195053100586 0 C 37.47731781005859 0 38.69765853881836 1.220339775085449 38.69765853881836 2.725709915161133 L 38.69765853881836 9.681170463562012 C 38.69765853881836 11.1865406036377 37.47731781005859 12.40688037872314 35.97195053100586 12.40688037872314 L 2.7257080078125 12.40688037872314 C 1.220340728759766 12.40688037872314 0 11.1865406036377 0 9.681170463562012 L 0 2.725709915161133 C 0 1.220339775085449 1.220340728759766 0 2.7257080078125 0 Z"/></g><g transform="translate(2.659 3.722)"><rect class="g" width="21.564" height="1.861" rx="0.931"/><rect class="g" width="14.475" height="1.861" rx="0.931" transform="translate(0 3.102)"/></g><g transform="translate(32.494 4.136)"><ellipse class="g" cx="2.068" cy="2.068" rx="2.068" ry="2.068"/><ellipse class="g" cx="0.886" cy="0.886" rx="0.886" ry="0.886" transform="translate(1.182 1.182)"/></g></g></g><g class="h" transform="translate(-10.452 11)"><g transform="translate(-15.588 -9.857)"><ellipse class="i" cx="54.454" cy="54.407" rx="54.454" ry="54.407" transform="translate(35.549 39.793)"/><g transform="translate(73.54 19.78)"><g transform="translate(0 0)"><path class="j" d="M0,42.346,4.719,20.007A15.859,15.859,0,0,1,.6,8.716C1.461-3.7,18.476-.967,21.785,5.3S24.7,27.457,20.425,28.577c-1.706.447-5.34-.647-9.039-2.912l2.322,16.681Z" transform="translate(0 0)"/></g></g><g transform="translate(57.863 120.696)"><path class="j" d="M36.731,91.361c-.643-8.165-1.839-36.431-.643-49.515.505-5.523,1.05-10.776,1.585-15.443C26.191,47.132,7.4,77.456,7.4,77.456L0,74.059s8.722-28.847,14.3-40.73C20.675,19.764,26.648,8.147,29.163,4.055,33.117-2.38,40-.135,43.64,3.761c5.3-3.192,14.18.909,14.174,5.475C57.8,22.9,45.378,87.277,44.73,91.347a4.406,4.406,0,0,1-4.418,3.469A3.44,3.44,0,0,1,36.731,91.361Z" transform="translate(50.198 9.636)"/><path class="k" d="M0,72.137,3.21,6.652C5.568-4.668,25.655.612,25.654,6.681c0,13.777-8.193,61.36-8.194,65.465Z" transform="translate(75.4 5.229) rotate(20)"/><g transform="translate(55.99 64.821) rotate(30)"><path class="l" d="M4.474,5.033A2,2,0,0,0,1.908,6.381L0,13.106A64.242,64.242,0,0,0,.9,21H57.3s2.2-7.268-2.538-7.848-7.87-1.047-7.87-1.047L20.68.419a1,1,0,0,0-1.332.532L17.663,5.039s-4.385,2.046-7.127,2.046Z" transform="translate(1 19)"/></g><g transform="translate(83.581 81.325)"><path class="l" d="M2.876,3.366a1.285,1.285,0,0,0-1.649.87L0,8.577a41.618,41.618,0,0,0,.579,5.1H36.842s1.413-4.691-1.632-5.065-5.06-.675-5.06-.675L13.3.388a.642.642,0,0,0-.856.344L11.356,3.37A14.53,14.53,0,0,1,6.774,4.69Z" transform="translate(0.643 12.146)"/></g><path class="m" d="M109.793,23.515c0,17.147-8.112,57.145-8.117,60.921l-17.453.013s3.832-53.534,2.717-54.111-45.68,4.467-59.047,4.467C8.62,34.805.647,22.6,0,0H38.181c7.774.835,48.324,9.046,63.383,11.869C108.012,13.077,109.793,18.792,109.793,23.515Z" transform="translate(0 0)"/></g><g transform="translate(3 52.461)"><path class="j" d="M19.545,75.115,0,66.978,4.363,56.15,24.1,70.7a53.011,53.011,0,0,1,13.418,5.413c.848.776,1.874,2.348-1.645,2.076s-7.232-.4-7.717.807,1.643,2.645.662,4.271a.466.466,0,0,1-.428.232Q26.656,83.5,19.545,75.115ZM6.435,14.638,29.89,7.57A53.086,53.086,0,0,1,42.27.07c1.128-.213,3-.089.662,2.568s-4.669,5.558-4,6.672,3.094.275,3.8,2.039q.7,1.765-12.066,2.529L12.424,24.653Z" transform="translate(112.032 -13.184)"/><path class="n" d="M8.348,0c15.59,16.652,34.595,27.527,60.509,37.182L63.116,48.719c-26.731-2.555-41.022-4.588-52.241-21.262C8.06,23.272,3.019,8.878,0,1.4Z" transform="matrix(0.966, 0.259, -0.259, 0.966, 77.673, 1.62)"/><path class="o" d="M0,70.815H47.645S31.457,21.25,31.106,2.778c-.012-.628-1.167-1.734-1.678-1.589C23.823,2.778,17.432,0,17.432,0,6.137,18.237,2.231,40.69,0,70.815Z" transform="translate(55.689 0)"/><path class="k" d="M.879,91.691c-4.035-27.222,6.57-64.965,16.4-84a3.353,3.353,0,0,1,3.057-2.1H27.72l.01.029c2.487.02,5.256.12,8.276.22C49.569,6.288,68.2,6.736,89.1,0l2.523,12.656c-19.314,12.47-38.871,22.13-56.007,20.758,7.441,32.044,7.1,58.277-9.33,58.277Z" transform="translate(49.458 -5.591)"/></g><path class="p" d="M6.25,24h0a3.678,3.678,0,0,1-2.116-1.307A13.2,13.2,0,0,1,2.112,19.67,19.46,19.46,0,0,1,0,11.368,10.561,10.561,0,0,1,3.519,3.4C6,1.175,9.535,0,13.75,0a21.009,21.009,0,0,1,5.129.57,10.971,10.971,0,0,1,3.453,1.476A5.568,5.568,0,0,1,25,6.316c-3.077.855-8.407,1.27-16.294,1.27-.591,0-1.207,0-1.831-.007V8.21l7.5.632,1.25,3.789c-.095-.007-.194-.011-.294-.011a3.779,3.779,0,0,0-2.41.885,8.258,8.258,0,0,0-1.841,2.2,2.984,2.984,0,0,0-1.706-.547,3.058,3.058,0,0,0-2.21.978,3.2,3.2,0,0,0-.915,2.18,3.774,3.774,0,0,0,1.892,3.5C7.447,23.192,6.863,23.864,6.25,24Z" transform="translate(73.529 18)"/></g></g><rect class="q" width="160" height="160"/></svg>