<svg xmlns="http://www.w3.org/2000/svg" xmlns:xlink="http://www.w3.org/1999/xlink" width="163" height="160" viewBox="0 0 163 160"><defs><style>.a{fill:none;}.b{fill:#0f73ee;}.c{clip-path:url(#a);}.d{fill:#e2b78f;}.e{fill:#d5b192;}.f{fill:#e4e4e4;}.g{fill:#6987ac;}.h{fill:#7b94b2;}.i{fill:#d0e7fd;}.j{fill:#1b375a;}.k{fill:#2f2d64;}.l,.p{fill:#fff;}.m{fill:#cce1fc;}.n{fill:#c1dcfd;}.o{fill:#a0c3f0;}.q,.r{stroke:none;}.r{fill:#cce1fc;}</style><clipPath id="a"><path class="a" d="M73.112,138.052a54.077,54.077,0,0,0,40.792-18.5c5.229-5.971,18.828,7.852,21.037,0,.484-1.72,7-23.267,0-42.948C122.944,42.854,94.048,0,73.112,0,32.338,0-19.163,125.19,7.2,138.052c15.748,7.682,26.078-17.318,28.178-15.281A54.03,54.03,0,0,0,73.112,138.052Z" transform="translate(0 0)"/></clipPath></defs><ellipse class="b" cx="54.184" cy="54.137" rx="54.184" ry="54.137" transform="translate(18.927 37.778)"/><path class="a" d="M73.112,138.052a54.077,54.077,0,0,0,40.792-18.5c5.229-5.971,18.828,7.852,21.037,0,.484-1.72,7-23.267,0-42.948C122.944,42.854,94.048,0,73.112,0,32.338,0-19.163,125.19,7.2,138.052c15.748,7.682,26.078-17.318,28.178-15.281A54.03,54.03,0,0,0,73.112,138.052Z"/><g class="c" transform="translate(0 8)"><g transform="translate(6.354 12.09)"><g transform="translate(59.051)"><g transform="translate(0 0)"><path class="d" d="M0,39.128,4.231,18.487A14.92,14.92,0,0,1,.541,8.054C1.31-3.417,16.567-.894,19.535,4.9s2.615,20.475-1.22,21.51c-1.53.413-4.788-.6-8.1-2.69l2.082,15.413Z" transform="translate(0 0)"/></g></g><g transform="translate(32.419 83.617)"><path class="e" d="M0,0,18.323,65.942,27.2,122.021h6.959L24.779,0Z" transform="translate(22.241 0)"/><path class="e" d="M14.831,0C14.8,36.084,13.112,54.881,12.84,58.171S8.835,82.789,0,123.126l7.256-2.8C21.219,83.327,25.977,64.1,27.579,59.243S33.433,34.637,40.339,0Z" transform="translate(2.812 0)"/><g transform="translate(0 106.666)"><path class="f" d="M2.261,2.852a1,1,0,0,0-1.3.723L0,7.179A36.426,36.426,0,0,0,.456,11.41H28.965s1.111-3.9-1.283-4.206S23.7,6.643,23.7,6.643L10.453.379A.5.5,0,0,0,9.78.664L8.928,2.855a10.981,10.981,0,0,1-3.6,1.1Z" transform="translate(0.505 10.03)"/></g><g transform="translate(45.02 106.674)"><path class="f" d="M2.2,2.851a.972.972,0,0,0-1.262.722L0,7.176a37.355,37.355,0,0,0,.443,4.23H28.194s1.082-3.894-1.249-4.2-3.872-.561-3.872-.561L10.175.379A.478.478,0,0,0,9.52.664l-.829,2.19a10.492,10.492,0,0,1-3.506,1.1Z" transform="translate(0.492 10.026)"/></g><path class="g" d="M0,0,7.651,33.6H31.019L27.535,0Z" transform="translate(19.496)"/><path class="h" d="M2.471,0c-3.681,12.688-1.4,33.6-1.4,33.6H24.317L30.708,0Z" transform="translate(14.538)"/></g><g transform="translate(0 27.058)"><path class="d" d="M17.19,45.252c-.8-1.193-1.689-2.386-4.186-1.625C8.559,44.98,4.891,48.048.49,44.4c-.542-.448-1-1.915.723-2.769C5.5,39.5,11.79,35.6,12.768,34.169,14.769,31.233,26.343,0,26.343,0l9.5,1.379s-15.3,33.165-16.4,35.079c-1.657,2.871.292,7.872,1.054,10.519a3.224,3.224,0,0,1-.891.139C18.377,47.116,17.813,46.184,17.19,45.252Zm94.474-22.074L95.249,14.992l4.426-9.057L115.87,19.653a46.087,46.087,0,0,1,11.279,5.469c.687.72,1.479,2.135-1.548,1.688s-6.231-.78-6.723.228,1.262,2.377.315,3.716a.4.4,0,0,1-.344.175Q117.386,30.93,111.664,23.178Z" transform="translate(0 41.838)"/><path class="i" d="M0,2.451,5.7,0C15.39,19.162,28.937,37.338,50.183,51.833l-4.163,8.88C27.7,51.982,10.507,45.459,2.468,30.657-.231,25.689.357,8.642,0,2.451Z" transform="matrix(0.996, 0.087, -0.087, 0.996, 66.271, 0.694)"/><path class="j" d="M0,58.048s25.3,2.68,39.826,0c1.2-.221,1.389-2.229.833-3.591C31.994,33.244,26.052,14.734,26.052,0,23.667,1.2,17.7.36,17.7.36,7.02,15.544,2.11,32.966,0,58.048Z" transform="translate(45.835 1.191)"/><path class="i" d="M12.12,115.844c1.192-24.9,10.659-54.842,20.191-79.8-8,6.483-16.691,18.585-17.856,40.815L-6.313,69.17C12.15,31.658,40.812,6.029,46.786.933L47.07.278h.492C47.784.094,47.9,0,47.9,0l-.016.278h4.453c1.037,6.091,4.307,88.582,14.4,115.566Z" transform="translate(12.998)"/></g></g><path class="k" d="M14.651,35.537H.058a22.61,22.61,0,0,1,.815-8.492,13.152,13.152,0,0,1,2.572-4.211c1.8-2.195,3.657-4.464,3.657-11.6.148-.159.29-.315.447-.488L7.486,9.115A23.091,23.091,0,0,1,10.251,4.77a14.453,14.453,0,0,1,3.2-2.987A7.56,7.56,0,0,1,17.62.425a10.638,10.638,0,0,1,6.544,1.838,13.29,13.29,0,0,1,3.18,3.77l0,.006c-.863,3.146-3.43,4.4-6.4,5.858-1.088.533-2.213,1.084-3.319,1.761a2.64,2.64,0,0,0-2.356-1.58A2.838,2.838,0,0,0,12.6,15.054a2.838,2.838,0,0,0,2.667,2.976,2.416,2.416,0,0,0,.553-.064c.752,7.091.6,15.659-1.173,17.571Z" transform="translate(58.013 9.725)"/></g><g class="l" transform="translate(127.68 16.873)"><path class="q" d="M 26.08263778686523 39.03847885131836 L 7.999997138977051 39.03847885131836 C 3.809346914291382 39.03847885131836 0.3999969959259033 35.62912750244141 0.3999969959259033 31.43847846984863 L 0.3999969959259033 7.999998092651367 C 0.3999969959259033 3.809348344802856 3.809346914291382 0.399998277425766 7.999997138977051 0.399998277425766 L 26.08263778686523 0.399998277425766 C 30.27328681945801 0.399998277425766 33.68263626098633 3.809348344802856 33.68263626098633 7.999998092651367 L 33.68263626098633 31.43847846984863 C 33.68263626098633 35.62912750244141 30.27328681945801 39.03847885131836 26.08263778686523 39.03847885131836 Z"/><path class="r" d="M 7.999996185302734 0.7999992370605469 C 4.0299072265625 0.7999992370605469 0.7999954223632812 4.0299072265625 0.7999954223632812 7.999998092651367 L 0.7999954223632812 31.43847846984863 C 0.7999954223632812 35.4085693359375 4.0299072265625 38.63847732543945 7.999996185302734 38.63847732543945 L 26.08263778686523 38.63847732543945 C 30.05272674560547 38.63847732543945 33.28263854980469 35.4085693359375 33.28263854980469 31.43847846984863 L 33.28263854980469 7.999998092651367 C 33.28263854980469 4.0299072265625 30.05272674560547 0.7999992370605469 26.08263778686523 0.7999992370605469 L 7.999996185302734 0.7999992370605469 M 7.999996185302734 0 L 26.08263778686523 0 C 30.50090789794922 0 34.08263778686523 3.581718444824219 34.08263778686523 7.999998092651367 L 34.08263778686523 31.43847846984863 C 34.08263778686523 35.85675811767578 30.50090789794922 39.4384765625 26.08263778686523 39.4384765625 L 7.999996185302734 39.4384765625 C 3.581716537475586 39.4384765625 -3.814697265625e-06 35.85675811767578 -3.814697265625e-06 31.43847846984863 L -3.814697265625e-06 7.999998092651367 C -3.814697265625e-06 3.581718444824219 3.581716537475586 0 7.999996185302734 0 Z"/></g><g transform="translate(132.549 24.177)"><path class="m" d="M7.79,0A7.79,7.79,0,1,1,0,7.79,7.79,7.79,0,0,1,7.79,0Z" transform="translate(4.382)"/><rect class="n" width="24.345" height="2.921" rx="1.461" transform="translate(0 17.528)"/><rect class="o" width="16.554" height="2.921" rx="1.461" transform="translate(3.895 22.397)"/><g transform="translate(7.465 3.548)"><path class="p" d="M7.778,7.635H.965A.215.215,0,0,1,.75,7.42V3.648A1.256,1.256,0,0,1,0,2.5.216.216,0,0,1,.029,2.4L1.328.109A.212.212,0,0,1,1.513,0H7.229a.214.214,0,0,1,.186.109L8.716,2.4a.2.2,0,0,1,.029.105A1.259,1.259,0,0,1,7.99,3.652a.1.1,0,0,1,0,.023V7.42A.215.215,0,0,1,7.778,7.635Zm-6.6-3.881V7.208h.759V4.892a.735.735,0,0,1,.734-.734H3.3a.735.735,0,0,1,.734.734V7.206H7.563V3.754H7.49A1.252,1.252,0,0,1,6.45,3.2a1.25,1.25,0,0,1-2.076,0,1.253,1.253,0,0,1-2.08,0,1.253,1.253,0,0,1-1.04.554C1.23,3.756,1.2,3.756,1.179,3.754Zm1.5.833a.306.306,0,0,0-.306.305V7.206H3.6V4.892A.306.306,0,0,0,3.3,4.586Zm4-1.939a.825.825,0,0,0,1.624,0H6.679Zm-2.078,0a.824.824,0,0,0,1.622,0H4.6Zm-2.08,0a.825.825,0,0,0,1.624,0Zm-2.078,0a.822.822,0,0,0,.808.679h0a.826.826,0,0,0,.813-.679H.443ZM1.638.431.624,2.219h7.5L7.1.431ZM6.212,6.248H5.024a.59.59,0,0,1-.59-.59V4.747a.59.59,0,0,1,.59-.59H6.212a.59.59,0,0,1,.59.59v.911A.59.59,0,0,1,6.212,6.248ZM5.024,4.586a.161.161,0,0,0-.161.161v.911a.161.161,0,0,0,.161.161H6.212a.161.161,0,0,0,.161-.161V4.747a.161.161,0,0,0-.161-.161Z"/></g></g><rect class="a" width="160" height="160" transform="translate(3)"/></svg>