<svg xmlns="http://www.w3.org/2000/svg" xmlns:xlink="http://www.w3.org/1999/xlink" width="160" height="160" viewBox="0 0 160 160"><defs><style>.a{fill:none;}.b{fill:#c2dcfb;}.c{clip-path:url(#a);}.d{fill:#784931;}.e{fill:#b28b67;}.f{fill:#2f3676;}.g{fill:#e4e4e4;}.h{fill:#997659;}.i{fill:#5c63ab;}.j{fill:#1f28cf;}.k{fill:#2b43fb;}.l{fill:#2b44ff;}.m{fill:#191847;}.n{fill:#c5cfd6;}.o{fill:#cce1fc;}.p{fill:rgba(80,141,213,0.37);}.q,.r{fill:#fff;font-family:ProximaNova-Semibold, Proxima Nova;font-weight:600;letter-spacing:0.012em;}.q{font-size:1px;}.r{font-size:2px;}.s{fill:#000;}</style><clipPath id="a"><path class="a" d="M74.4,143.965c26.682,0,52.414-17.933,59.3-42.394,1.412-5.017,23.3-21.559,23.3-27.026C157,42.419,109.8,0,77.643,0S-14.947,122.489,7.976,139c16.921,8.254,25.077-10.11,27.333-7.922C45.792,141.24,58.64,143.965,74.4,143.965Z" transform="translate(0)"/></clipPath></defs><g transform="translate(3 6)"><ellipse class="b" cx="54.074" cy="54.029" rx="54.074" ry="54.029" transform="translate(17.038 36.101)"/><path class="a" d="M77.643,143.965A58.239,58.239,0,0,0,133.7,101.572c1.412-5.017,23.3-21.559,23.3-27.026C157,42.419,109.8,0,77.643,0S-21.506,130.145,6.824,143.965c16.921,8.254,28.021-18.608,30.278-16.42A58.055,58.055,0,0,0,77.643,143.965Z" transform="translate(0 0)"/><g class="c" transform="translate(0 0)"><g transform="translate(4.434 4.254)"><g transform="translate(64.562 4.366)"><g transform="translate(0 0)"><path class="d" d="M0,42.043,4.763,19.864C2.107,16.749.309,12.931.609,8.654,1.475-3.672,18.647-.96,21.987,5.261s2.944,22-1.373,23.112c-1.722.443-5.389-.643-9.122-2.891l2.343,16.562Z" transform="translate(0 0)"/></g></g><g transform="translate(0 78.194)"><path class="e" d="M59.9,0c-11.014,8.981-6.79,87.766-7.525,88.758C51.888,89.419,0,99.99,0,99.99l1.5,6.1s60.7-2.988,64.235-7.494c5.062-6.451,12.491-72.169,12.491-72.169Z" transform="matrix(0.574, -0.819, 0.819, 0.574, 19.045, 65.087)"/><path class="f" d="M0,97.6l2.634,9.822c30.166,3.477,50.051-.8,57.047-7.461S72.2,27.987,72.2,27.987L52.608,0C26.389,19.782,42.049,84.582,41.379,86.064S24.8,88.712,0,97.6Z" transform="matrix(0.574, -0.819, 0.819, 0.574, 22.544, 59.146)"/><g transform="translate(102.356 107.047) rotate(20)"><path class="g" d="M4.474,5.033A2,2,0,0,0,1.908,6.381L0,13.106A64.242,64.242,0,0,0,.9,21H57.3s2.2-7.268-2.538-7.848-7.87-1.047-7.87-1.047L20.68.419a1,1,0,0,0-1.332.532L17.663,5.039s-4.385,2.046-7.127,2.046Z" transform="translate(1 19)"/></g><path class="h" d="M59.146,0,29.317,71.547,0,132.035H6.917L82.592,0Z" transform="translate(1.958 16.018)"/><g transform="translate(0 130.63)"><path class="g" d="M2.579,3.039A1.153,1.153,0,0,0,1.1,3.816L0,7.689a36.968,36.968,0,0,0,.52,4.547H33.032s1.267-4.186-1.463-4.52-4.537-.6-4.537-.6L11.921.382a.577.577,0,0,0-.768.307l-.971,2.354A13.074,13.074,0,0,1,6.074,4.221Z" transform="translate(0.576 10.802)"/></g><path class="i" d="M0,119.469l15.369,2.88C27.253,104.893,76.986,33.319,82.438,0H51.785C33.576,24.086,11.327,101.725,0,119.469Z" transform="translate(4.605 16.018)"/></g><g transform="translate(0 33.738)"><path class="d" d="M18.325,66.963c-.786-1.321-1.68-2.642-4.394-1.968C9.087,66.2,4.98,69.281.463,65.122c-.555-.511-.962-2.11.932-2.93,4.717-2.043,11.686-5.867,12.816-7.352Q16.522,51.8,28.539,20.158L40.351,22.5Q22.532,55.678,21.239,57.669c-1.939,2.986-.13,8.459.539,11.341a3.641,3.641,0,0,1-.823.1C19.533,69.113,18.965,68.038,18.325,66.963Zm94.659-49.33,20.887-9.165a49.5,49.5,0,0,1,10.6-8.306c1.019-.324,2.759-.422.9,2.288s-3.689,5.645-2.947,6.595,2.892-.1,3.741,1.446q.85,1.545-10.871,3.7L119.653,26.17Z" transform="translate(0 27.069)"/><path class="j" d="M0,1.285,4.891,0C16.624,9.536,23.241,34.334,30.74,37.037c7.09,2.555,16.484-1.34,27.607-6.462l4.2,7.542C53.1,50.307,31.71,61.78,22.225,57.129,7.06,49.693,1.017,18.923,0,1.285Z" transform="matrix(0.996, 0.087, -0.087, 0.996, 72.568, 1.79)"/><path class="k" d="M0,65.657H44.1c2.015,0,1.636-2.908,1.344-4.375C42.087,44.35,28.961,26.1,28.961,1.993L16.24,0C5.717,16.909,2.078,37.727,0,65.657Z" transform="translate(50.727 0)"/><path class="l" d="M51.735,0h2.3l.731,3.991Q25.374,64.737,9.245,83.511L0,81.7Q8.933,26.353,51.735,0Z" transform="translate(14.411)"/></g><path class="m" d="M6.219,27.772C4.421,19.741-.7,14.266.081,10.676A6.1,6.1,0,0,1,4.251,6.212S6-.9,15.554.158,30.934,5.2,28.417,13.964c-2.314,0-5.108-.84-8.971.6-1.839.685-2.63,4.249-2.63,4.249H15.071S12.53,14.583,10.059,15.7,8.936,21.15,8.936,21.15l-.86,6.622Z" transform="translate(62.049 -0.05)"/></g></g></g><g transform="translate(123.764 37.747) rotate(3)"><path class="n" d="M0,0,0,.006S0,0,0,0" transform="translate(16.552 17.718)"/><path class="n" d="M0,0V0S0,0,0,0" transform="translate(16.553 17.719)"/><path class="n" d="M.022,0,.014.019l0-.009C-.016.1.006.04.022,0" transform="translate(16.542 17.694)"/><path class="n" d="M.007,0,0,.009C-.006.028.007,0,.007,0" transform="translate(16.55 17.713)"/><path class="n" d="M0,0Z" transform="translate(16.553 17.721)"/><path class="n" d="M0,0H0" transform="translate(16.553 17.721)"/><path class="n" d="M0,.006H0" transform="translate(16.551 17.718)"/><path class="n" d="M0,0H0" transform="translate(16.553 17.721)"/><path class="o" d="M1.318,0H31.624a1.318,1.318,0,0,1,1.318,1.318V20.424a1.318,1.318,0,0,1-1.318,1.318H1.318A1.318,1.318,0,0,1,0,20.424V1.318A1.318,1.318,0,0,1,1.318,0Z" transform="translate(0 0)"/><g transform="translate(2.95 6.349)"><path class="p" d="M9.5,0,0,15.483H19Z" transform="translate(0 0)"/><path class="p" d="M8.4,0,0,11.336H16.8Z" transform="translate(10.897 4.147)"/></g><text class="q" transform="translate(1.99 18.082)"><tspan x="0" y="0">Johnny Shopper</tspan></text><text class="r" transform="translate(1.624 11.092)"><tspan x="0" y="0">5535</tspan><tspan class="s" y="0"> </tspan></text><text class="r" transform="translate(9.613 10.673)"><tspan x="0" y="0">••••</tspan></text><text class="r" transform="translate(17.628 10.751)"><tspan x="0" y="0">••••</tspan></text><text class="r" transform="translate(23.646 10.939)"><tspan x="0" y="0">2296</tspan></text></g><rect class="a" width="160" height="160"/></svg>