<svg xmlns="http://www.w3.org/2000/svg" xmlns:xlink="http://www.w3.org/1999/xlink" width="160" height="160" viewBox="0 0 160 160"><defs><style>.a{fill:none;}.b{fill:#a5caf5;}.c{clip-path:url(#a);}.d{fill:#784931;}.e{fill:#b28b67;}.f{fill:#2f3676;}.g{fill:#e4e4e4;}.h{fill:#997659;}.i{fill:#2b326d;}.j{fill:#915b3c;}.k{fill:#5661af;}.l{fill:#191847;}.m{fill:#d1e3f8;}.n{fill:#c7def8;}.o{fill:#bed7f4;}.p{fill:#8dbcf4;}</style><clipPath id="a"><path class="a" d="M74.2,137.582a55.656,55.656,0,0,0,53.569-40.514c1.349-4.794,22.27-20.6,22.27-25.828,0-30.7-50.664-72.955-81.393-72.955s-89.2,126.09-62.124,139.3C22.692,145.47,33.3,119.8,35.457,121.89A55.481,55.481,0,0,0,74.2,137.582Z"/></clipPath></defs><g transform="translate(0.444 11.715)"><ellipse class="b" cx="55.639" cy="55.591" rx="55.639" ry="55.591" transform="translate(18.561 26.401)"/><path class="a" d="M74.2,137.582a55.656,55.656,0,0,0,53.569-40.514c1.349-4.794,22.27-20.6,22.27-25.828C150.039,40.538,104.929,0,74.2,0S-20.552,124.375,6.522,137.582C22.692,145.47,33.3,119.8,35.457,121.89A55.481,55.481,0,0,0,74.2,137.582Z" transform="translate(0 0)"/><g class="c" transform="translate(0 0)"><g transform="translate(4.238 3.295)"><g transform="translate(61.699 4.942)"><g transform="translate(0 0)"><path class="d" d="M0,40.179l4.552-21.2A14.9,14.9,0,0,1,.582,8.27C1.41-3.509,17.82-.918,21.012,5.027S23.826,26.052,19.7,27.114c-1.645.424-5.15-.614-8.718-2.763l2.239,15.827Z" transform="translate(0 0)"/></g></g><g transform="translate(0 75.497)"><path class="e" d="M57.247,0c-10.526,8.583-6.489,83.874-7.192,84.822C49.587,85.454,0,95.556,0,95.556l1.429,5.828s58.008-2.856,61.387-7.162c4.838-6.164,11.937-68.969,11.937-68.969Z" transform="matrix(0.574, -0.819, 0.819, 0.574, 18.201, 62.201)"/><path class="f" d="M0,93.271l2.517,9.386c28.829,3.323,47.831-.768,54.518-7.13S69,26.746,69,26.746L50.275,0C25.219,18.9,40.184,80.832,39.544,82.248S23.7,84.779,0,93.271Z" transform="matrix(0.574, -0.819, 0.819, 0.574, 21.545, 56.524)"/><g transform="translate(97.817 102.301) rotate(20)"><path class="g" d="M4.474,5.033A2,2,0,0,0,1.908,6.381L0,13.106A64.242,64.242,0,0,0,.9,21H57.3s2.2-7.268-2.538-7.848-7.87-1.047-7.87-1.047L20.68.419a1,1,0,0,0-1.332.532L17.663,5.039s-4.385,2.046-7.127,2.046Z" transform="translate(1 19)"/></g><path class="h" d="M56.523,0,28.017,68.375,0,126.18H6.61L78.93,0Z" transform="translate(1.871 15.308)"/><g transform="translate(0 124.838)"><path class="g" d="M2.464,2.919a1.1,1.1,0,0,0-1.413.742L0,7.363a35.329,35.329,0,0,0,.5,4.345H31.567s1.211-4-1.4-4.319-4.335-.576-4.335-.576L11.392.38a.551.551,0,0,0-.734.293L9.73,2.923A12.494,12.494,0,0,1,5.8,4.049Z" transform="translate(0.551 10.308)"/></g><path class="i" d="M0,114.171l14.688,2.752C26.044,100.242,73.572,31.842,78.783,0h-32.7C28.683,23.018,10.825,97.214,0,114.171Z" transform="translate(4.401 15.308)"/></g><g transform="translate(0 33.013)"><path class="j" d="M17.512,62.938c-.751-1.262-1.6-2.524-4.2-1.881-4.629,1.149-8.554,4.1-12.87.121-.531-.489-.919-2.017.89-2.8C5.841,56.426,12.5,52.771,13.58,51.352q2.209-2.9,13.693-33.144l11.288,2.238Q21.534,52.153,20.3,54.055c-1.854,2.854-.124,8.084.515,10.838a3.481,3.481,0,0,1-.786.1C18.667,64.992,18.124,63.965,17.512,62.938ZM109.7,15.1l17.264-7.523q7.227-8.8,8.126-7.374c.9,1.426-.975,2.737-.524,3.8s3.751.889,6.877.593S143.681,5.7,142.939,6.4a47.279,47.279,0,0,1-11.854,5.011L113.747,24.626Z" transform="translate(0 26.925)"/><path class="k" d="M0,1.228,4.674,0c11.212,9.113,17.536,32.811,24.7,35.395,6.776,2.442,15.753-1.28,26.382-6.176l4.017,7.208C50.749,48.077,30.3,59.04,21.239,54.6,6.747,47.489.972,18.084,0,1.228Z" transform="matrix(0.996, 0.087, -0.087, 0.996, 69.351, 1.711)"/><path class="k" d="M21.071,89.672c1.236-13.359,6.172-31.681,12.382-48.7Q18.6,68.44,8.834,79.808L0,78.079Q8.536,25.185,49.441,0h2.2l.381,2.083Q52.8.971,53.555,0h6.519s24.59,74.878,14.348,93.424Z" transform="translate(13.772)"/></g><path class="l" d="M24.4,25c-1.715,0-3.306-1.089-4.478-3.067a14.043,14.043,0,0,1-1.749-6.965c0-.178,0-.361.011-.544a28.393,28.393,0,0,0-3.522,3.049,27.56,27.56,0,0,1-3.811,3.258,8.193,8.193,0,0,1-4.577,1.491,5.664,5.664,0,0,1-4.541-2.5A9.053,9.053,0,0,1,0,14.434a7.224,7.224,0,0,1,.354-2.29A5.5,5.5,0,0,1,1.468,10.2,5.237,5.237,0,0,1,3.415,8.841a7.56,7.56,0,0,1,2.856-.508c6.586,0,9.806.945,12.614,2.365A9,9,0,0,1,21.3,6.953a3.748,3.748,0,0,1,1.111-.784,5.226,5.226,0,0,1,.929-.4,23.565,23.565,0,0,1,6.843-1.142c.366-.013.733-.019,1.09-.019l.406,0a4.586,4.586,0,0,1,1.369-3.264,4.644,4.644,0,1,1,3.542,7.9,23.57,23.57,0,0,1-5.212.88,9.637,9.637,0,0,1,.3,2.484,13.929,13.929,0,0,1-.26,2.583,2.175,2.175,0,0,0-1.6-.848A2.76,2.76,0,0,0,27.8,15.2a2.816,2.816,0,0,0-.78,1.925,3.556,3.556,0,0,0,.72,2.258,2.57,2.57,0,0,0,1.875.976,12.431,12.431,0,0,1-2.412,3.31A4.222,4.222,0,0,1,24.4,25Z" transform="translate(43.456)"/></g></g></g><g transform="translate(127.093 28.863)"><rect class="m" width="2.36" height="9.832" rx="1.18" transform="translate(0 12.585)"/><rect class="n" width="2.36" height="16.124" rx="1.18" transform="translate(5.506 6.292)"/><rect class="o" width="2.36" height="19.27" rx="1.18" transform="translate(11.012 3.146)"/><rect class="b" width="2.36" height="16.124" rx="1.18" transform="translate(16.518 6.292)"/><rect class="p" width="2.36" height="22.417" rx="1.18" transform="translate(22.023)"/></g><rect class="a" width="160" height="160"/></svg>