<?xml version="1.0" encoding="utf-8"?>
<!-- Generator: Adobe Illustrator 22.1.0, SVG Export Plug-In . SVG Version: 6.00 Build 0)  -->
<svg version="1.1" id="Layer_1" xmlns="http://www.w3.org/2000/svg" xmlns:xlink="http://www.w3.org/1999/xlink" x="0px" y="0px"
	 viewBox="0 0 250 250" style="enable-background:new 0 0 250 250;" xml:space="preserve">
<style type="text/css">
	.st0{fill-rule:evenodd;clip-rule:evenodd;fill:#ECF7FC;}
	.st1{fill-rule:evenodd;clip-rule:evenodd;fill:#88D7FA;}
	.st2{fill:#64ED80;}
	.st3{fill:#3EC153;}
	.st4{fill:#58DD6E;}
	.st5{fill:#E6E7E8;}
	.st6{fill:#8BDBF7;}
	.st7{fill:#3098C6;}
	.st8{fill:#61C9F7;}
	.st9{fill:#45ACE4;}
</style>
<g>
	<path class="st0" d="M125,2.5c67.7,0,122.5,54.8,122.5,122.5S192.7,247.5,125,247.5S2.5,192.7,2.5,125S57.3,2.5,125,2.5z"/>
	<g>
		<g>
			<path class="st1" d="M53.6,38.3V17.4H45l-14.4,21v6.8h13.8v6.7h9.2v-6.7h3.8v-7H53.6z M44.5,31.2c-0.1,1.3-0.1,2.3-0.1,3.1v4
				h-5.7l3.8-5.7c0.7-1.1,1.3-2.2,1.8-3.4h0.3C44.6,29.2,44.6,29.9,44.5,31.2z"/>
		</g>
	</g>
	<g>
		<g>
			<path class="st2" d="M137.3,112.6c0,0-3.3,2.3-3.7,4.8c-0.1,0.4-0.1,0.8,0,1.1l0,0c0.3,0.2,0.6,0.3,0.8,0.5c0,0,0,0,0,0
				c0,0-0.1,0.1-0.1,0.1c-0.5,0-1,0-1.5,0.1c-2.6,0.3-5.1,1.6-6.8,3.6c-0.1,0.2-0.3,0.3-0.4,0.5l-0.3,0.2c0.2,0.2,0.4,0.5,0.5,0.7
				c-0.5-0.2-1-0.3-1.5-0.4l0,0c-4.4-0.7-8.9,0.3-12.6,2.9l0,0c-0.4,0.3-0.8,0.6-1.2,1c0.1-0.3,0.1-0.6,0.2-0.9l-0.4-0.1
				c-0.2-0.1-0.4-0.2-0.6-0.3c-2.4-1.1-5.2-1.2-7.7-0.3l0,0c-0.5,0.2-0.9,0.4-1.3,0.6l0,0c0,0-0.1,0-0.1-0.1l0,0
				c0.2-0.3,0.4-0.5,0.5-0.8l0,0c-0.1-0.4-0.2-0.7-0.5-1c-1.5-2-5.4-2.7-5.4-2.7c6.7-8.8,8.3-17,8.4-21.9c0.1-1.4-0.1-2.8-0.3-4.1
				c-0.7-2.3-1.8-4.5-3.2-6.5c-0.3-0.5-0.5-0.7-0.5-0.7l-2,4.5c-3.6,1.8-9.7-2.8-9.7-2.8l3.8-14c1.6,0.4,5-1.4,6.6-2.2
				c0.6-1.1,1.4-2,2.3-2.8l1.8,2.1c0.7,0.8,1.3,1.7,1.7,2.7l4.4,9.3l0.9,1.9l-0.2-12.4c0-1.1,0.1-2.1,0.4-3.2l0.6-2.7
				c1.2,0.3,2.3,0.8,3.3,1.5c1.8,0.1,5.6,0.2,6.9-0.9l9.6,10.9c0,0-3.4,6.8-7.5,6.8l-3.8-3.2c0,0-0.3,1.6-0.4,3.6
				c-0.1,1.5,0,3,0.2,4.5c0.4,1.3,0.9,2.6,1.5,3.8C122.4,101,127.4,107.6,137.3,112.6z"/>
			<path class="st3" d="M133.6,118.5L133.6,118.5c0.3,0.2,0.5,0.4,0.8,0.5c0,0,0,0,0,0c0,0-0.1,0.1-0.1,0.1c-0.5,0-1,0-1.5,0.1
				c-2.6,0.3-5.1,1.6-6.8,3.6c-0.1,0.2-0.3,0.3-0.4,0.5l-0.3,0.2c0.2,0.2,0.4,0.5,0.5,0.7c-0.5-0.2-1-0.3-1.5-0.4l0,0
				c-4.4-0.7-8.9,0.3-12.6,2.9l0,0c-0.4,0.3-0.8,0.6-1.2,1c0.1-0.3,0.1-0.6,0.2-0.9l-0.4-0.1c-0.2-0.1-0.4-0.2-0.6-0.3
				c-2.4-1.1-5.2-1.2-7.7-0.3l0,0c-0.5,0.2-0.9,0.4-1.3,0.6l0,0c0,0-0.1,0-0.1-0.1l0,0c0.2-0.3,0.4-0.5,0.5-0.8l0,0
				c-0.1-0.4-0.2-0.7-0.5-1c-1.5-2-5.4-2.7-5.4-2.7c6.7-8.8,8.3-17,8.4-21.9c2.5,0.5,5.1,0.5,7.7,0c0.3-0.1,0.6-0.1,1-0.2
				s0.6-0.2,0.9-0.3c2.5-0.7,4.8-1.9,6.9-3.4c2.3,4.4,7.3,11,17.2,16c0,0-3.3,2.3-3.7,4.8C133.5,117.7,133.6,118.1,133.6,118.5z"/>
			<g>
				<path class="st3" d="M109.4,87.9c-6,0.4-10.1-4.7-10.1-4.7s3.4-2.8,2-4.5c-1.4-1.7-4-0.1-4-0.1c0-1.4,0.4-2.8,1.2-4
					c0.6-1.1,1.4-2,2.3-2.8l1.8,2.1c0.7,0.8,1.3,1.7,1.7,2.7L109.4,87.9z"/>
				<path class="st3" d="M116.5,79.2c0,0-1.5,6.4-7,8.7l-0.2-12.4c0-1.1,0.1-2.1,0.4-3.2l0.6-2.7c1.2,0.3,2.3,0.8,3.3,1.5
					c1.2,0.8,2.1,1.8,2.8,3.1c0,0-3.1-0.3-3.6,1.8C112.2,78.2,116.5,79.2,116.5,79.2z"/>
			</g>
		</g>
		<g>
			<path class="st2" d="M150,74.5c0,0-7.1,0-9.4,2.1c0,0-7.1,3.5-10.8,7.9l-1.5,2.3l9.6,7.7l-5.9,23.3c-0.1,0.5,0.2,0.9,0.6,1
				l24.9,6.3c0.5,0.1,0.9-0.2,1-0.6l5.9-23.3l12.1-2.3l-0.2-2.7c-1.2-5.6-5.8-12.1-5.8-12.1c-1-2.9-7.3-6.3-7.3-6.3L150,74.5
				L150,74.5z"/>
			<path class="st4" d="M162.2,74.9l-4.2,9.6l-2.9-2.5l-3.7,0.8l0.8-10.4c1.5,1,3.1,1.7,4.8,2.1C158.7,74.9,160.5,75.1,162.2,74.9z"
				/>
			<path class="st3" d="M138.7,91.1l-0.8,3.3l-9.6-7.7l1.5-2.3c3.8-4.4,10.8-7.9,10.8-7.9s-0.5,7.1-1.4,12.3c-0.1,0.5-0.2,1-0.3,1.4
				c0,0.2-0.1,0.3-0.1,0.5C138.8,90.9,138.7,91,138.7,91.1z"/>
			<path class="st3" d="M176.5,98.8l-12.1,2.3l0.8-3.3c0-0.1,0.1-0.2,0.1-0.3c0-0.2,0.1-0.3,0.1-0.5c0.1-0.4,0.3-0.9,0.4-1.4
				c1.6-5,4.6-11.5,4.6-11.5s4.6,6.5,5.8,12.1L176.5,98.8z"/>
			<polygon class="st5" points="155.1,82 149.5,83.2 150,74.5 152.2,72.4 			"/>
			<polygon class="st5" points="163.3,77.8 159.5,85.7 155.1,82 162.2,74.9 			"/>
		</g>
		<g>
			<g>
				<g>
					<path class="st6" d="M93.7,160.5h52.7v-43.9H93.7V160.5z"/>
					<path class="st7" d="M131.2,116.6v43.9h37.5v-43.9H131.2L131.2,116.6z"/>
					<rect x="88.4" y="150.1" class="st8" width="85.6" height="15"/>
					<rect x="88.4" y="131" class="st8" width="85.6" height="15"/>
					<rect x="88.4" y="111.9" class="st8" width="85.6" height="15"/>
					<rect x="131.2" y="131" class="st9" width="42.8" height="15"/>
					<rect x="131.2" y="150.1" class="st9" width="42.8" height="15"/>
					<rect x="131.2" y="111.9" class="st9" width="42.8" height="15"/>
				</g>
			</g>
			<g>
				<circle class="st9" cx="179.8" cy="174.8" r="5.6"/>
				<path class="st8" d="M179.8,176.7L179.8,176.7c-1.1,0-2.1-0.8-2.3-1.9l-1.6-7.8h7.7l-1.6,7.8
					C181.9,175.9,180.9,176.7,179.8,176.7z"/>
				<path class="st2" d="M187.6,169.2H73.6c-1.2,0-2.2-1-2.2-2.2V88c0-1.8-0.7-3.5-2-4.7l-8.6-8.6c-0.9-0.9-0.9-2.3,0-3.2
					c0.9-0.9,2.3-0.9,3.2,0l8.6,8.6c2.1,2.1,3.3,4.9,3.3,7.9v76.8h111.8c1.2,0,2.2,1,2.2,2.2C189.9,168.2,188.9,169.2,187.6,169.2z"
					/>
				<circle class="st9" cx="71.3" cy="169.2" r="11.2"/>
				<g>
					<circle class="st8" cx="71.3" cy="169.2" r="6.7"/>
					<path class="st8" d="M69.1,82c-0.6,0-1.1-0.2-1.6-0.7l-6.7-6.7c-0.9-0.9-0.9-2.3,0-3.2c0.9-0.9,2.3-0.9,3.2,0l6.7,6.7
						c0.9,0.9,0.9,2.3,0,3.2C70.2,81.8,69.7,82,69.1,82z"/>
				</g>
				<circle class="st2" cx="71.3" cy="169.2" r="2.2"/>
			</g>
		</g>
	</g>
</g>
</svg>
