<?xml version="1.0" encoding="utf-8"?>
<!-- Generator: Adobe Illustrator 22.1.0, SVG Export Plug-In . SVG Version: 6.00 Build 0)  -->
<svg version="1.1" id="Layer_1" xmlns="http://www.w3.org/2000/svg" xmlns:xlink="http://www.w3.org/1999/xlink" x="0px" y="0px"
	 viewBox="0 0 250 250" style="enable-background:new 0 0 250 250;" xml:space="preserve">
<style type="text/css">
	.st0{fill-rule:evenodd;clip-rule:evenodd;fill:#ECF7FC;}
	.st1{fill-rule:evenodd;clip-rule:evenodd;fill:#88D7FA;}
	.st2{fill:#45ACE4;}
	.st3{fill:#64ED80;}
	.st4{fill:none;stroke:#FFFFFF;stroke-width:2;stroke-miterlimit:10;}
	.st5{fill:#FFFFFF;}
	.st6{fill:#3EC153;}
</style>
<g>
	<path class="st0" d="M125,2.5c67.7,0,122.5,54.8,122.5,122.5S192.7,247.5,125,247.5S2.5,192.7,2.5,125S57.3,2.5,125,2.5z"/>
	<g>
		<g>
			<path class="st1" d="M43.3,44.2V44c3.8-3.4,6.3-5.8,7.5-7c1.2-1.2,2.1-2.4,2.8-3.5c0.7-1.1,1.2-2.2,1.6-3.4
				c0.3-1.1,0.5-2.4,0.5-3.8c0-1.8-0.5-3.4-1.5-4.9c-1-1.5-2.3-2.6-4.1-3.4c-1.8-0.8-3.8-1.2-6-1.2c-1.8,0-3.4,0.2-4.8,0.5
				c-1.4,0.4-2.7,0.9-4,1.6c-1.2,0.7-2.7,1.8-4.5,3.4l5.1,6c1.4-1.2,2.7-2.1,3.8-2.8c1.1-0.6,2.2-0.9,3.3-0.9c1.1,0,1.9,0.3,2.5,0.8
				c0.6,0.5,0.9,1.2,0.9,2.1c0,0.7-0.1,1.4-0.4,2.1c-0.3,0.7-0.8,1.5-1.5,2.4c-0.7,0.9-2.3,2.6-4.7,5.2l-8.4,8.5v6.1h25.1v-7.7H43.3
				z"/>
		</g>
	</g>
	<g>
		<path class="st2" d="M156.2,181.2H89c-3.2,0-5.8-2.6-5.8-5.8V74.6c0-3.2,2.6-5.8,5.8-5.8h67.2c3.2,0,5.8,2.6,5.8,5.8v100.8
			C162,178.6,159.4,181.2,156.2,181.2z"/>
		<circle class="st3" cx="104.1" cy="86.2" r="8.1"/>
		<path class="st3" d="M90.3,110.5c0-7.6,6.2-13.8,13.8-13.8s13.8,6.2,13.8,13.8H90.3z"/>
		<line class="st4" x1="104.3" y1="131.4" x2="152.7" y2="131.4"/>
		<line class="st4" x1="92.2" y1="144.3" x2="140.6" y2="144.3"/>
		<line class="st4" x1="93.5" y1="157.2" x2="132.2" y2="157.2"/>
		<line class="st4" x1="92.4" y1="170.2" x2="144.6" y2="170.2"/>
		<path class="st3" d="M186.5,114.9H133c-2.3,0-4.2-1.9-4.2-4.2V83.5c0-2.3,1.9-4.2,4.2-4.2h53.5c2.3,0,4.2,1.9,4.2,4.2v27.2
			C190.7,113,188.8,114.9,186.5,114.9z"/>
		<path class="st5" d="M162.7,98.8c0-2,0-3.9,0-5.9c0,0,0-0.1,0-0.1c0-0.1,0-0.1,0.1-0.1c0.7,0,1.4,0,2.1,0c0.1,0,0.1,0,0.1,0.1
			c0,0.2,0.1,0.3,0.1,0.5c0,0.1,0,0.1,0.1,0c0.3-0.3,0.6-0.5,1-0.6c1-0.3,2-0.1,2.9,0.5c0.6,0.5,1,1.1,1.3,1.8
			c0.2,0.5,0.3,1,0.3,1.5c0.1,0.8,0,1.6-0.1,2.4c-0.2,0.8-0.4,1.5-0.9,2c-0.5,0.6-1.2,1-2,1.1c-0.8,0.1-1.5-0.1-2.2-0.5
			c0,0-0.1-0.1-0.1,0c0,0,0,0.1,0,0.1c0,0.9,0,1.8,0,2.7c0,0.1,0,0.1-0.1,0.1c-0.8,0.2-1.6,0.3-2.4,0.5c-0.1,0-0.1,0-0.1-0.1
			C162.7,102.8,162.7,100.8,162.7,98.8z M168.2,97.2c0-0.2,0-0.4,0-0.6c-0.1-0.5-0.2-0.9-0.5-1.3c-0.2-0.3-0.5-0.4-0.8-0.5
			c-0.5-0.1-1,0-1.4,0.4c-0.1,0.1-0.1,0.1-0.1,0.2c0,1.2,0,2.4,0,3.7c0,0.1,0,0.1,0.1,0.2c0.1,0.1,0.3,0.2,0.4,0.3
			c0.4,0.2,0.9,0.2,1.3,0c0.3-0.2,0.5-0.4,0.6-0.7C168.1,98.4,168.2,97.9,168.2,97.2z"/>
		<path class="st5" d="M176.7,98.3c-0.8,0-1.6,0-2.4,0c-0.1,0-0.1,0-0.1,0.1c0.1,0.4,0.3,0.8,0.6,1.1c0.3,0.2,0.6,0.3,1,0.3
			c1,0.1,2-0.1,2.9-0.5c0.1,0,0.1,0,0.1,0.1c0,0.6,0,1.3,0,1.9c0,0.1,0,0.1-0.1,0.1c-0.6,0.3-1.2,0.5-1.8,0.6
			c-0.4,0.1-0.8,0.1-1.1,0.1c-0.9,0-1.7-0.2-2.4-0.7c-0.7-0.5-1.2-1.1-1.5-1.9c-0.2-0.5-0.3-1.1-0.3-1.7c-0.1-0.9,0-1.7,0.3-2.6
			c0.2-0.7,0.6-1.2,1.1-1.7c0.6-0.5,1.2-0.8,2-0.9c0.7-0.1,1.3,0,1.9,0.2c0.7,0.3,1.3,0.8,1.7,1.5c0.4,0.6,0.6,1.2,0.7,1.9
			c0.1,0.4,0.1,0.9,0.1,1.3c0,0.2,0,0.4,0,0.7c0,0.1,0,0.1-0.1,0.1C178.3,98.3,177.5,98.3,176.7,98.3z M175.5,96.3
			c0.4,0,0.8,0,1.2,0c0.1,0,0.1,0,0.1-0.1c0-0.3-0.1-0.6-0.2-0.9c-0.4-0.8-1.4-0.9-2-0.3c-0.3,0.3-0.4,0.7-0.5,1.2
			c0,0.1,0,0.1,0.1,0.1C174.7,96.3,175.1,96.3,175.5,96.3z"/>
		<path class="st5" d="M140.3,100.2c0-0.4,0-0.8,0-1.1c0-0.1,0-0.1,0.1-0.1c0.6,0.3,1.3,0.6,2,0.7c0.4,0.1,0.8,0.1,1.1,0
			c0.1,0,0.3-0.1,0.4-0.1c0.3-0.2,0.3-0.7-0.1-0.9c-0.2-0.1-0.4-0.2-0.7-0.3c-0.5-0.2-0.9-0.3-1.4-0.5c-0.5-0.2-1-0.5-1.3-1
			c-0.2-0.3-0.3-0.7-0.4-1.1c0-0.4,0-0.8,0.1-1.1c0.2-0.8,0.8-1.3,1.5-1.7c0.5-0.2,0.9-0.3,1.4-0.3c1-0.1,2,0.1,2.9,0.4
			c0.1,0,0.1,0.1,0.1,0.2c0,0.7,0,1.5,0,2.2c0,0.1,0,0.1-0.1,0.1c-0.7-0.3-1.5-0.6-2.3-0.6c-0.2,0-0.5,0-0.7,0.1
			c-0.2,0.1-0.3,0.2-0.4,0.4c0,0.2,0.1,0.4,0.2,0.5c0.2,0.1,0.4,0.2,0.7,0.3c0.4,0.1,0.8,0.3,1.2,0.4c0.4,0.2,0.8,0.4,1.1,0.7
			c0.4,0.4,0.6,0.8,0.7,1.4c0.1,0.6,0,1.1-0.2,1.6c-0.2,0.6-0.7,1-1.2,1.3c-0.5,0.3-1.1,0.4-1.7,0.5c-1.1,0.1-2.2-0.1-3.3-0.5
			c-0.1,0-0.1-0.1-0.1-0.1C140.3,101,140.3,100.6,140.3,100.2z"/>
		<path class="st5" d="M147.8,96.7c0-0.9,0-1.7,0-2.6c0-1,0-2,0-3.1c0-0.1,0-0.1,0.1-0.1c0.8-0.2,1.5-0.3,2.3-0.5
			c0.1,0,0.1,0,0.1,0.1c0,0.7,0,1.3,0,2c0,0.1,0,0.1,0.1,0.1c0.6,0,1.1,0,1.7,0c0.1,0,0.1,0,0.1,0.1c0,0.7,0,1.3,0,2
			c0,0.1,0,0.1-0.1,0.1c-0.6,0-1.1,0-1.7,0c-0.1,0-0.1,0-0.1,0.1c0,1.2,0,2.4,0,3.6c0,0.1,0,0.2,0,0.3c0.1,0.4,0.4,0.6,0.8,0.7
			c0.3,0,0.7,0,1-0.1c0.1,0,0.1,0,0.1,0.1c0,0.6,0,1.3,0,1.9c0,0.1,0,0.1-0.1,0.2c-0.3,0.1-0.6,0.2-1,0.3c-0.3,0-0.5,0-0.8,0
			c-1.4,0-2.5-1-2.6-2.3c0-0.1,0-0.3,0-0.4C147.8,98.4,147.8,97.6,147.8,96.7C147.8,96.7,147.8,96.7,147.8,96.7z"/>
		<path class="st5" d="M155.7,93.5c0.1-0.1,0.1-0.2,0.2-0.3c0.3-0.4,0.7-0.5,1.1-0.6c0.2,0,0.5,0,0.7,0.1c0.1,0,0.1,0.1,0.1,0.1
			c0,0.7,0,1.5,0,2.2c0,0.1,0,0.1-0.1,0.1c-0.5-0.1-1.1-0.1-1.5,0.2c-0.1,0-0.1,0.1-0.2,0.1c-0.1,0.1-0.2,0.2-0.2,0.4
			c0,1.9,0,3.9,0,5.8c0,0.2,0,0.2-0.2,0.2c-0.8,0-1.5,0-2.3,0c-0.1,0-0.1,0-0.1-0.1c0-3,0-5.9,0-8.9c0-0.1,0-0.1,0.1-0.1
			c0.7,0,1.3,0,2,0c0.1,0,0.1,0,0.2,0.1C155.6,93,155.7,93.2,155.7,93.5z"/>
		<path class="st5" d="M159,97.3c0-1.5,0-2.9,0-4.4c0-0.2,0-0.2,0.2-0.2c0.8,0,1.6,0,2.3,0c0.1,0,0.1,0,0.1,0.1c0,2.9,0,5.9,0,8.8
			c0,0.1,0,0.1-0.1,0.1c-0.8,0-1.6,0-2.3,0c-0.1,0-0.1,0-0.1-0.1C159,100.2,159,98.8,159,97.3z"/>
		<path class="st5" d="M159,90.9c0-0.3,0-0.6,0-0.9c0-0.2,0-0.2,0.2-0.2c0.8-0.2,1.6-0.3,2.4-0.5c0.1,0,0.1,0,0.1,0.1
			c0,0.6,0,1.3,0,1.9c0,0.1,0,0.1-0.1,0.1c-0.8,0.2-1.6,0.3-2.4,0.5c-0.1,0-0.1,0-0.1-0.1C159,91.5,159,91.2,159,90.9z"/>
		<path class="st2" d="M66.6,119.8c1.1-0.6,1.6-1.9,1-3l-2.6-5.4c-0.6-1.1-1.9-1.6-3-1l-1.4,0.7c-1.1,0.6-1.6,1.9-1,3l2.7,5.4
			c0.6,1.1,1.9,1.6,3,1L66.6,119.8z"/>
		<path class="st3" d="M83.3,164.3c-0.2-0.2-0.3-0.4-0.4-0.6l-19.2-38.9l-1.1-2.3l-1-2c0,0,0-0.1-0.1-0.1c-0.5-1.1,0-2.4,1.1-2.9
			l3.3-1.6c1.1-0.6,2.5-0.1,3,1l1,2l1.1,2.3l19.2,38.9c0.1,0.2,0.2,0.5,0.2,0.8c0,0.1,0.1,0.2,0.1,0.3c0.5,2.8-0.8,5.7-1.4,6
			C88.3,167.5,85.1,166.7,83.3,164.3z"/>
		<path class="st5" d="M90.2,169.7c0.4-0.2,0.5-0.6,0.3-1l-1.7-3.5c-0.2-0.4-0.6-0.5-1-0.3l0,0c-0.4,0.2-0.5,0.6-0.3,1l1.7,3.5
			C89.3,169.7,89.8,169.9,90.2,169.7L90.2,169.7z"/>
		<path class="st6" d="M89.1,167.2c-0.7,0.4-4-0.5-5.8-2.8c-0.2-0.2-0.3-0.4-0.4-0.6l-19.2-38.9l-1.1-2.3l-1-2c0,0,0-0.1-0.1-0.1
			l29,40.8C91,164,89.7,166.9,89.1,167.2z"/>
		
			<rect x="62.6" y="120.6" transform="matrix(0.8969 -0.4423 0.4423 0.8969 -47.0063 42.0786)" class="st2" width="8.2" height="2.5"/>
		<path class="st2" d="M72.3,135.2c0.5-0.2,0.6-0.8,0.4-1.2l-7.3-14.8c-0.2-0.5-0.8-0.6-1.2-0.4l0,0c-0.5,0.2-0.6,0.8-0.4,1.2
			l7.3,14.8C71.3,135.2,71.8,135.4,72.3,135.2L72.3,135.2z"/>
	</g>
</g>
</svg>
