<?xml version="1.0" encoding="utf-8"?>
<!-- Generator: Adobe Illustrator 22.1.0, SVG Export Plug-In . SVG Version: 6.00 Build 0)  -->
<svg version="1.1" id="Layer_1" xmlns="http://www.w3.org/2000/svg" xmlns:xlink="http://www.w3.org/1999/xlink" x="0px" y="0px"
	 viewBox="0 0 250 250" style="enable-background:new 0 0 250 250;" xml:space="preserve">
<style type="text/css">
	.st0{fill-rule:evenodd;clip-rule:evenodd;fill:#ECF7FC;}
	.st1{fill:#8BDBF7;}
	.st2{fill:#61C9F7;}
	.st3{fill:#45ACE4;}
	.st4{fill:none;stroke:#FFFFFF;stroke-width:2;stroke-miterlimit:10;}
	.st5{fill:#3EC153;}
	.st6{fill:#64ED80;}
	.st7{fill-rule:evenodd;clip-rule:evenodd;fill:#88D7FA;}
</style>
<g>
	<path class="st0" d="M125,2.5c67.7,0,122.5,54.8,122.5,122.5S192.7,247.5,125,247.5S2.5,192.7,2.5,125S57.3,2.5,125,2.5z"/>
	<g>
		<g>
			<g>
				<path class="st1" d="M171.2,181.9H104c-3.2,0-5.8-2.6-5.8-5.8V75.3c0-3.2,2.6-5.8,5.8-5.8h67.2c3.2,0,5.8,2.6,5.8,5.8v100.8
					C177,179.3,174.4,181.9,171.2,181.9z"/>
				<path class="st2" d="M157.3,181.9H90.1c-3.2,0-5.8-2.6-5.8-5.8V75.3c0-3.2,2.6-5.8,5.8-5.8h67.2c3.2,0,5.8,2.6,5.8,5.8v100.8
					C163.1,179.3,160.5,181.9,157.3,181.9z"/>
				<path class="st3" d="M144.6,181.9H77.4c-3.2,0-5.8-2.6-5.8-5.8V75.3c0-3.2,2.6-5.8,5.8-5.8h67.2c3.2,0,5.8,2.6,5.8,5.8v100.8
					C150.4,179.3,147.8,181.9,144.6,181.9z"/>
			</g>
			<g>
				<g>
					<line class="st4" x1="92.7" y1="143.7" x2="141.1" y2="143.7"/>
					<line class="st4" x1="80.6" y1="143.7" x2="87.3" y2="143.7"/>
				</g>
				<g>
					<line class="st4" x1="92.7" y1="164.5" x2="141.1" y2="164.5"/>
					<line class="st4" x1="80.6" y1="164.5" x2="87.3" y2="164.5"/>
				</g>
				<g>
					<line class="st4" x1="129" y1="154.1" x2="80.6" y2="154.1"/>
					<line class="st4" x1="141.1" y1="154.1" x2="134.4" y2="154.1"/>
				</g>
			</g>
			<g>
				<g>
					<path class="st5" d="M126.7,88.6l-16-4.2l-16,4.2c0,0-4,29.9,16,37C130.7,118.5,126.7,88.6,126.7,88.6z"/>
					<path class="st6" d="M110.7,84.4v41.2c-20-7.2-16-37-16-37L110.7,84.4z"/>
				</g>
				<g>
					<line class="st4" x1="110.4" y1="82.2" x2="110.4" y2="129.7"/>
					<line class="st4" x1="86.7" y1="106" x2="134.2" y2="106"/>
				</g>
			</g>
		</g>
		<g>
			<g>
				<path class="st7" d="M47.5,33.9v-0.1c2.5-0.7,4.4-1.8,5.7-3.3c1.3-1.5,2-3.4,2-5.5c0-2.5-1-4.4-3-5.9s-4.8-2.1-8.4-2.1
					c-2.5,0-4.7,0.3-6.6,0.8c-1.9,0.5-3.8,1.4-5.6,2.7l3.9,6.2c2.4-1.5,4.6-2.2,6.8-2.2c1.2,0,2.1,0.2,2.8,0.7
					c0.7,0.4,1.1,1.1,1.1,2c0,2.4-2.4,3.6-7.1,3.6h-2.2v7H39c1.7,0,3.2,0.1,4.2,0.4c1.1,0.3,1.9,0.6,2.4,1.2
					c0.5,0.5,0.7,1.2,0.7,2.2c0,1.2-0.5,2.1-1.4,2.7C44,44.8,42.5,45,40.4,45c-1.3,0-2.8-0.2-4.3-0.6c-1.6-0.4-3.1-0.9-4.6-1.7v7.7
					c1.8,0.7,3.6,1.2,5.1,1.5c1.6,0.3,3.3,0.4,5.2,0.4c4.5,0,8-0.9,10.6-2.8c2.5-1.8,3.8-4.4,3.8-7.6C56.2,37.3,53.3,34.6,47.5,33.9
					z"/>
			</g>
		</g>
	</g>
</g>
</svg>
