<?xml version="1.0" encoding="utf-8"?>
<!-- Generator: Adobe Illustrator 22.1.0, SVG Export Plug-In . SVG Version: 6.00 Build 0)  -->
<svg version="1.1" id="Layer_1" xmlns="http://www.w3.org/2000/svg" xmlns:xlink="http://www.w3.org/1999/xlink" x="0px" y="0px"
	 viewBox="0 0 250 250" style="enable-background:new 0 0 250 250;" xml:space="preserve">
<style type="text/css">
	.st0{fill-rule:evenodd;clip-rule:evenodd;fill:#ECF7FC;}
	.st1{fill:#45ACE4;}
	.st2{fill:#64ED80;}
	.st3{fill:none;stroke:#FFFFFF;stroke-width:2;stroke-miterlimit:10;}
	.st4{fill:#3BA3D1;}
	.st5{fill:#3EC153;}
	.st6{fill:#61C9F7;}
	.st7{fill:none;stroke:#45ACE4;stroke-miterlimit:10;}
	.st8{fill:none;stroke:#45ACE4;stroke-linecap:round;stroke-linejoin:round;stroke-miterlimit:10;}
	.st9{fill-rule:evenodd;clip-rule:evenodd;fill:#88D7FA;}
</style>
<g>
	<path class="st0" d="M125,2.5c67.7,0,122.5,54.8,122.5,122.5S192.7,247.5,125,247.5S2.5,192.7,2.5,125S57.3,2.5,125,2.5z"/>
	<g>
		<g>
			<path class="st1" d="M151.2,175.4H91c-2.9,0-5.2-2.3-5.2-5.2V79.8c0-2.9,2.3-5.2,5.2-5.2h60.3c2.9,0,5.2,2.3,5.2,5.2v90.4
				C156.4,173.1,154.1,175.4,151.2,175.4z"/>
			<g>
				<circle class="st2" cx="135.7" cy="90.2" r="7.3"/>
				<path class="st2" d="M123.4,112c0-6.8,5.5-12.4,12.4-12.4s12.4,5.5,12.4,12.4H123.4z"/>
			</g>
			<g>
				<line class="st3" x1="104.7" y1="130.7" x2="148.1" y2="130.7"/>
				<line class="st3" x1="93.9" y1="142.3" x2="137.3" y2="142.3"/>
				<line class="st3" x1="95" y1="153.9" x2="129.8" y2="153.9"/>
				<line class="st3" x1="94.1" y1="165.5" x2="140.8" y2="165.5"/>
			</g>
			<g>
				<g>
					<path class="st4" d="M183.1,131.6c-0.3,0-0.5-0.1-0.7-0.2c-0.7-0.4-1-1.3-0.5-2.1l8.3-14.3l-3.3-1.9c-0.7-0.4-1-1.3-0.5-2.1
						c0.4-0.7,1.3-1,2.1-0.5l4.6,2.7c0.7,0.4,1,1.3,0.5,2.1l-9,15.6C184.1,131.3,183.6,131.6,183.1,131.6z"/>
					<path class="st2" d="M167.8,144.8l-13.1-7.6c-0.3-0.2-0.4-0.5-0.2-0.8l19-32.8c2.2-3.9,7.2-5.2,11.1-3l0,0
						c3.9,2.2,5.2,7.2,3,11.1l-19,32.8C168.4,144.9,168,145,167.8,144.8z"/>
					<path class="st5" d="M184.5,100.6c1.8,1,2.4,3.3,1.3,5l-21.2,36.7c-0.2,0.3-0.5,0.4-0.8,0.2l-2.7-1.6l6.6,3.8
						c0.3,0.2,0.6,0.1,0.8-0.2l19-32.8C189.8,107.9,188.4,102.9,184.5,100.6z"/>
					<path class="st6" d="M166.2,144.5l-12.6,19.4c0,0-0.1,0.1-0.1,0.1l-8.7,6.3c-0.3,0.2-0.7,0-0.7-0.4l1.1-10.7c0-0.1,0-0.1,0-0.2
						l10.7-21l10.1,5.8C166.3,143.9,166.3,144.2,166.2,144.5z"/>
					<polyline class="st4" points="145.4,169.8 153.6,163.9 166.5,144.1 162.2,141.6 150.2,162 144.9,169.5 					"/>
				</g>
				<path class="st2" d="M153.6,163.9l-8.9,6.4c-0.3,0.2-0.6,0-0.6-0.4l1.1-10.9L153.6,163.9z"/>
				<path class="st5" d="M150.2,162l3.4,2l-8.9,6.4c-0.2,0.1-0.3,0.1-0.5,0L150.2,162z"/>
			</g>
		</g>
		<g>
			<path class="st2" d="M110.2,118.2H60.3c-2.2,0-4-1.8-4-4V89c0-2.2,1.8-4,4-4h49.9c2.2,0,4,1.8,4,4v25.3
				C114.1,116.5,112.4,118.2,110.2,118.2z"/>
			<rect x="56.4" y="90.5" class="st6" width="57.8" height="7.9"/>
			<g>
				<line class="st7" x1="59.5" y1="101.8" x2="73" y2="101.8"/>
				<line class="st7" x1="76.2" y1="101.8" x2="89.6" y2="101.8"/>
			</g>
			<g>
				<line class="st8" x1="59.5" y1="106" x2="61.9" y2="106"/>
				<line class="st8" x1="63.8" y1="106" x2="66.1" y2="106"/>
				<line class="st8" x1="68" y1="106" x2="70.3" y2="106"/>
				<line class="st8" x1="72.2" y1="106" x2="74.6" y2="106"/>
			</g>
			<circle class="st1" cx="96.3" cy="109.1" r="5.5"/>
			<circle class="st5" cx="103.1" cy="109.5" r="5.5"/>
		</g>
	</g>
	<g>
		<g>
			<path class="st9" d="M43.7,17.4l-11.9,9.7l4.8,5.9l3.9-3.2c0.9-0.8,1.6-1.5,2.2-2.2c-0.1,1.8-0.1,3.9-0.1,6.1v18.3h9.5V17.4H43.7
				z"/>
		</g>
	</g>
</g>
</svg>
