<?xml version="1.0" encoding="utf-8"?>
<!-- Generator: Adobe Illustrator 22.1.0, SVG Export Plug-In . SVG Version: 6.00 Build 0)  -->
<svg version="1.1" id="Layer_1" xmlns="http://www.w3.org/2000/svg" xmlns:xlink="http://www.w3.org/1999/xlink" x="0px" y="0px"
	 viewBox="0 0 250 250" style="enable-background:new 0 0 250 250;" xml:space="preserve">
<style type="text/css">
	.st0{fill-rule:evenodd;clip-rule:evenodd;fill:#ECF7FC;}
	.st1{fill-rule:evenodd;clip-rule:evenodd;fill:#88D7FA;}
	.st2{fill:#64ED80;}
	.st3{fill:#45ACE4;}
	.st4{fill:#61C9F7;}
	.st5{fill:#FFDDAC;}
	.st6{fill:#FFFFFF;}
	.st7{opacity:0.2;}
	.st8{fill:#E8E6E7;}
	.st9{fill:#F5D0B8;}
	.st10{fill:#C73B2A;}
	.st11{fill:#4A4342;}
	.st12{fill:#666261;}
	.st13{fill:#3E2C38;}
	.st14{fill:#333333;}
	.st15{opacity:0.5;fill:#FFFFFF;}
	.st16{fill:#3D3736;}
	.st17{fill:#F4C48B;}
	.st18{fill:#FCD6A4;}
</style>
<g>
	<path class="st0" d="M125,2.5c67.7,0,122.5,54.8,122.5,122.5S192.7,247.5,125,247.5S2.5,192.7,2.5,125S57.3,2.5,125,2.5z"/>
	<g>
		<g>
			<path class="st1" d="M54.6,34.6c-0.9-1.7-2.1-3-3.7-3.9c-1.6-0.9-3.4-1.4-5.4-1.4c-0.4,0-0.9,0-1.4,0c-0.5,0-1.4,0.2-2.6,0.4
				l0.4-4.6h11.8v-7.8H33.9l-1.3,18.2l3.4,1.7c1.7-0.6,3.3-0.8,4.7-0.8c1.9,0,3.4,0.4,4.3,1.1c0.9,0.7,1.4,1.8,1.4,3.1
				c0,1.4-0.5,2.5-1.4,3.2c-0.9,0.7-2.3,1.1-4,1.1c-1.2,0-2.7-0.2-4.5-0.6C35,44,33.4,43.5,32,42.9v7.6c2.5,1.2,5.8,1.9,9.9,1.9
				c4.7,0,8.2-1,10.5-3.1c2.3-2.1,3.5-5,3.5-8.9C55.9,38.2,55.5,36.3,54.6,34.6z"/>
		</g>
	</g>
	<g>
		<path class="st2" d="M121.2,193.3c-0.2,0.6-0.5,1.3-0.4,2c0.1,1.3,1.1,2.3,2.2,2.9c1.3,0.7,2.7,1,4.2,1.3
			c4.1,0.8,8.4,1.4,12.4,0.2c0.4-0.1,0.9-0.3,1.2-0.6c0.5-0.5,0.6-1.3,0.3-2s-0.8-1.1-1.5-1.5c-0.6-0.3-1.3-0.5-2-0.8
			c-3.4-1.2-6.5-3.3-8.9-6c-0.2-0.3-0.5-0.5-0.8-0.7c-0.3-0.1-0.6-0.1-1,0c-0.8,0.1-1.6,0.2-2.4,0.3c-0.5,0.1-1.4,0-1.7,0.5
			c-0.3,0.6-0.5,1.4-0.7,2C121.8,191.7,121.5,192.5,121.2,193.3z"/>
		<path class="st2" d="M116,193.3c0.2,0.6,0.5,1.3,0.4,2c-0.1,1.3-1.1,2.3-2.2,2.9c-1.3,0.7-2.7,1-4.2,1.3
			c-4.1,0.8-8.4,1.4-12.4,0.2c-0.4-0.1-0.9-0.3-1.2-0.6c-0.5-0.5-0.6-1.3-0.3-2s0.8-1.1,1.5-1.5c0.6-0.3,1.3-0.5,2-0.8
			c3.4-1.2,6.5-3.3,8.9-6c0.2-0.3,0.5-0.5,0.8-0.7c0.3-0.1,0.6-0.1,1,0c0.8,0.1,1.6,0.2,2.4,0.3c0.5,0.1,1.4,0,1.7,0.5
			c0.3,0.6,0.5,1.4,0.7,2C115.4,191.7,115.7,192.5,116,193.3z"/>
		<path class="st3" d="M99.5,154.8c0,0,5.2,24.3,7.8,32.1h8.8c0,0-1.1-19.6-0.7-26.3c0,0,2.7,0.3,3.5,0.1v-5.8L99.5,154.8z"/>
		<path class="st4" d="M115.4,189.9h-7.7c-0.7,0-1.2-0.5-1.2-1.2v-1.3c0-0.7,0.5-1.2,1.2-1.2h7.7c0.7,0,1.2,0.5,1.2,1.2v1.3
			C116.7,189.4,116.1,189.9,115.4,189.9z"/>
		<path class="st3" d="M137.9,154.8c0,0-5.3,24.3-7.8,32.1h-8.8c0,0,1.2-19.6,0.7-26.3c0,0-2.7,0.3-3.5,0.1v-5.8L137.9,154.8z"/>
		<path class="st4" d="M121.9,189.9h7.7c0.7,0,1.2-0.5,1.2-1.2v-1.3c0-0.7-0.5-1.2-1.2-1.2h-7.7c-0.7,0-1.2,0.5-1.2,1.2v1.3
			C120.7,189.4,121.2,189.9,121.9,189.9z"/>
		<path class="st5" d="M89.7,126.2c1.5-3.6,3.8-6.9,7-9.1c-0.7-1.4-1.8-2.6-3.1-3.5c-2-1.4-3,0.2-4.2,1.7c-1.3,1.6-2.5,3.4-3.5,5.2
			c-2,3.6-3.4,7.6-4.2,11.7c-0.4,2.3-0.6,4.6-0.6,7c0,3.6,0.6,7.2,1.2,10.8c0,0-0.9,4.3-0.4,5.6c0,0,0.3,3.6,2.7,4.9
			c0,0,2.2,1.4,2.4,0c0,0,3.1,1,2.9-1.5c0,0,3.4,1.1,2.8-2.2c0,0,2.6,0.2,1.2-2.4c0,0-0.3-0.6-0.4-2.5c0,0-0.2-2.1-2.5-2.8
			c0,0-0.2-0.5-1.8-2.7c-0.4-0.6-0.8-1.3-1-2c-0.8-2.2-0.9-4.6-0.7-7C87.6,133.7,88.2,129.8,89.7,126.2z"/>
		<path class="st6" d="M150.9,116.2l-6.8,7.1l-4.5-1.7l-3.3,24.7c0,0-4.5,2.5-17,2.3c-11.5,0.1-18.2-2.3-18.2-2.3l-2.6-24.7
			l-4.5,1.7l-6.8-7.1l16.2-10.4l0.4-0.3h0l13.7,0v0l1.4,0l1.4,0v0l13.7,0h0l0.2,0.2L150.9,116.2z"/>
		<path class="st4" d="M150,113.8l-3.7,12l-4.9-2.1l-3.6,31.2c0,0-4.9,3.1-18.6,2.8c-12.6,0.1-19.8-2.8-19.8-2.8l-2.9-31.2l-4.9,2.1
			l-3.5-12.1l13.7-10l0.5-0.4h0l7.5,4.2l9,28.1l9-28.4l7.6-4h0l0.3,0.2L150,113.8z"/>
		<polygon class="st7" points="106.6,99.8 101.6,103.8 101.7,113.8 105.7,115.7 103.1,118 119,135.6 		"/>
		<polygon class="st7" points="131.3,99.8 136.4,103.8 136.3,113.8 132.3,115.7 134.9,117.9 119,135.5 		"/>
		<polygon class="st2" points="118.9,135.6 124.2,129 120.8,116.3 122.7,112.1 118.9,109.4 118.9,109.3 118.9,109.3 118.8,109.3 
			118.8,109.4 115,112.1 116.9,116.3 113.5,129 118.8,135.6 118.8,135.7 118.9,135.6 118.9,135.7 		"/>
		<polygon class="st8" points="129.6,103.3 127,118 118.9,110.1 		"/>
		<polygon class="st8" points="108.1,103.3 110.9,117.8 118.8,110.1 		"/>
		<polygon class="st3" points="107.3,99.6 102.2,103.5 102.1,113.5 106,115.5 103.4,117.6 118.9,135.6 		"/>
		<polygon class="st3" points="130.5,99.6 135.6,103.5 135.7,113.5 131.8,115.5 134.5,117.6 118.9,135.6 		"/>
		<g>
			<path class="st7" d="M139.1,76.7v18c0,1-0.1,2-0.3,3c-0.6,2.1-1.7,4-3.1,5.6h0l0.3,0.2c-2.7,3.3-7,5.4-11.7,5.4c0,0-2.2,2-5.3,2
				c-3.1,0-5.3-2-5.3-2c-4.7,0-8.8-2.1-11.6-5.3l0.5-0.4h0c-2.3-2.5-3.7-5.8-3.7-9.3v-18c0-1,0.1-2,0.3-2.9
				c1.7-6,7.5-10.5,14.4-10.5h10.6C132.4,62.5,139.1,68.9,139.1,76.7z"/>
			<path class="st5" d="M139.3,75.9v18c0,1.3-0.2,2.5-0.5,3.7c-0.6,2.1-1.7,4-3.1,5.6c-2.7,3-6.8,4.9-11.3,4.9c0,0-2.2,2-5.3,2
				c-3.1,0-5.3-2-5.3-2c-4.5,0-8.5-1.9-11.3-4.9c-2.3-2.5-3.7-5.8-3.7-9.3v-18c0-1,0.1-2,0.3-2.9c1.4-6.4,7.5-11.3,14.6-11.3h10.6
				C132.6,61.7,139.3,68.1,139.3,75.9z"/>
			<path class="st6" d="M127.7,98.1c-0.7,2-2.6,4.3-7.2,5.5c0,0-6.8,2.1-9.9-5.1c-0.1-0.3-0.2-0.6-0.4-0.9c0,0,7.9,3.8,17.9-2.8
				C128.1,94.9,128.3,96.3,127.7,98.1z"/>
			<path class="st9" d="M118.3,104c-2.3,0-5.9-0.8-7.9-5.5c-0.1-0.3-0.2-0.6-0.4-0.9l-0.1-0.4l0.3,0.2c0.1,0,7.9,3.7,17.7-2.8
				l0.2-0.1l0,0.2c0,0.1,0.3,1.5-0.4,3.3v0c-0.7,1.9-2.5,4.4-7.3,5.6C120.5,103.8,119.6,104,118.3,104z M110.5,97.9
				c0.1,0.2,0.1,0.4,0.2,0.5c3.1,7,9.5,5.1,9.7,5c4.6-1.2,6.4-3.6,7.1-5.4v0c0.5-1.3,0.5-2.4,0.4-2.9
				C119.3,100.7,112.1,98.5,110.5,97.9z"/>
			<path class="st10" d="M127.7,98.1c-0.7,2-2.6,4.3-7.2,5.5c0,0-6.8,2.1-9.9-5.1C113.9,100.3,121,103.1,127.7,98.1z"/>
			<path class="st11" d="M139.9,93.8l-0.5,0.6c0,0-0.2-9.3-0.8-11.6c0,0-1.4-5.2-3.5-6.3c0,0,1.9-6.5-3-8.6c0,0-5.9,6-15.6,6
				c0,0-6.8,0.5-12.9-3.7c0,0-1.5,2.4-0.3,5.5c0,0-3.9,4.2-4.4,9.3c0,0-0.2,6.7,0.1,8.4c0,0-0.4-0.2-1.7-1.6
				c-1.1-1.2-1.6-2.7-1.9-4.3c-1.2-4.8-1.2-12-0.2-15.9c0,0,1.5-6.5,2.8-7c0,0-3-9.3-2.4-11.6c0,0,1.8,4.5,7.7,4c0,0-2.5-3.5-2-7.2
				c0,0,4.5,3.3,9.3,2.5c0,0,3.1-0.3,5-1.1c0.8-0.3,1.7-0.6,2.6-0.7c3.4-0.6,10.6-1.2,14.1,3.1c0,0,2.8,2.9,3.2,5.8
				c0,0,7.4,5.2,7.8,14.3c0,0,0.7,6.6-0.2,12.4c-0.3,2-0.9,4-1.9,5.8v0C141,92.4,140.5,93.1,139.9,93.8z"/>
			<path class="st12" d="M97.2,56.7c0,0,6,21,27.8,13.5C125,70.2,103.5,71.6,97.2,56.7z"/>
			<path class="st12" d="M103.1,52.8c0,0,6.8,18.4,25.8,10.3C128.9,63.1,109.8,65.7,103.1,52.8z"/>
			<path class="st13" d="M109.2,84.4c-0.5,0.5-0.7,1.2-0.4,1.8c0.2,0.4,0.5,0.8,1,1c0.4,0.2,0.9,0.3,1.4,0.2c0.6,0,1.1-0.2,1.6-0.5
				c0.4-0.3,0.8-0.9,0.8-1.4c0-0.6-0.3-1.1-0.8-1.4c-0.8-0.5-2-0.6-2.8-0.2C109.6,84,109.4,84.2,109.2,84.4z"/>
			<path class="st6" d="M111.5,84.1c-0.2,0-0.4,0.1-0.5,0.2c-0.1,0.2-0.1,0.4,0,0.6c0.2,0.4,0.4,0.7,0.8,0.9
				c0.2,0.1,0.5,0.2,0.8,0.1c0.2-0.1,0.3-0.3,0.3-0.6c0-0.2-0.1-0.5-0.2-0.6C112.3,84.4,111.9,84.1,111.5,84.1z"/>
			<path class="st13" d="M125.5,84.4c-0.5,0.5-0.7,1.2-0.4,1.8c0.2,0.4,0.5,0.8,1,1c0.4,0.2,0.9,0.3,1.4,0.2c0.6,0,1.1-0.2,1.6-0.5
				c0.4-0.3,0.8-0.9,0.8-1.4c0-0.6-0.3-1.1-0.8-1.4c-0.8-0.5-2-0.6-2.8-0.2C126,84,125.7,84.2,125.5,84.4z"/>
			<path class="st6" d="M127.8,84.1c-0.2,0-0.4,0.1-0.5,0.2c-0.1,0.2-0.1,0.4,0,0.6c0.2,0.4,0.4,0.7,0.8,0.9
				c0.2,0.1,0.5,0.2,0.8,0.1c0.2-0.1,0.3-0.3,0.3-0.6c0-0.2-0.1-0.5-0.2-0.6C128.6,84.4,128.2,84.1,127.8,84.1z"/>
			<g>
				<path class="st14" d="M139.7,81.9c-0.1-0.5-0.3-0.7-0.8-0.8c-0.7-0.1-1.4-0.4-2-0.8c-1.5-1-3.1-1.6-4.8-1.9
					c-1.6-0.2-3.1-0.1-4.7,0.3c-1.7,0.4-3,1.3-4.2,2.4c-0.3,0.2-0.5,0.5-0.8,0.7c-0.5,0.4-0.8,0.5-1.3,0.1c-0.5-0.3-1-0.5-1.5-0.5
					c-0.5,0-1,0.2-1.5,0.5c-0.5,0.3-0.9,0.3-1.3-0.1c-0.3-0.2-0.5-0.5-0.8-0.7c-1.2-1.1-2.6-2-4.2-2.4c-1.6-0.3-3.1-0.5-4.7-0.3
					c-1.8,0.3-3.4,0.9-4.8,1.9c-0.6,0.4-1.3,0.7-2,0.8c-0.5,0.1-0.7,0.3-0.8,0.8c-0.1,0.2-0.1,0.5-0.1,0.7v0.9
					c0.1,0.1,0.2,0.3,0.4,0.4c0.6,0.4,0.9,0.9,1.1,1.6c0.1,0.6,0.3,1.3,0.5,1.9c0.5,1.8,1.5,3.3,3.1,4.3c2,1.3,4.2,1.9,6.6,1.2
					c1.7-0.4,3.2-1.2,4.4-2.5c1-1.1,1.6-2.4,2.1-3.7c0.1-0.4,0.2-0.9,0.4-1.3c0.2-0.6,0.6-0.9,1.2-1c0.2,0,0.5,0,0.7,0
					c0.2,0,0.5,0,0.7,0c0.6,0.1,1,0.4,1.2,1c0.1,0.4,0.2,0.9,0.4,1.3c0.4,1.4,1.1,2.7,2.1,3.7c1.2,1.3,2.8,2,4.4,2.5
					c2.4,0.6,4.5,0,6.6-1.2c1.6-1,2.5-2.5,3.1-4.3c0.2-0.6,0.3-1.3,0.5-1.9c0.1-0.7,0.5-1.2,1.1-1.6c0.2-0.1,0.3-0.3,0.4-0.4v-0.9
					C139.8,82.3,139.7,82.1,139.7,81.9z M112.9,90.7c-1.2,0.9-2.6,1.3-4.2,1.3c-2-0.1-3.7-0.8-5.1-2.3c-2.1-2.4-2-5.9,0.2-8.3
					c2.7-2.8,7.4-2.8,10.1,0C116.5,84.2,116.1,88.5,112.9,90.7z M135.4,89.7c-1.4,1.6-3.2,2.3-5.1,2.3c-1.6,0-3-0.4-4.2-1.3
					c-3.2-2.2-3.6-6.5-0.9-9.3c2.7-2.8,7.3-2.8,10.1,0C137.4,83.8,137.5,87.3,135.4,89.7z"/>
				<path class="st15" d="M112.9,90.7c-1.2,0.9-2.6,1.3-4.2,1.3c-2-0.1-3.7-0.8-5.1-2.3c-2.1-2.4-2-5.9,0.2-8.3
					c2.7-2.8,7.4-2.8,10.1,0C116.5,84.2,116.1,88.5,112.9,90.7z"/>
				<path class="st15" d="M135.4,89.7c-1.4,1.6-3.2,2.3-5.1,2.3c-1.6,0-3-0.4-4.2-1.3c-3.2-2.2-3.6-6.5-0.9-9.3
					c2.7-2.8,7.3-2.8,10.1,0C137.4,83.8,137.5,87.3,135.4,89.7z"/>
			</g>
			<path class="st16" d="M103.8,76.5c0,0,0.7-1.8,4-2.1c0,0,6.6-0.5,7.8,1.7l-5.2-0.4c-0.4,0-0.8,0-1.2,0
				C108,75.6,105.8,75.8,103.8,76.5z"/>
			<path class="st16" d="M134.4,76.5c0,0-0.7-1.8-4-2.1c0,0-6.6-0.5-7.8,1.7l5.2-0.4c0.4,0,0.8,0,1.2,0
				C130.2,75.6,132.4,75.8,134.4,76.5z"/>
		</g>
		<path class="st4" d="M90.9,128.1c3.2-3.6,4-3.2,7.2-5.4c-0.7-1.4-3.9-7.5-4.6-9c-1.3-2.9-1.9-1.8-4.5-0.5
			c-1.8,0.9-5.6,4.5-6.6,6.4c-2,3.6-2.8,6.2-3.5,10.3c-0.4,2.3-0.6,6.6-0.3,8.9c0.5,3.8,1.6,7.9,2.9,10.8c0,0,7.2-1.6,9.7-2.1
			c0,0-2.2-6-2.5-8.6C88.3,135,88.3,131,90.9,128.1z"/>
		<path class="st4" d="M148.2,128.8c-3.2-3.6-4-3.2-7.2-5.4c0.7-1.4,3.9-7.5,4.6-9c1.3-2.9,1.9-1.8,4.5-0.5c1.8,0.9,5.6,4.5,6.6,6.4
			c2,3.6,2.8,6.2,3.5,10.3c0.4,2.3,0.6,6.6,0.3,8.9c-0.5,3.8-1.6,7.9-2.9,10.8c0,0-7.2-1.6-9.7-2.1c0,0,2.2-6,2.5-8.6
			C150.8,135.7,150.8,131.7,148.2,128.8z"/>
		<path class="st5" d="M167.5,111.5c-5.5,4.9-2.3,14.1-2.3,14.1l1.3,2h-10.6c0.1-0.5,0.3-1,0.4-1.6c0.7-4.1,0-8.3-0.4-10.1
			c-0.2-0.9-0.3-1.8-0.1-2.8c0.7-4.7,5.3-6.5,5.3-6.5c0.4-0.1,0.7-0.3,1.1-0.4c5.8-1.7,6.2,2,6.1,3.8
			C168.1,110.7,167.9,111.2,167.5,111.5z"/>
		<path class="st17" d="M162.8,106.2c-0.6,0.5-1,1.2-1.3,1.7c-0.7,1.1-1.8,2-2.7,3c-0.5,0.5-1,1.1-1.3,1.8c-0.6,1.4-0.5,3-0.4,4.5
			c0.2,2.1,0.4,4.3,0.6,6.4c0.1,0.8-0.1,2.3-0.8,2.8c-0.2,0.2-0.4,0.3-0.7,0.3c0.7-4.1,0-8.6-0.4-10.5c-0.2-1.1-0.3-2.2,0-3.3
			c1-4.3,5.2-6,5.2-6C162,106.4,162.4,106.3,162.8,106.2z"/>
		<path class="st18" d="M143.9,133c0.1-1.6,1-3,2.5-3.6c5.3-2.3,19.9-7.4,24.2,1.3c0,0,2.2,3.1-1.8,5.5c0,0,6.7,5.2-0.7,10.3
			c0,0,3.7,5.2-2,7.5c0,0,2.5,5.1-4.7,6.8c0,0-11.2,0.9-14.2-6.4c-0.2-0.4-0.4-0.7-0.6-1.1l-0.2-0.2c-0.3-0.4-0.8-0.7-1.2-0.9
			c-1.4-0.7-4.2-2.7,0-7.2c0,0-7.7-4.1,0.1-7.9C145.2,136.9,143.9,135.6,143.9,133z"/>
		<path class="st17" d="M154.6,134.4c2.9-0.6,5.8-1.3,8.7-1.2c-2.9,1.1-5.8,1.9-8.8,2.5c-1.5,0.3-3,0.5-4.6,0.6
			c-1.4,0.1-3.1,0.4-4.5,0.2c0.5-0.4,1.5-0.4,2.2-0.6c0.8-0.2,1.6-0.4,2.4-0.5C151.5,135.1,153.1,134.7,154.6,134.4z"/>
		<path class="st17" d="M160.2,143.7c-0.5,0.8-1.3,1.4-2.2,1.6s-1.9,0.3-2.8,0.3c-1.9,0-3.7,0-5.6,0c-1.2,0-2.4,0-3.5-0.4
			c-0.4-0.1-0.8-0.4-0.5-0.9c0.3-0.4,1.2-0.3,1.6-0.3c2.8-0.2,5.6-0.4,8.4-0.4C157,143.6,158.6,143.7,160.2,143.7z"/>
		<path class="st17" d="M159.6,152.1c-2.5,0.6-5.1,0.9-7.7,1c-1.3,0.1-2.5,0.1-3.8-0.2c-0.5-0.1-3.8-0.3-1.6-1.4
			c1.1-0.6,2.9-0.4,4.2-0.4c1.4,0,2.9,0,4.3,0.1C156.5,151.5,158,151.7,159.6,152.1z"/>
	</g>
</g>
</svg>
